<?xml version="1.0" encoding="utf-8"?>
<!-- Generator: Adobe Illustrator 25.4.0, SVG Export Plug-In . SVG Version: 6.00 Build 0)  -->
<svg version="1.1" id="Layer_1" xmlns="http://www.w3.org/2000/svg" xmlns:xlink="http://www.w3.org/1999/xlink" x="0px" y="0px"
	 viewBox="0 0 463.8 511.8" style="enable-background:new 0 0 463.8 511.8;" xml:space="preserve">
<style type="text/css">
	.st0{fill:#A79FA1;}
	.st1{fill:#F9CE6B;}
	.st2{fill:#524A4D;}
	.st3{fill:#726A6C;}
	.st4{fill:#F7F6F6;}
	.st5{fill:#F6F5F5;}
</style>
<g>
	<path class="st0" d="M0,247.9c4.3,0,8.8-0.8,12.9,0.2c6.3,1.5,2,7,2.9,10.6c0.5,1.9,1.6,5.4-2.9,5.2c-4.3-0.1-8.6,0-13,0
		C0,258.6,0,253.2,0,247.9z"/>
	<circle class="st1" cx="231.9" cy="255.9" r="190"/>
	<path class="st0" d="M335.9,63.6c0-7.7,0-7.7,9.1-7.7c6.9,0,6.6,0,7,10.4c0.2,5.2-1.8,5.9-6.3,5.8C335.9,71.8,335.9,72,335.9,63.6z
		"/>
	<path class="st0" d="M455.8,263.9c-8,0-7.7,0-8.1-10.3c-0.2-5.1,1.6-6,6.2-5.9c10,0.4,10,0.1,10,7.9
		C463.8,263.9,463.8,263.9,455.8,263.9z"/>
	<path class="st0" d="M351.9,448c0,7.9,0,7.9-8.9,7.9c-7.1,0-6.8,0-7.3-10.7c-0.2-5.2,2-5.5,6.1-5.4
		C351.9,440,351.9,439.8,351.9,448z"/>
	<path class="st2" d="M442.9,282c-4.1-7.4-4.1-7.4-11.5-2.9c-0.9,0.5-1.6,1.2-2.5,1.6c-3.4,1.4-3.7,3-1.7,6.3
		c8.6,14.2,15,29.2,18.3,45.5c6.2,31.1-6.4,55.9-35.3,67.9c-19.7,8.2-40.5,10.1-61.7,8.6c-3.3-0.1-6.6-0.3-10-0.3
		c-2.9,0-3.2-1.2-2.3-3.8c8.5-23.9,14.3-48.4,18-73.4c0.5-3.3,2-5.6,4.7-7.7c24.1-19.1,45.8-40.6,64.9-64.7c0,0,0,0,0,0
		c0.8-1.2,1.6-2.5,2.5-3.7c15.4-21.1,28.1-43.5,34.2-69.2c9.8-41.5-8.1-76-48-91.1c-25.5-9.7-52-10.3-78.7-7.5
		c-3.9,0.4-5.5-0.6-7-4.1c-5.3-12.4-11.8-24.2-19.6-35.3c-12.7-18.1-27.5-33.7-48.3-42.7c-6.1-2.7-12.7-3.6-19-5.5
		c-5.3,0-10.7,0-16,0c-4.5,1.1-9.2,0.8-13.6,2.2c-18.6,6.1-32.8,18.2-45.1,32.7c-12.1,14.2-21.3,30.2-29,47.1
		c-1.2,2.6-2.3,4.5-5.8,4.2c-13.2-1.2-26.4-2.1-39.8-0.8c-15.9,1.5-31.4,4.3-45.9,11c-18.9,8.6-33.3,22-40.5,41.9
		c-5.1,14-4.3,28.6-2.6,43c2.1,17.8,9.5,33.9,18.4,49.3c4,7,4.5,7.2,11.5,3.1c0.3-0.2,0.6-0.3,0.9-0.5c7.4-4.4,7.4-5.1,3.4-12.4
		c-8-14.7-14.3-30-16.6-46.8c-3.9-28.4,10.1-51.9,36.9-61.9c18.1-6.8,36.8-8.7,55.9-8.6c0.8-0.1,1.6-0.1,2.3,0
		c-0.3-0.3-0.8-0.6-1.5-1c2-0.7,3.9,0.2,5.9,0.4c10.1,1,10,1,6.8,10.9c-6.9,21.2-12.1,42.8-15.3,64.9c-0.6,4.3-2.1,7.5-5.7,10.4
		c-23.9,18.8-45.1,40.2-64.1,64c0-0.6,0-1.2,0-1.8c-0.4,0.5-0.7,0.9-1.1,1.4c-15.3,20-27.9,41.4-35,65.7
		c-4.5,15.4-5.3,31.3-2.2,46.9c4.9,24.8,21.2,41,43.8,50.8c26.7,11.6,54.8,12.9,83.3,9.9c3.8-0.4,5.7,0.7,7.3,4.1
		c6.7,14.7,14.4,28.9,24.6,41.6c16.5,20.5,35,38,63.1,40.3c5.7,0,11.3,0,17,0c0.4-0.3,0.7-0.8,1.1-0.8c17.1-2.5,31.2-10.9,43.7-22.4
		c18.6-17.1,31.3-38.2,41.4-61.1c1.3-2.9,2.7-4,6-3.6c5.8,0.7,11.6,1.1,17.4,1.3c22.1,0.8,43.9-1.3,64.6-9.5
		c31.8-12.6,49-38.5,47.6-72.7C461.8,321,453.6,301,442.9,282z M403.7,258.3c-13.7,16.3-28.8,31.2-46,45.7c2.7-32.4,3.2-63.8,0-96.4
		c4.3,3.8,7.8,6.8,11.2,9.9c11.8,11,23.1,22.5,33.6,34.8C403.9,254.1,406,255.5,403.7,258.3z M351.4,102.3
		C351.4,102.3,351.4,102.3,351.4,102.3C351.4,102.3,351.4,102.3,351.4,102.3c18.9-0.5,37.6,0.9,55.5,7.7
		c31.2,11.9,45,36.5,38.6,69.3c-3.7,19.2-11.9,36.6-22.8,52.7c-1,1.7-2,3.4-3.1,5.1c-1.2,1.8-2.5,3.5-4.1,5.7
		c-3.6-3.9-7-7.6-10.4-11.4c-14.5-16.1-30.4-30.8-47.3-44.4c-2.7-2.2-3.3-4.8-3.8-7.7c-3-19.6-7.5-38.8-13-57.8
		c-0.8-2.9-1.6-3.6-4.7-2.8c-11.7,3.3-11.6,3.1-8.5,14.9c2.8,10.9,5.2,22,7.8,33c0.2,0.9,0,1.9,0,3.4c-26-18.2-53.2-33.3-82.3-47.1
		c13.7-5.1,26.7-8.9,39.9-12.1C312.3,106,331.7,103.1,351.4,102.3z M152.8,87.3c1.5-2.7,2.9-5.6,4.3-8.4c10-20,22.4-38.1,40.9-51.2
		c22.5-15.9,46.8-15.6,68.9,0.8c17.7,13.2,29.9,30.9,39.7,50.4c1.5,3,3,5.9,4.5,8.8c1.2,2.2,0.4,2.9-1.8,3.3
		c-25.7,4.7-50.6,12.2-74.8,21.9c-1.8,0.7-3.4,0.6-5.2-0.1c-24.1-9.5-48.8-17.2-74.4-21.8C152.3,90.6,151.4,89.9,152.8,87.3z
		 M129.9,158.2c3.3-16.5,8-32.6,13.6-48.4c0.8-2.3,1.4-4.4,4.7-3.8c20.9,3.8,41.4,9.2,62.6,17c-29.4,13.7-56.4,29.3-82.5,47.6
		C127.6,165.7,129.1,162,129.9,158.2z M120.1,237.1c0.4-12.7,1.8-25.4,2.9-38.1c0.3-3.5,1.7-6.2,4.9-8.6
		c25.1-18.2,51.4-34.3,79.2-48c7.5-3.7,15.1-6.9,22.6-10.4c1.5-0.7,2.7-0.7,4.2,0c24.9,10.5,48.5,23.4,71.5,37.3
		c10.5,6.4,20.3,13.7,30.5,20.7c2.9,2,4.4,4.5,4.8,7.8c0.8,7.1,1.8,14.1,2,21.2c0.4,12,2,23.9,1,34.4c0.6,21-1.4,40.3-3,59.6
		c-0.3,3.3-1.4,6-4.5,8.3c-18.4,13.5-37.5,25.8-57.4,36.7c-14,7.7-28.3,14.8-43,21c-2.6,1.1-5,1.2-7.7,0
		c-29.7-12.8-57.9-28.3-84.8-46.2c-5.8-3.9-11.3-8.2-17-12.2c-2.5-1.7-3.1-4.3-3.4-6.9c-0.8-6.7-1.5-13.5-2-20.2
		C119.7,274.7,119.6,255.8,120.1,237.1z M60.1,253.7c13.7-16.3,28.8-31.2,46-45.9c-2.6,32.4-3.2,63.7,0,96.3
		C89,289.3,74,274.2,60.2,258C58.8,256.4,58.8,255.2,60.1,253.7z M114.4,409.4C114.4,409.4,114.4,409.4,114.4,409.4
		C114.4,409.4,114.4,409.4,114.4,409.4c-19.4,0.8-38.6-0.6-57-7.5c-31.2-11.6-45.2-36-39.1-68.9c3.6-19.4,11.9-36.9,22.8-53.2
		c2.2-3.5,4.5-7,7.1-11c1.9,2.1,3.5,3.9,5.1,5.7c16.1,18.1,33.4,34.9,52.4,49.9c3,2.4,3.6,5.3,4.1,8.6c3,19.4,7.4,38.5,12.9,57.4
		c1,3.4,2.2,3.6,5.2,2.7c11.1-3.4,11-3.3,8.1-14.4c-2.8-10.9-5.3-22-7.8-33c-0.3-1.1-0.2-2.2-0.3-4.2c26.2,18.3,53.4,33.4,82.9,47.3
		C178.9,400.3,147.3,407.9,114.4,409.4z M310.6,425.5c-1.4,2.4-2.7,5-4,7.5c-9,18.2-20.3,34.7-36.1,47.6
		c-25.6,20.9-54.3,20.2-79.1-1.6c-14.7-12.9-25.6-28.7-34.2-46.1h0c-1.4-2.8-2.8-5.7-4.3-8.4c-1.5-2.7-0.5-3.3,2.2-3.8
		c25.4-4.6,50-12.2,74-21.7c2.1-0.8,4-1,6.1-0.1c23.7,9.4,48,16.7,73,21.4C312,421.1,312.4,422.4,310.6,425.5z M332.6,360
		c-3.2,14.3-7.3,28.3-12.3,42.1c-0.8,2.3-1.4,4.2-4.7,3.6c-20.5-3.7-40.5-9.2-60.1-16.1c-0.3-0.1-0.5-0.4-1.3-1.1
		c28.6-13.2,55.4-28.8,81.6-47.1C335.8,348.3,333.9,354.1,332.6,360z"/>
	<path class="st0" d="M128,64c-0.1,8.8,1.2,8-5.7,8c-10.3,0-10.3,0-10.3-5.5c0-10.5,0-10.6,10.2-10.5C129.1,56,127.8,55.2,128,64z"
		/>
	<path class="st0" d="M128,448.3c-0.3,3.5,1.9,8.1-5.2,7.7c-10.7-0.6-10.8-0.1-10.8-6.6c0-9.5,0-9.5,6.7-9.5
		C127.9,439.8,127.9,439.8,128,448.3z"/>
	<path class="st3" d="M343.8,253.6c0.6,21-1.4,40.3-3,59.6c-0.3,3.3-1.4,6-4.5,8.3c-18.4,13.5-37.5,25.8-57.4,36.7
		c-14,7.7-28.3,14.8-43,21c-2.6,1.1-5,1.2-7.7,0c-29.7-12.8-57.9-28.3-84.8-46.2c-5.8-3.9-11.3-8.2-17-12.2
		c-2.5-1.7-3.1-4.3-3.4-6.9c-0.8-6.7-1.5-13.5-2-20.2c-1.3-18.8-1.5-37.6-0.9-56.4c0.4-12.7,1.8-25.4,2.9-38.1
		c0.3-3.5,1.7-6.2,4.9-8.6c25.1-18.2,51.4-34.3,79.2-48c7.5-3.7,15.1-6.9,22.6-10.4c1.5-0.7,2.7-0.7,4.2,0
		c24.9,10.5,48.5,23.4,71.5,37.3c10.5,6.4,20.3,13.7,30.5,20.7c2.9,2,4.4,4.5,4.8,7.8c0.8,7.1,1.8,14.1,2,21.2
		C343.1,231.2,344.7,243.1,343.8,253.6z"/>
	<path class="st4" d="M255.3,195.2c-2.3,9.3-4.4,18.2-6.7,27c-7.9,31.7-15.9,63.4-23.7,95.2c-0.8,3.4-1.8,4.5-5.6,3.4
		c-10.9-3-11.1-2.8-8.4-13.7c9.3-37.7,18.8-75.3,28.1-113c0.8-3.3,2-4.4,5.3-3.3c2.8,1,5.8,1.4,8.7,2.2
		C254.2,193.5,255.7,193.7,255.3,195.2z"/>
	<path class="st5" d="M193.9,218.8c1.9,0.2,2.6,1.7,3.7,2.7c8.1,7.9,8.1,8,0.1,16c-5.3,5.3-10.5,10.7-15.9,15.8
		c-2.1,2-2,3.2,0.1,5.2c7.2,6.9,14.1,14.1,21.2,21.1c1.9,1.9,2.2,3,0.2,5.2c-8.6,9.1-8.5,9.2-17.5,0.2c-8.8-8.8-17.6-17.7-26.5-26.4
		c-1.8-1.8-2.5-2.9-0.3-5.1c11-10.8,21.9-21.8,32.9-32.7C192.5,220,193.3,219.4,193.9,218.8z"/>
	<path class="st5" d="M270.1,218.9c0.6,0.5,1.3,1.1,2,1.8c10.8,10.8,21.6,21.7,32.6,32.4c2.3,2.3,2,3.4-0.1,5.5
		c-10.8,10.6-21.5,21.3-32.1,32.2c-2.2,2.2-3.4,2.1-5.5,0c-8.7-8.5-8.7-8.4-0.4-16.8c5.1-5.1,10-10.2,15.2-15.1
		c2.3-2.2,2.6-3.5,0.1-5.9c-7-6.6-13.6-13.7-20.6-20.4c-2.6-2.5-2.6-4.1,0.1-6.3c2.2-1.8,4-4,6.1-5.9
		C268,219.8,268.6,218.8,270.1,218.9z"/>
</g>
</svg>
