<?xml version="1.0" encoding="utf-8"?>
<!-- Generator: Adobe Illustrator 25.4.0, SVG Export Plug-In . SVG Version: 6.00 Build 0)  -->
<svg version="1.1" id="Layer_1" xmlns="http://www.w3.org/2000/svg" xmlns:xlink="http://www.w3.org/1999/xlink" x="0px" y="0px"
	 viewBox="0 0 511.8 480.9" style="enable-background:new 0 0 511.8 480.9;" xml:space="preserve">
<style type="text/css">
	.st0{fill:#F8CE6B;}
	.st1{fill:#524A4D;}
	.st2{fill:#FE7552;}
	.st3{fill:#FD7552;}
	.st4{fill:#514A4D;}
	.st5{fill:#F9CE6B;}
</style>
<g>
	<path class="st0" d="M511.8,208c0,6,0,12,0,18c-1,8.4-1.7,16.7-5,24.7c-13.6,33.2-46.5,55.7-82.3,55.7c-45.6,0-91.2,0-136.7,0
		c-2.9,0-6.1,0.8-8.5-1.7c-2-9.7-1-19.5-0.6-29.3c0.2-3.4,3.2-3.9,6-3.9c6.3-0.2,12.6,0,19-0.1c5.8-0.1,8.9-5.7,6.1-11
		c-0.6-1.2-1.7-1.5-2.9-1.6c-1.8-0.2-3.7-0.2-5.5-0.2c-30.3,0-60.6,0-90.9,0c-0.7,0-1.3,0-2,0c-6.6,0.1-7.1,0.5-7.1,6.5
		c0,5.7,0.6,6.2,6.9,6.3c6,0.1,12-0.1,18,0.1c5.6,0.2,7.1,1.4,7,6.7c-0.1,8.8,1.1,17.6-0.8,26.3c-1.5,2.1-3.8,1.9-5.9,1.9
		c-48.1,0.1-96.3,1-144.3-0.3c-28.4-0.8-51.1-14.7-67.7-37.9C5.9,255.8,0.6,242.3,0,227c0-6.7,0-13.3,0-20c1-7.7,1.7-15.4,4.8-22.7
		c13.2-30.6,36-49.2,68.8-55.4c2.9-0.6,5.9-1.2,8.9-1.2c3,0.1,4-1.4,4.1-4.3c1.3-22.2,7.2-43,19.2-61.8
		c21.9-34.6,53.3-55.1,93.7-60.5c57.3-7.7,111.8,24.4,134.3,75.6c1.7,3.7,3.2,4.1,6.7,2.2c22.2-11.9,48.7-8.6,66.7,8.5
		c10,9.5,15.7,21.4,17.5,35.1c0.5,4.1,2.1,5,5.9,5.4c37.7,4.4,63.5,24.3,77.5,59.7C510.9,194.2,510.7,201.2,511.8,208z"/>
	<path class="st1" d="M478.8,385c11,0,22,0,33-0.1c0,5.3,0,10.7,0,16c-11,0-22,0-33-0.1C477.8,395.6,477.8,390.3,478.8,385z"/>
	<path class="st1" d="M0,432.9c11,0,22,0,33,0.1c1,5.3,1,10.6,0,15.9c-11,0-22,0-33,0.1C0,443.6,0,438.3,0,432.9z"/>
	<path class="st1" d="M151.9,264.6c0,8.4,0,8.4-5.5,8.4c-10.5,0-10.5,0-10.5-5.6c0-10.4,0-9.9,10.7-10.5
		C154.3,256.4,151.4,261.5,151.9,264.6z"/>
	<path class="st1" d="M183.9,265.1c0,7.9,0,7.9-10.7,7.9c-5.3,0-5.3,0-5.3-10.9c0-5.2,0-5.2,10.5-5.1
		C183.9,257,183.9,257,183.9,265.1z"/>
	<path class="st1" d="M336.4,257c7.5,0,7.5,0,7.5,7.6c0,8.4,0,8.4-8.2,8.4c-7.7,0-7.7,0-7.8-7.9C327.9,257,327.9,257,336.4,257z"/>
	<path class="st1" d="M368,257c7.8,0,7.6,0,7.9,9.8c0.2,4.7-0.7,6.6-6.1,6.4c-10.1-0.5-10.1-0.1-10.1-7.2
		C359.9,257,359.9,257,368,257z"/>
	<path class="st2" d="M304.9,400.9c-1.3-5.3-1.3-10.6,0-15.9c4.6-9.5,11.5-15.8,22.5-16c11.5-0.2,18.7,6.2,23.5,16
		c3.4,5,3.4,10.9,0,15.8c-4.4,9.3-11.2,15.6-22,16C317.3,417.3,309.8,410.9,304.9,400.9z"/>
	<path class="st3" d="M368.9,385c4.6-9.5,11.5-15.8,22.5-16c11.4-0.2,18.7,6.1,23.5,16c3.4,5,3.4,10.9,0,15.8
		c-4.5,9.3-11.3,15.6-22,16c-11.6,0.4-19.1-5.9-24-16C365.5,395.9,365.5,390,368.9,385z"/>
	<path class="st3" d="M478.8,385c1.3,5.3,1.3,10.6,0,15.9c-4.7,9.9-12,16.2-23.5,16c-11-0.2-17.9-6.5-22.5-16
		c-3.4-5-3.4-10.9,0-15.9c4.5-9.3,11.3-15.6,22-16C466.5,368.6,474,374.9,478.8,385z"/>
	<path class="st2" d="M33,448.9c-1.3-5.3-1.3-10.6,0-15.9c4.8-10.1,12.3-16.4,24-16c10.8,0.4,17.5,6.7,22,16c3.4,5,3.4,10.9,0,15.9
		c-4.7,9.8-12,16.2-23.5,16C44.5,464.6,37.6,458.3,33,448.9z"/>
	<path class="st3" d="M97,433c4.8-9.8,12.1-16.2,23.5-16c11,0.2,17.9,6.5,22.5,16c3.4,5,3.4,10.9,0,15.8c-4.4,9.3-11.2,15.6-22,16
		c-11.6,0.4-19.1-5.9-24-16C93.6,443.9,93.6,438,97,433z"/>
	<path class="st3" d="M206.9,433c1.3,5.3,1.3,10.6,0,15.9c-4.5,9.3-11.3,15.6-22,16c-11.6,0.4-19.1-5.9-24-16
		c-3.4-5-3.4-10.9,0-15.9c4.6-9.5,11.5-15.8,22.5-16C194.9,416.8,202.2,423.2,206.9,433z"/>
	<path class="st1" d="M368.9,385c-1.3,5.3-1.3,10.6,0,15.9c-6,0-12,0-18,0c1.3-5.3,1.3-10.6,0-15.8C356.9,385,362.9,385,368.9,385z"
		/>
	<path class="st1" d="M432.9,385c-1.3,5.3-1.3,10.6,0,15.9c-6,0-12,0-18,0c1.3-5.3,1.3-10.6,0-15.8C420.8,385,426.8,385,432.9,385z"
		/>
	<path class="st1" d="M97,433c-1.3,5.3-1.3,10.6,0,15.9c-6,0-12,0-18,0c1.3-5.3,1.4-10.6,0-15.9C85,433,91,433,97,433z"/>
	<path class="st1" d="M160.9,433c-1.3,5.3-1.3,10.6,0,15.9c-6,0-12,0-18,0c1.3-5.3,1.3-10.6,0-15.8C148.9,433,154.9,433,160.9,433z"
		/>
	<path class="st1" d="M240.2,464.9c7.7,0,7.7,0,7.7,7.8c0,8.2,0,8.2-8.3,8.2c-7.7,0-7.7,0-7.7-7.8
		C231.9,464.9,231.9,464.9,240.2,464.9z"/>
	<path class="st4" d="M263.9,472.9c0-8,0-8,8-8c8,0,8,0,8,8c0,8,0,8-8,8C263.9,480.9,263.9,480.9,263.9,472.9z"/>
	<path class="st1" d="M306.4,256.9c-31.6,0.2-63.3,0.1-94.9,0.1c-11.9,0-11.8,0-11.6,12.1c0,3,0.8,4,3.9,3.9
		c8.2-0.2,16.3,0,24.5-0.1c2.7,0,3.8,0.7,3.7,3.6c-0.2,9.5-0.2,19-0.2,28.5c0.1,1.8,0.1,3.7,0.1,5.5c0,28.6,0.1,57.2-0.1,85.8
		c0,3.6,0.6,4.9,4.6,4.7c8-0.3,16,0,23.9-0.2c2.8-0.1,3.7,0.7,3.6,3.6c-0.2,8-0.3,16,0,23.9c0.2,3.8-1,4.6-4.7,4.6
		c-17.5-0.2-34.9,0-52.4,0c-1,5.3-1,10.6,0,15.9c23,0,45.9,0,68.9,0.2c3.8,0,4.2-1.4,4.2-4.6c-0.2-13.3,0-26.6-0.1-39.9
		c0-2.8,0.7-3.7,3.6-3.6c7.1,0.2,14.3,0,21.5,0c1-5.3,1-10.6,0-15.9c-7.2,0-14.3-0.1-21.5,0c-2.3,0-3.6-0.2-3.6-3.1
		c0.2-25.6,0.2-51.2,0.2-76.9c-0.1-9.5,0-19-0.2-28.5c-0.1-2.9,0.9-3.7,3.7-3.6c5.8,0.2,11.6,0.1,17.5,0.1c10.9,0,10.6,0,11-10.8
		C312.2,257.4,310.4,256.9,306.4,256.9z M260.9,385c-13,0.6-13,0.7-13-12.1c0-22.6,0.1-45.2,0.1-67.9c5.2-2.4,10.4-2.4,15.7,0
		c0.1,25.6,0.1,51.2,0.2,76.9C264,384.2,263.3,384.9,260.9,385z"/>
	<path class="st5" d="M263.7,305c-5.2,0-10.4,0-15.7,0c0-9.6,0-19.2-0.2-28.8c0-2.3,0.6-3.1,3.1-3.2c12.9-0.8,12.9-0.9,12.9,12.2
		C263.9,291.8,263.8,298.4,263.7,305z"/>
</g>
</svg>
