<?xml version="1.0" encoding="utf-8"?>
<!-- Generator: Adobe Illustrator 25.4.0, SVG Export Plug-In . SVG Version: 6.00 Build 0)  -->
<svg version="1.1" id="Layer_1" xmlns="http://www.w3.org/2000/svg" xmlns:xlink="http://www.w3.org/1999/xlink" x="0px" y="0px"
	 viewBox="0 0 512 511.9" style="enable-background:new 0 0 512 511.9;" xml:space="preserve">
<style type="text/css">
	.st0{fill:#A79FA1;}
	.st1{fill:#F9CE6B;}
	.st2{fill:#524A4D;}
	.st3{fill:#FE7552;}
	.st4{fill:#726A6C;}
	.st5{fill:#E1DCDE;}
	.st6{fill:#FEFEFE;}
</style>
<g>
	<path class="st0" d="M72.1,0.1c16,0,32,0,48,0c2.6,2.1,2.3,5,2.3,7.8c0.1,15,0,30,0.1,44.9c0,7.9,0.9,8.9,9,8.9
		c67.1,0,134.2,0,201.2,0c8,0,8.9-0.9,9-8.9c0.1-15,0-30,0.1-44.9c0-2.8-0.3-5.8,2.3-7.8c11,0,22,0,33,0c0.4,0.5,0.6,1.1,0.7,1.7
		c1.4,16.3,0.4,32.5,0.6,48.8c0.2,11.1,0,11,11.1,11.1c16.8,0.3,33.6-0.8,50.3,0.7c1.9,1,2.2,2.8,2.4,4.6c0.2,2.2,0.2,4.3,0.2,6.5
		c0,39.7,0,79.5,0,119.2c0,3.3,0.6,6.7-1.2,9.8c-2.6,2.4-4.6,0.4-6.5-1.1c-7.4-5.5-15.5-8.4-24.8-6.3c-14.1,3.2-23,14-23.4,28.5
		c-0.2,8.2-0.4,16.3,0,24.5c0.9,16.6-1.6,32.8-5.6,48.9c-3.4,13.4-6,27-9.1,40.4c-1,4.2-1.4,8.5-1.4,12.9c0,27.3,0,54.6,0,81.9
		c0,5.5,0,11-0.3,16.5c0.5,6.2,0.4,12.4,0.2,18.6c0,1.9,0,4-1.7,5.4c-2.3,1.6-5,1.6-7.7,1.6c-69.9,0.1-139.9,0.1-209.8,0
		c-2.5,0-5,0-7.2-1.5c-1.9-1.5-1.8-3.8-1.9-5.9c-0.1-6.1-0.3-12.1,0.2-18.2c-0.6-26.9-0.5-53.9-0.1-80.8c0.3-16.8-1.5-33.1-5.7-49.3
		c-3.4-13.4-6-26.9-9.1-40.4c-1-4.2-1.4-8.5-1.4-12.9c0-13.6,0.2-27.3,0-40.9c-0.2-15.4-9.6-26.7-24.7-29.4
		c-8.7-1.6-16.4,1.2-23.3,6.4c-1.9,1.4-3.8,3.6-6.6,1.4c-1.6-2.2-1.3-4.8-1.3-7.2c-0.1-62.5-0.1-125,0-187.6
		C69.8,5.1,69.4,2.1,72.1,0.1z"/>
	<path class="st1" d="M344,0.1c0,19.5-0.1,39,0.1,58.4c0.1,4.4-1.3,5.6-5.6,5.6c-70.9-0.1-141.9-0.1-212.8,0c-4.4,0-5.7-1.2-5.6-5.6
		c0.2-19.5,0.1-39,0.1-58.4C194.7,0.1,269.3,0.1,344,0.1z"/>
	<path class="st2" d="M0.1,316.9c5-10.7,7.9-22.1,11.9-33.1c4.3-11.9,8.2-23.9,12.2-35.9c1.2-3.7,3.3-6.3,6.7-8.3
		c10-5.9,19.9-12.1,29.9-18.1c2.4-1.4,4.1-2.9,4.7-5.9c1-4.8,3.7-8.8,6.7-12.7c13.6-12.2,27.8-14.5,40.9-6.3
		c9.6,6,14.5,14.9,15,26.1c0.1,1.8,0.1,3.7,0,5.5c-2.2,30.6,2.5,60.4,10.5,89.8c4.3,15.8,6.1,31.9,5.7,48.3
		c-0.6,27.1-0.3,54.3-0.3,81.4c-2.5,3.1-6.1,2.3-9.3,2.3c-32.5,0.1-64.9,0-97.4,0.1c-4.7,0-9.3,0-14,0c-2.2,0-4.3,0-6.4-0.9
		c-2.2-0.8-2.8-2.7-2.9-4.8c-0.1-2.2-0.2-4.3-0.1-6.5c0.2-6.9,1.4-8.1,8.2-8.4c7.3-0.3,7.8-0.9,7.7-8.2c0-2.9-0.7-5.6-1.6-8.3
		c-6.4-19.4-12.9-38.8-19.4-58.2c-3.5-10.5-7.3-21-8.7-32.1C0.1,320.9,0.1,318.9,0.1,316.9z"/>
	<path class="st2" d="M439.9,203c3.2,4.3,6.1,8.8,7.1,14.1c0.4,2.1,2,2.9,3.5,3.9c10.2,6.2,20.4,12.5,30.7,18.6
		c3.4,2,5.4,4.6,6.6,8.3c7.3,21.6,14.6,43.1,22,64.6c0.5,1.5,0.5,3.3,2,4.4c0,2,0,4,0,6c-6,30.5-18.6,58.9-27.5,88.5
		c-1.2,3.8-2.4,7.6-2.2,11.7c0.2,5.5,0.8,6.2,6.4,6.5c8.7,0.4,9.6,1.3,9.5,10.2c-0.1,3.3,1.2,7.2-2.8,9.5c-2.7,1.2-5.5,1-8.4,1
		c-36.5,0-73.1,0.1-109.6,0c-3.2,0-6.8,0.8-9.3-2.3c0-34.6-0.7-69.2,0.2-103.8c0.3-11.6,4.5-23.1,7.1-34.6c2.4-11,4.8-22.1,7.4-33
		c1.5-6.1,1.1-12.2,1.1-18.4c0.1-11,0.1-22,0-32.9c-0.1-14.2,6-24.9,19.1-30.5c13.1-5.7,25-2.6,35.4,7
		C438.9,202.1,439.4,202.6,439.9,203z"/>
	<path class="st3" d="M144.2,471.9c-0.1,13.3-0.1,26.6-0.2,39.9c-42.6,0-85.3,0-127.9,0c-2.1-1.6-2.2-3.9-2.3-6.3
		c-0.1-17.2-0.2-34.4,0-51.6c0-2.2-0.2-4.8,2.4-6.1c42.5,0,85.1,0,127.6,0C144,455.9,144.1,463.9,144.2,471.9z"/>
	<path class="st3" d="M368,511.8c-0.1-13.3-0.1-26.6-0.2-39.9c0.1-8,0.2-16,0.3-24c42.5,0,85.1,0,127.6,0c2.4,1.2,2.4,3.5,2.4,5.6
		c0.2,17.5,0.2,35.1,0,52.6c0,2.2-0.3,4.3-2.2,5.8C453.3,511.8,410.6,511.8,368,511.8z"/>
	<path class="st4" d="M231.5,112c-35,0-70,0-104.9,0c-6.5,0-6.5,0-6.5-6.7c0-10.6-1.2-9.3,9.3-9.3c69.3,0,138.6,0,207.9,0
		c6.7,0,6.8,0,6.7,6.9c-0.1,10.3,1.1,9.1-9,9.1C300.5,112,266,112,231.5,112C231.5,112,231.5,112,231.5,112z"/>
	<path class="st5" d="M232,280c0-32.6,0.1-65.2-0.1-97.8c0-4.6,1-6.5,6-6.3c11.7,0.6,10-1.6,10.1,10.1c0,63.6,0,127.1,0,190.7
		c0,7.2,0,7.3-6.9,7.2c-10.2-0.1-9.1,1.4-9.1-9C232,343.3,232,311.6,232,280z"/>
	<path class="st4" d="M296.3,128c29.8,0,59.6,0.1,89.4-0.1c5.2,0,6.6,1.6,6.3,6.5c-0.5,11,1.2,9.6-9.6,9.6c-58.5,0-116.9,0-175.4,0
		c-7,0-7.1,0-7-7.1c0.1-9.9-1-8.8,8.8-8.8C238,128,267.1,128,296.3,128z"/>
	<path class="st5" d="M280,287.4c0,30.1-0.1,60.3,0.1,90.4c0,4.9-1.5,6.2-6.2,6.1c-11.6-0.4-9.8,1.2-9.8-9.8
		c-0.1-58.5,0-116.9,0-175.4c0-6.7,0-6.8,6.9-6.7c10.6,0,9-1,9.1,9C280,229.8,280,258.6,280,287.4z"/>
	<path class="st5" d="M328,295.9c0-27.5,0.1-54.9-0.1-82.4c0-4.3,1.1-5.8,5.6-5.7c12.5,0.4,10.4-1.3,10.4,10.2
		c0.1,53.2,0,106.5,0.1,159.7c0,4.8-1.2,6.3-6.1,6.2c-10-0.3-10-0.1-10-10.2C328,347.8,328,321.9,328,295.9z"/>
	<path class="st5" d="M200,303.4c0-24.5,0.1-49-0.1-73.5c0-4.9,1.4-6.3,6.2-6.1c11.4,0.5,9.8-1.3,9.9,9.9c0.1,47.8,0,95.6,0,143.4
		c0,6.7,0,6.8-6.9,6.7c-10.5-0.1-9,1.1-9.1-9C200,351.1,200,327.2,200,303.4z"/>
	<path class="st5" d="M296,303.4c0-24.5,0.1-49-0.1-73.5c0-4.9,1.5-6.3,6.2-6.1c11.5,0.4,9.8-1.3,9.8,9.8c0.1,48,0,95.9,0.2,143.9
		c0,5.1-1.5,6.6-6.5,6.4c-11-0.5-9.6,1.2-9.6-9.6C295.9,350.7,296,327.1,296,303.4z"/>
	<path class="st5" d="M184,312.4c0,22-0.1,43.9,0.1,65.9c0,4.4-1.2,5.8-5.6,5.7c-10.5-0.3-10.5,0-10.5-10.7c0-42.3,0-84.5,0-126.8
		c0-6.6,0-6.7,6.5-6.6c10.8,0.2,9.4-1.6,9.5,9.6C184.1,270.5,184,291.5,184,312.4C184,312.4,184,312.4,184,312.4z"/>
	<path class="st4" d="M377,1c20.7,20.7,41.3,41.3,62,62c-1.5,1.5-3.4,1-5.2,1c-17.4,0-34.9-0.1-52.3,0.1c-4.4,0.1-5.7-1.3-5.6-5.6
		c0.2-17.4,0.1-34.9,0.1-52.3C376,4.4,375.5,2.5,377,1z"/>
	<path class="st4" d="M152.3,128c9,0,18,0.1,27-0.1c3.8-0.1,4.9,1.3,4.8,4.9c-0.3,13.2,1.6,11-11.1,11.1c-16,0.1-32-0.1-47.9,0.1
		c-4,0-5.2-1.3-5.1-5.2c0.4-12.9-1.6-10.6,10.8-10.9c3.7-0.1,7.3,0,11,0C145.3,128,148.8,128,152.3,128z"/>
	<path class="st5" d="M184,407.6c-0.1,9.4,1,8.2-9.2,8.2c-8.1,0-6.6,0.5-6.7-9.7c-0.1-6.3,0-6.3,6.7-6.2
		C184.7,400,184,398.6,184,407.6z"/>
	<path class="st5" d="M208.4,399.9c9,0.1,7.5-0.7,7.6,9.4c0.1,6.6,0,6.7-6.4,6.6c-10.3-0.1-9.6,1.3-9.6-7.3
		C200.1,398.9,199,400,208.4,399.9z"/>
	<path class="st5" d="M240.5,399.9c7.5,0,7.6,0,7.5,6.4c-0.2,10.9,1.4,9.3-9.5,9.5c-6.5,0.1-6.5,0-6.5-6.5
		C232.1,398.8,230.6,400,240.5,399.9z"/>
	<path class="st5" d="M280,408.1c0,7.8,0,7.9-6.8,7.8c-10.3-0.1-9.1,1.1-9.2-8.4c-0.1-7.6,0-7.6,7-7.6
		C280.9,400,279.9,398.8,280,408.1z"/>
	<path class="st5" d="M312,407.6c-0.1,9.7,1,8.2-9.6,8.3c-6.3,0.1-6.4,0-6.3-6.6c0.2-10.7-1.4-9.2,9.7-9.3
		C312,399.8,312,399.9,312,407.6z"/>
	<path class="st5" d="M344,408.3c-0.1,8.7,0.8,7.6-9.4,7.6c-7.9,0-6.5,0.5-6.6-9.9c-0.1-6.1,0-6.2,6.9-6.1
		C344.9,400,343.9,398.6,344,408.3z"/>
	<path class="st2" d="M208.4,48.1c-8.4,0-8.4,0-8.4-9.3c0-6.7,0-6.7,10.1-6.7c6,0,5.6,0,6.1,10.8C216.6,50.6,211.3,47.3,208.4,48.1z
		"/>
	<path class="st2" d="M175.7,32.1c9.5,0.2,8.3-1.1,8.3,6.2c0.1,9.9,0,9.9-10.7,9.8c-5.3,0-4.8,0-5.4-10.9
		C167.5,29.5,172.8,32.8,175.7,32.1z"/>
	<path class="st2" d="M144,32.1c9.2,0.1,7.9-1.1,8,6.1c0.1,9.9,0,9.9-5.2,9.9c-10.8,0-10.8,0-10.8-5.4C136,32.1,136,32.1,144,32.1z"
		/>
	<path class="st6" d="M63.9,238.4c0.6,27.5,1,54.1-4.3,80.4c-1.4,7-2,14.2-3.2,21.2c-0.4,2.3,0.4,2.7,2.4,3.1
		c13.2,2.9,12.5,2.8,15.2-11.8c6.5-34.8,6.3-69.8,5.9-105c-0.1-4.5,0.9-8.6,3.7-12.1c4.3-5.5,11.5-7.7,17.9-5.5
		c6.4,2.2,10.4,7.7,10.4,14.8c0.1,6.8,0.4,13.7,0,20.5c-1.2,19.8,1.6,39.1,6.5,58.2c3.4,13.3,6.1,26.9,9.1,40.4
		c0.4,1.6,0.4,3.3,0.4,4.9c0,26.5-0.1,53,0.1,79.4c0,4-1.2,4.9-5,4.8c-23.5-0.2-47-0.2-70.4,0c-3.6,0-5.2-0.6-4.7-4.6
		c1.8-15.9-6-29.7-10.5-44.2c-6.1-19.5-12.8-38.8-19.4-58.1c-1.2-3.5-1.3-6.6,0-10.1c6.7-19.3,13.3-38.6,19.8-58
		c0.8-2.5,2-4.3,4.4-5.6C49.4,247.3,56.2,243,63.9,238.4z"/>
	<path class="st6" d="M448,238.3c8.3,5,15.8,9.6,23.3,14.1c1.8,1.1,2.1,2.9,2.7,4.6c6.7,19.6,13.3,39.3,20.1,58.9c1,2.9,1,5.3,0,8.2
		c-8.6,25.5-16.9,51.1-25.6,76.6c-3.1,8.9-5.6,17.7-4.6,27.2c0.3,2.7-0.2,4.1-3.6,4.1c-24.3-0.2-48.6-0.1-72.9,0
		c-3,0-3.5-1.1-3.5-3.7c0.1-27.3-0.5-54.6,0.3-81.9c0.3-10.1,3.9-20.2,6.1-30.2c2.8-12.7,5.7-25.3,8.5-37.9
		c0.8-3.6,1.2-7.2,1.1-10.9c-0.1-14.2-0.1-28.3,0-42.5c0-9.8,6.3-16.7,15.3-16.8c9.2-0.1,16.6,7.3,16.6,16.9
		c0.1,12.7,0.5,25.3-0.1,38c-1,21.6,2.4,42.8,5.6,64c0.7,4.9,1.6,9.9,2.1,14.8c0.3,2.9,1.5,3.5,4.2,2.9c3.9-0.9,9.3-0.2,11.3-2.5
		c2.1-2.4-0.4-7.5-1-11.4c-1.9-13.7-3.9-27.3-5.8-41c-0.1-0.7-0.2-1.3-0.2-2C448,271.6,448,255.4,448,238.3z"/>
	<path class="st2" d="M39.8,479.9c-7.7,0-7.7,0-7.7-9.5c0-6.5,0-6.5,6.3-6.5c9.7,0,9.7,0,9.7,7C48.1,479.8,48.1,479.8,39.8,479.9z"
		/>
	<path class="st2" d="M479.9,471.9c-0.1,8.7,1,7.9-5.8,7.9c-11.5-0.1-10.1,1.3-10.2-6c-0.1-9.9,0-10,9.8-9.9
		C481,463.9,479.8,463,479.9,471.9z"/>
</g>
</svg>
