<?xml version="1.0" encoding="utf-8"?>
<!-- Generator: Adobe Illustrator 25.4.0, SVG Export Plug-In . SVG Version: 6.00 Build 0)  -->
<svg version="1.1" xmlns="http://www.w3.org/2000/svg" xmlns:xlink="http://www.w3.org/1999/xlink" x="0px" y="0px"
	 viewBox="0 0 846.2 181.3" style="enable-background:new 0 0 846.2 181.3;" xml:space="preserve">
<style type="text/css">
	.st0{fill:#9E9E9E;}
	.st1{fill:#F4B073;}
	.st2{fill:#CC8259;}
	.st3{fill:#FFE4A1;}
	.st4{fill:#FAC282;}
</style>
<g id="Platformops">
</g>
<g id="Sword">
</g>
<g id="Layer_4">
</g>
<g id="krateo">
	<g>
		<path class="st0" d="M54.7,175.3h-1.1v2.8c1.2,0.3,1.9,0.6,2.2,0.9l-0.2,2h-6.5l-0.2-2c0.2-0.3,0.6-0.5,1.3-0.8v-11
			c-0.7-0.2-1.1-0.5-1.3-0.8l0.2-2h6.4c2.2,0,3.9,0.4,5,1.2c1.1,0.8,1.6,2.2,1.6,4.1C62.1,173.5,59.6,175.3,54.7,175.3z M55.1,167.2
			h-1.4v5.6h1.6c1.1,0,1.9-0.2,2.4-0.6c0.5-0.4,0.8-1.2,0.8-2.2c0-1.1-0.3-1.8-0.9-2.1C57,167.3,56.2,167.2,55.1,167.2z"/>
		<path class="st0" d="M133.4,181.1h-11l-0.2-2c0.2-0.3,0.6-0.5,1.3-0.8v-11c-0.7-0.2-1.1-0.5-1.3-0.8l0.2-2h5.6l0.2,2
			c-0.3,0.3-0.7,0.6-1.3,0.8v11.1h3.8c0.2-0.8,0.5-1.4,0.9-1.8l1.8,0.2V181.1z"/>
		<path class="st0" d="M201.8,164.4l4.8,13.8c0.7,0.2,1.1,0.5,1.4,0.8l-0.2,2h-5.6l-0.2-2c0.2-0.3,0.6-0.5,1.2-0.7l-0.6-2h-4.8
			l-0.6,1.9c0.6,0.2,1,0.5,1.2,0.8l-0.2,2h-5.5l-0.2-2c0.3-0.4,0.8-0.7,1.6-0.9l4.6-13.8H201.8z M199.8,167.8c0,1-0.2,2.1-0.6,3.4
			l-0.9,3h3.4l-0.9-2.9c-0.4-1.1-0.6-2.1-0.6-3l0-0.4H199.8z"/>
		<path class="st0" d="M278.7,164.6v3.4l-1.5,0.2c-0.2-0.2-0.4-0.5-0.6-1h-2.9v11.1c0.6,0.3,1.1,0.5,1.3,0.8l-0.2,2h-5.6l-0.2-2
			c0.2-0.3,0.6-0.5,1.3-0.8v-11.1h-2.9c-0.2,0.5-0.4,0.8-0.6,1l-1.5-0.2v-3.4H278.7z"/>
		<path class="st0" d="M349.6,164.5v4.2l-1.8,0.2c-0.4-0.3-0.7-0.9-0.9-1.8h-3.7v4.4h3.3c0.2-0.5,0.4-0.8,0.6-1l1.5,0.2v4.3
			l-1.5,0.2c-0.2-0.2-0.4-0.5-0.6-1h-3.3v4c1.1,0.2,1.8,0.6,2.3,1l-0.2,2h-6.6l-0.2-2c0.2-0.3,0.6-0.5,1.3-0.8v-11
			c-0.7-0.2-1.1-0.5-1.3-0.8l0.2-2H349.6z"/>
		<path class="st0" d="M416.5,181.3c-2.3,0-4-0.7-5.1-2c-1.1-1.3-1.7-3.4-1.7-6.4c0-2.9,0.6-5.1,1.9-6.5c1.2-1.4,3-2.1,5.3-2.1
			s4,0.6,5.1,1.9c1.1,1.2,1.7,3.3,1.7,6.3s-0.6,5.1-1.9,6.6C420.5,180.6,418.7,181.3,416.5,181.3z M414.1,168.3
			c-0.6,0.8-0.9,2.3-0.9,4.3c0,2.1,0.3,3.6,0.9,4.5c0.6,0.9,1.4,1.4,2.5,1.4c1.1,0,1.9-0.4,2.5-1.3c0.6-0.9,0.9-2.4,0.9-4.4
			c0-3.8-1.2-5.8-3.5-5.8C415.5,167.1,414.7,167.5,414.1,168.3z"/>
		<path class="st0" d="M496.9,169.4c0,1.1-0.3,2-1,2.7c-0.7,0.7-1.5,1.3-2.6,1.7c0.8,0.3,1.3,0.7,1.6,1.2l1.8,3.3
			c0.8,0.3,1.3,0.6,1.5,0.9l-0.2,1.8h-4.1l-2.8-5.9c-0.3-0.6-0.6-0.9-0.9-0.9h-1.6v3.8c1.2,0.3,1.9,0.6,2.2,0.9l-0.2,2h-6.5l-0.2-2
			c0.2-0.3,0.6-0.5,1.3-0.8v-11c-0.7-0.2-1.1-0.5-1.3-0.8l0.2-2h6.1c2.2,0,3.9,0.4,5,1.1C496.3,166.3,496.9,167.6,496.9,169.4z
			 M490.1,167.2h-1.4v4.6h1.4c1.1,0,1.9-0.2,2.4-0.5s0.8-0.9,0.8-1.8c0-0.8-0.3-1.4-0.8-1.8S491.1,167.2,490.1,167.2z"/>
		<path class="st0" d="M573.3,172c0-0.6,0.1-1.6,0.2-3l0-0.6l-0.2,0c-0.4,1.4-0.7,2.4-1,3.2l-3.2,9.4h-3.2l-3.4-9.4
			c-0.3-0.7-0.6-1.6-0.8-2.7l-0.1-0.6l-0.2,0c0.1,1.4,0.2,2.6,0.2,3.6v6.3c0.6,0.2,1,0.5,1.3,0.9l-0.2,1.8H558l-0.2-1.8
			c0.3-0.4,0.7-0.7,1.3-0.9v-11.1c-0.7-0.2-1.1-0.5-1.4-0.9l0.2-1.8h5.5l3.5,9.7c0.4,1.1,0.7,2,0.9,2.9l0.1,0.4h0.3
			c0.1-1,0.4-2.1,0.9-3.3l3.3-9.7h5.4l0.2,1.8c-0.3,0.4-0.7,0.6-1.4,0.9v11c0.6,0.2,1.1,0.5,1.3,0.8l-0.2,2h-5.5l-0.2-2
			c0.3-0.3,0.7-0.6,1.3-0.8V172z"/>
		<path class="st0" d="M645,181.3c-2.3,0-4-0.7-5.1-2c-1.1-1.3-1.7-3.4-1.7-6.4c0-2.9,0.6-5.1,1.9-6.5c1.2-1.4,3-2.1,5.3-2.1
			s4,0.6,5.1,1.9c1.1,1.2,1.7,3.3,1.7,6.3s-0.6,5.1-1.9,6.6C649,180.6,647.3,181.3,645,181.3z M642.7,168.3
			c-0.6,0.8-0.9,2.3-0.9,4.3c0,2.1,0.3,3.6,0.9,4.5c0.6,0.9,1.4,1.4,2.5,1.4c1.1,0,1.9-0.4,2.5-1.3c0.6-0.9,0.9-2.4,0.9-4.4
			c0-3.8-1.2-5.8-3.5-5.8C644.1,167.1,643.2,167.5,642.7,168.3z"/>
		<path class="st0" d="M718.3,175.3h-1.1v2.8c1.2,0.3,1.9,0.6,2.2,0.9l-0.2,2h-6.5l-0.2-2c0.2-0.3,0.6-0.5,1.3-0.8v-11
			c-0.7-0.2-1.1-0.5-1.3-0.8l0.2-2h6.4c2.2,0,3.9,0.4,5,1.2s1.6,2.2,1.6,4.1C725.6,173.5,723.2,175.3,718.3,175.3z M718.6,167.2
			h-1.4v5.6h1.6c1.1,0,1.9-0.2,2.4-0.6c0.5-0.4,0.8-1.2,0.8-2.2c0-1.1-0.3-1.8-0.9-2.1C720.6,167.3,719.7,167.2,718.6,167.2z"/>
		<path class="st0" d="M793.1,167.2c-0.5-0.1-1.1-0.2-1.7-0.2s-1.1,0.1-1.4,0.4c-0.4,0.3-0.5,0.7-0.5,1.2s0.1,1,0.4,1.3
			c0.3,0.3,0.8,0.6,1.6,0.8l2.1,0.6c1.2,0.3,2.1,0.9,2.7,1.6c0.7,0.7,1,1.8,1,3.1c0,1.6-0.6,2.9-1.8,3.9c-1.2,0.9-2.6,1.4-4.4,1.4
			c-1,0-1.9-0.1-3-0.4s-1.9-0.6-2.5-1c0-0.1,0-0.3,0-0.6c0-0.3,0.1-0.7,0.2-1.4c0.1-0.7,0.3-1.2,0.5-1.6h2.3c0.3,0.5,0.4,1.2,0.5,2
			c0.6,0.2,1.2,0.4,2,0.4c0.7,0,1.4-0.2,1.8-0.5c0.5-0.4,0.7-0.9,0.7-1.5c0-0.3,0-0.6-0.1-0.8s-0.2-0.4-0.4-0.6
			c-0.2-0.2-0.6-0.4-1.1-0.6l-2.5-0.7c-2.5-0.7-3.8-2.3-3.8-4.8c0-1.5,0.5-2.6,1.6-3.5c1.1-0.9,2.4-1.3,4.1-1.3c1.7,0,3.4,0.4,5,1.2
			c0,0.1,0,0.3,0,0.6s-0.1,0.7-0.2,1.4c-0.1,0.7-0.3,1.2-0.5,1.6h-2.3C793.3,168.7,793.2,168,793.1,167.2z"/>
	</g>
	<path class="st1" d="M33.9,57.5h-3.5c0-8.4-6.8-15.2-15.2-15.2S0,49.2,0,57.5h0v29.2h0c0,8.4,6.8,15.1,15.2,15.1
		s15.1-6.8,15.2-15.1h3.5V57.5z"/>
	<rect x="30.4" y="57.6" class="st2" width="94.1" height="29.2"/>
	<path class="st3" d="M845.1,69.5L845.1,69.5L845.1,69.5c-0.2-0.1-0.3-0.2-0.5-0.3L798,42v0H122.8v22.5H798V79H122.8v22.5H798v0
		l46.6-27.2c0.2-0.1,0.3-0.2,0.4-0.3l0,0v0c0.7-0.5,1.2-1.3,1.2-2.3S845.8,70,845.1,69.5z"/>
	<path class="st4" d="M805.2,64.6H97.7V79h707.5l0,0c0,0,0,0,0,0c4,0,7.2-3.2,7.2-7.2S809.2,64.6,805.2,64.6z"/>
	<g>
		<path class="st4" d="M100.1,1.7l2.1,17.6c-2.3,2.7-6.2,5.1-11.7,7.2v97.1c5.7,2.3,9.6,4.6,11.7,7l-2.1,17.6H50.3l-2.1-17.6
			c1.8-2.4,5.7-4.7,11.7-7V26.6c-5.8-2.1-9.7-4.5-11.7-7.2l2.1-17.6H100.1z M174.2,148.3h-35.3L91.8,71.8l35.5-47.2
			c-4-1.8-6.7-3.8-8.3-5.7l2.1-17.2h48.4l2.1,17.2c-2,2.3-5.7,4.5-11,6.8L123.8,71l33.6,50.6c9.2,2,15.5,5,18.9,9.1L174.2,148.3z"/>
		<path class="st0" d="M296.4,44.6c0,9.6-3,17.7-9,24.2c-6,6.5-13.6,11.5-22.6,14.9c7.1,3,11.8,6.6,14,10.8l15.5,29.5
			c6.7,2.3,11.2,4.9,13.6,7.9l-2.1,16.4h-35.9l-24.4-52.1c-2.3-5.2-4.9-7.9-7.9-7.9h-13.8v34c10.3,2.3,16.8,5,19.3,8.3l-2.1,17.6
			h-57.4l-2.1-17.6c1.8-2.4,5.7-4.7,11.7-7V26.6c-5.8-2.1-9.7-4.5-11.7-7.2l2.1-17.6h54.2c19.8,0.3,34.6,3.5,44.2,9.6
			C291.6,17.4,296.4,28.5,296.4,44.6z M236.2,24.9h-12.5v40.4h12.1c9.6,0,16.8-1.5,21.6-4.4c4.7-2.9,7.1-8.1,7.1-15.6
			c0-7.5-2.4-12.8-7.2-15.8C252.5,26.4,245.4,24.9,236.2,24.9z"/>
		<path class="st0" d="M390.9,0.6l42.3,122.6c5.9,2.1,10.1,4.6,12.5,7.4l-2.1,17.6h-49.7l-2.1-17.6c1.7-2.3,5.1-4.4,10.2-6.4
			l-5.7-17.8h-42.5l-5.3,17.2c5,2,8.6,4.3,11,7l-2.1,17.6h-48.4l-2.1-17.6c2.5-3.3,7.3-5.9,14.2-8.1l40.8-122H390.9z M373.3,30.4
			c0,8.6-1.8,18.7-5.3,30.2l-8.3,26.3h30.4L382,61c-3.3-9.9-5.1-18.9-5.5-27l-0.2-3.6H373.3z"/>
		<path class="st0" d="M551.5,1.9v30.4L538.2,34c-1.8-1.4-3.6-4.4-5.3-8.9h-25.5v98.6c5.7,2.3,9.6,4.6,11.7,7l-2.1,17.6h-49.7
			l-2.1-17.6c1.8-2.4,5.7-4.7,11.7-7V25.1h-25.5c-1.7,4.5-3.5,7.5-5.3,8.9l-13.4-1.7V1.9H551.5z"/>
		<path class="st0" d="M660.7,148.3h-98.6l-2.1-17.6c1.8-2.4,5.7-4.7,11.7-7V26.6c-5.8-2.1-9.7-4.5-11.7-7.2l2.1-17.6H659v37
			l-15.7,1.9c-3.3-2.8-5.9-8.1-7.9-15.7h-33.1v36.5h29.5c1.7-4.2,3.5-7.2,5.3-8.9l13.4,1.5v37.8l-13.4,1.7c-1.8-1.4-3.6-4.4-5.3-8.9
			h-29.5v40.6h34.8c1.8-7.4,4.5-12.6,7.9-15.7l15.7,1.9V148.3z"/>
		<path class="st0" d="M734.3,150c-20.1,0-35.2-5.8-45.1-17.4c-10-11.6-15-30.4-15-56.4c0-26,5.5-45.2,16.5-57.6
			c11-12.4,26.6-18.6,47-18.6C757.9,0,773,5.5,783,16.6c10,11,15,29.5,15,55.5c0,25.9-5.6,45.4-16.8,58.4
			C770,143.5,754.4,150,734.3,150z M713.6,35.1c-5.1,7.4-7.6,20.2-7.6,38.5c0,18.3,2.7,31.6,8.1,39.9c5.4,8.4,12.8,12.5,22.2,12.5
			c9.4,0,16.7-3.9,22-11.8c5.2-7.9,7.9-20.9,7.9-39.2c0-34-10.2-51-30.6-51C726,24,718.7,27.7,713.6,35.1z"/>
	</g>
</g>
</svg>
