<?xml version="1.0" encoding="utf-8"?>
<!-- Generator: Adobe Illustrator 25.4.0, SVG Export Plug-In . SVG Version: 6.00 Build 0)  -->
<svg version="1.1" id="Layer_1" xmlns="http://www.w3.org/2000/svg" xmlns:xlink="http://www.w3.org/1999/xlink" x="0px" y="0px"
	 viewBox="0 0 122 174.4" style="enable-background:new 0 0 122 174.4;" xml:space="preserve">
<style type="text/css">
	.st0{fill:#231F20;}
</style>
<g>
	<path class="st0" d="M0,154.7v-25.9h3.6v10.9l9-10.9h4.6L7.1,141.1l10.2,13.6h-4.5l-8-10.7l-1.1,1.4v9.3H0z"/>
	<path class="st0" d="M34.3,154.7l-5-11.2h-4.8v11.2H21v-25.9l13.2,0.1c2.4,0.5,3.7,1.9,4,4l0.1,0.9h-0.1v4.7h0.1l-0.1,0.9
		c-0.3,2.2-1.6,3.5-4,4l-0.9,0.1l5,11.2L34.3,154.7z M33.1,139.9l0.5-0.1c0.4-0.1,0.7-0.4,0.8-0.8l0.1-0.5v-4.7l-0.1-0.5
		c-0.1-0.4-0.4-0.7-0.8-0.8l-0.5-0.1v-0.1h-8.6v7.6L33.1,139.9z"/>
	<path class="st0" d="M59.1,154.7h-3.6v-6.4H45.5v6.4h-3.6V147l6.9-18.3h3.5l6.8,18.3V154.7z M54.5,144.7l-4-10.6l-3.8,10.6H54.5z"
		/>
	<path class="st0" d="M69.7,154.7v-22.3h-6.8v-3.6h17.2v3.6h-6.8v22.3H69.7z"/>
	<path class="st0" d="M83.8,154.7v-25.9h17.2v3.6H87.4v7.6h10.1v3.6H87.4v7.6H101v3.6L83.8,154.7z"/>
	<path class="st0" d="M109.8,154.7l-1-0.1c-1-0.1-1.9-0.6-2.6-1.4c-0.7-0.7-1.2-1.6-1.4-2.6l-0.1-1l0.1-16.8c0.2-1,0.7-1.9,1.4-2.6
		c0.7-0.7,1.6-1.2,2.6-1.3l1-0.1v0.1h7.1v-0.1l1,0.1c1,0.1,1.9,0.6,2.6,1.3c0.7,0.7,1.2,1.6,1.4,2.6v1v16.8c-0.2,1-0.7,1.9-1.4,2.6
		c-0.7,0.7-1.6,1.2-2.6,1.4l-1,0.1v-0.1L109.8,154.7L109.8,154.7z M116.9,151l0.6-0.1c0.4-0.1,0.7-0.4,0.8-0.8l0.1-0.6h0.1v-15.8
		h-0.1l-0.1-0.5c-0.1-0.4-0.4-0.7-0.8-0.8l-0.6-0.1h-7.1l-0.6,0.1c-0.4,0.2-0.6,0.5-0.8,0.8l-0.1,0.5h-0.1v15.8h0.1l0.1,0.6
		c0.2,0.4,0.5,0.6,0.8,0.8l0.6,0.1H116.9z"/>
	<polygon class="st0" points="87.8,90.9 98.8,90.9 111.9,80.4 76.7,53.1 76.7,25.1 65.7,35.9 65.7,53.1 100.9,80.4 	"/>
	<polygon class="st0" points="43.6,99.8 44.9,101.2 49.1,97.4 47.8,96 16,60.9 14.5,59.3 10.3,63.1 11.8,64.7 	"/>
	<path class="st0" d="M0,0v122h122V0L0,0z M117,117.8H59.6l3.2-26.9h14.3l13.1-10.5L55.1,53.1v-28L19.9,59.7l28.3,31.2h3.7
		l-3.2,26.9H37.9l2-16.6L10.6,68.9L5,74.4V4.1h112L117,117.8z"/>
	<path class="st0" d="M0,174.3v-13.9h7.1c0.5,0.1,1,0.4,1.4,0.8c0.4,0.4,0.7,0.9,0.7,1.4l0.1,0.5l0,0v2.5l0,0l-0.1,0.5
		c-0.1,0.5-0.3,1-0.7,1.4c-0.4,0.4-0.9,0.7-1.4,0.8H6.6l0,0H1.9v6L0,174.3z M6.5,166.4l0.3-0.1c0.2-0.1,0.4-0.2,0.4-0.4l0.1-0.3
		v-2.5l-0.1-0.3c-0.1-0.2-0.2-0.4-0.4-0.4H6.5l0,0H1.9v4.1L6.5,166.4z"/>
	<path class="st0" d="M11,174.3v-13.9h1.9v12h7.3v1.9L11,174.3z"/>
	<path class="st0" d="M31.1,174.3h-1.9v-3.5h-5.4v3.4h-1.9v-4.1l3.7-9.8h1.9l3.7,9.8L31.1,174.3z M28.6,169l-2.1-5.7l-2.1,5.7H28.6z
		"/>
	<path class="st0" d="M37,174.3v-12h-3.7v-1.9h9.2v1.9H39v12H37z"/>
	<path class="st0" d="M44.5,174.3v-13.9h9.2v1.9h-7.3v4.1h5.4v1.9h-5.4v6L44.5,174.3z"/>
	<path class="st0" d="M58,174.3l-0.5-0.1c-0.5-0.1-1-0.3-1.4-0.7c-0.4-0.4-0.6-0.9-0.8-1.4v-0.5v-9c0.1-0.5,0.4-1,0.8-1.4
		c0.4-0.4,0.9-0.7,1.4-0.7l0.5-0.1l0,0h3.8l0,0l0.5,0.1c0.5,0.1,1,0.3,1.4,0.7c0.4,0.4,0.7,0.9,0.8,1.4v0.5v9
		c-0.1,0.5-0.4,1-0.8,1.4c-0.4,0.4-0.9,0.7-1.4,0.7l-0.5,0.1l0,0H58z M61.8,172.4l0.3-0.1c0.2-0.1,0.4-0.2,0.4-0.4v-0.3l0,0v-8.5
		l0,0v-0.3c-0.1-0.2-0.2-0.4-0.4-0.4l-0.3-0.1H58l-0.3,0.1c-0.2,0.1-0.4,0.2-0.4,0.4v0.3l0,0v8.5l0,0v0.3c0.1,0.2,0.2,0.3,0.4,0.4
		l0.3,0.1H61.8z"/>
	<path class="st0" d="M74,174.3l-2.7-6h-2.6v6h-1.9v-13.9h7c1.1,0.1,2,1,2.1,2.2l0.1,0.5l0,0v2.5l0,0l-0.1,0.5c-0.1,1.1-1,2-2.1,2.2
		h-0.5l2.7,6L74,174.3z M73.4,166.4l0.3-0.1c0.2-0.1,0.4-0.2,0.4-0.4l0.1-0.3v-2.5l-0.1-0.3c-0.1-0.2-0.2-0.4-0.4-0.4h-0.3l0,0h-4.6
		v4.1L73.4,166.4z"/>
	<path class="st0" d="M85.8,174.3v-8l-2.7,7.9l-2.7-7.9v8h-1.9v-13.9h1.9l2.7,7.8l2.7-7.8h1.9v13.9H85.8z"/>
	<path class="st0" d="M92.9,174.3l-0.5-0.1c-0.5-0.1-1-0.3-1.4-0.7c-0.4-0.4-0.7-0.9-0.8-1.4v-0.5v-9c0.1-0.5,0.4-1,0.8-1.4
		c0.4-0.4,0.9-0.7,1.4-0.7l0.5-0.1l0,0h3.8l0,0l0.5,0.1c0.5,0.1,1,0.3,1.4,0.7c0.4,0.4,0.7,0.9,0.8,1.4v0.5v9
		c-0.1,0.5-0.4,1-0.8,1.4c-0.4,0.4-0.9,0.7-1.4,0.7l-0.5,0.1l0,0H92.9z M96.7,172.4l0.3-0.1c0.2-0.1,0.4-0.2,0.4-0.4v-0.3l0,0v-8.5
		l0,0v-0.3c-0.1-0.2-0.2-0.4-0.4-0.4l-0.3-0.1h-3.8l-0.3,0.1c-0.2,0.1-0.4,0.2-0.4,0.4v0.3l0,0v8.5l0,0v0.3c0.1,0.2,0.2,0.3,0.4,0.4
		l0.3,0.1H96.7z"/>
	<path class="st0" d="M101.8,174.3v-13.9h7.1c0.5,0.1,1,0.4,1.4,0.8c0.4,0.4,0.7,0.9,0.7,1.4l0.1,0.5l0,0v2.5l0,0l-0.1,0.5
		c-0.1,0.5-0.3,1-0.7,1.4c-0.4,0.4-0.9,0.7-1.4,0.8h-0.5l0,0h-4.7v6L101.8,174.3z M108.3,166.4l0.3-0.1c0.2-0.1,0.4-0.2,0.4-0.4
		l0.1-0.3v-2.5l-0.1-0.3c-0.1-0.2-0.2-0.4-0.4-0.4h-0.3l0,0h-4.6v4.1L108.3,166.4z"/>
	<path class="st0" d="M115.5,174.3l-0.5-0.1c-1.1-0.1-2-1-2.2-2.1v-0.5V171h1.8v0.6l0,0v0.3c0.1,0.2,0.2,0.3,0.4,0.4l0.3,0.1h3.8
		l0.3-0.1c0.2-0.1,0.4-0.2,0.4-0.4v-0.3l0,0v-2.5l0,0v-0.3c-0.1-0.2-0.3-0.3-0.4-0.4l-0.3-0.1l0,0h-4.3c-1.1-0.2-1.9-1.1-2.2-2.2
		v-0.5v-2.5v-0.5c0.1-0.5,0.4-1,0.8-1.4c0.4-0.4,0.9-0.7,1.4-0.7l0.5-0.1l0,0h3.8l0,0l0.5,0.1c0.5,0.1,1,0.3,1.4,0.7
		c0.4,0.4,0.7,0.9,0.8,1.4v0.5v0.5h-1.9v-0.5l0,0v-0.3c-0.1-0.2-0.2-0.4-0.4-0.4l-0.3-0.1h-3.8l-0.3,0.1c-0.2,0.1-0.4,0.2-0.4,0.4
		v0.3l0,0v2.5l0,0v0.3c0.1,0.2,0.2,0.4,0.4,0.4l0.3,0.1h3.9l0.5,0.1c0.5,0.1,1,0.3,1.4,0.7c0.4,0.4,0.7,0.9,0.8,1.4v0.5v2.5v0.5
		c-0.1,1.1-1,2-2.2,2.1l-0.5,0.1L115.5,174.3z"/>
</g>
</svg>
