<?xml version="1.0" encoding="utf-8"?>
<!-- Generator: Adobe Illustrator 25.4.0, SVG Export Plug-In . SVG Version: 6.00 Build 0)  -->
<svg version="1.1" id="Layer_1" xmlns="http://www.w3.org/2000/svg" xmlns:xlink="http://www.w3.org/1999/xlink" x="0px" y="0px"
	 viewBox="0 0 122 121.9" style="enable-background:new 0 0 122 121.9;" xml:space="preserve">
<style type="text/css">
	.st0{fill:#FFFFFF;}
</style>
<g>
	<polygon class="st0" points="87.8,90.9 98.8,90.9 111.9,80.4 76.7,53.1 76.7,25.1 65.7,35.9 65.7,53.1 100.9,80.4 	"/>
	<polygon class="st0" points="43.6,99.8 44.9,101.2 49.1,97.4 47.8,96 16,60.9 14.5,59.3 10.3,63.1 11.8,64.7 	"/>
	<path class="st0" d="M0,0v121.9h122V0H0z M117,117.8H59.6L62.8,91h14.4l13.1-10.6L55.1,53.1v-28L19.9,59.7l28.3,31.2h3.7l-3.2,26.9
		H37.9l2-16.6L10.6,68.8L5,74.3V4.1h112V117.8z"/>
</g>
</svg>
