<?xml version="1.0" standalone="no"?>
<!DOCTYPE svg PUBLIC "-//W3C//DTD SVG 20010904//EN"
 "http://www.w3.org/TR/2001/REC-SVG-20010904/DTD/svg10.dtd">
<svg version="1.0" xmlns="http://www.w3.org/2000/svg"
 width="2000.000000pt" height="2000.000000pt" viewBox="0 0 2000.000000 2000.000000"
 preserveAspectRatio="xMidYMid meet">
<metadata>
Created by potrace 1.14, written by Peter Selinger 2001-2017
</metadata>
<g transform="translate(0.000000,2000.000000) scale(0.100000,-0.100000)"
fill="#000000" stroke="none">
<path d="M0 9995 l0 -9995 10000 0 10000 0 0 9995 0 9995 -10000 0 -10000 0 0
-9995z m19180 5 l0 -9320 -4706 0 -4706 0 5 33 c4 17 27 205 52 417 25 212 94
797 154 1300 60 503 156 1308 213 1787 l103 873 1172 0 1172 0 78 63 c257 208
1120 907 1293 1046 113 91 255 206 316 256 61 49 188 152 283 229 94 76 171
142 171 146 0 4 -98 83 -217 176 -273 210 -462 356 -723 559 -113 87 -272 211
-355 275 -82 64 -643 498 -1245 965 -602 467 -1214 941 -1360 1054 -146 112
-344 266 -440 341 -96 75 -274 213 -395 306 -121 94 -312 242 -425 329 -113
87 -286 222 -385 298 -99 77 -184 144 -190 149 -7 6 -12 792 -15 2301 l-5
2291 -1225 -1204 c-674 -662 -1378 -1355 -1565 -1539 -187 -185 -933 -918
-1658 -1630 l-1318 -1295 34 -35 c25 -26 2298 -2532 2817 -3105 30 -34 446
-492 923 -1018 l868 -958 304 0 305 0 -5 -27 c-3 -16 -26 -201 -51 -413 -24
-212 -80 -684 -124 -1050 -44 -366 -138 -1162 -210 -1770 -72 -608 -133 -1115
-136 -1127 l-4 -23 -880 0 -880 0 0 26 c0 24 82 717 245 2064 36 294 67 558
70 585 5 46 3 53 -26 85 -80 90 -383 425 -559 620 -108 118 -452 499 -765 845
-313 347 -637 704 -720 795 -82 91 -184 204 -226 250 -42 47 -206 229 -365
405 -160 176 -631 698 -1049 1160 -418 462 -776 858 -796 880 -20 22 -91 101
-158 175 -68 74 -127 137 -132 138 -6 2 -135 -119 -287 -270 -152 -150 -357
-352 -454 -448 l-178 -174 0 5752 0 5752 9180 0 9180 0 0 -9320z"/>
<path d="M11668 14994 l-896 -879 -1 -1415 0 -1415 332 -257 c303 -234 850
-658 1612 -1249 160 -124 493 -382 740 -574 248 -191 578 -448 735 -570 157
-122 728 -565 1270 -985 1130 -875 1072 -830 1068 -840 -3 -7 -165 -138 -1555
-1252 -315 -252 -573 -461 -573 -463 0 -3 404 -5 898 -5 l898 0 625 500 c343
276 825 662 1071 858 246 196 447 360 447 364 1 3 -169 138 -376 299 -584 453
-1305 1012 -1893 1467 -294 229 -623 483 -730 567 -107 83 -395 307 -640 496
-245 190 -728 565 -1075 834 -346 269 -720 558 -830 643 -110 86 -204 159
-210 164 -7 6 -12 792 -15 2300 l-5 2291 -897 -879z"/>
<path d="M2042 9963 c-183 -168 -332 -310 -332 -315 0 -14 290 -336 1565
-1743 105 -115 665 -734 1246 -1375 581 -641 1078 -1190 1106 -1220 75 -83
1108 -1224 1262 -1395 292 -322 463 -505 472 -505 8 0 546 480 667 595 l23 21
-175 190 c-96 104 -549 603 -1007 1109 -458 506 -869 961 -915 1010 -45 50
-259 286 -475 525 -3013 3327 -3077 3397 -3100 3408 -3 1 -155 -136 -337 -305z"/>
</g>
</svg>
