<?xml version="1.0" standalone="no"?>
<!DOCTYPE svg PUBLIC "-//W3C//DTD SVG 20010904//EN"
 "http://www.w3.org/TR/2001/REC-SVG-20010904/DTD/svg10.dtd">
<svg version="1.0" xmlns="http://www.w3.org/2000/svg"
 width="2000.000000pt" height="2000.000000pt" viewBox="0 0 2000.000000 2000.000000"
 preserveAspectRatio="xMidYMid meet">
<metadata>
Created by potrace 1.14, written by Peter Selinger 2001-2017
</metadata>
<g transform="translate(0.000000,2000.000000) scale(0.100000,-0.100000)"
fill="#000000" stroke="none">
<path d="M220 10020 l0 -9750 9760 0 9760 0 0 9750 0 9750 -9760 0 -9760 0 0
-9750z m18720 5 l0 -9095 -4590 0 c-3696 0 -4590 2 -4590 13 0 11 188 1598
340 2867 27 228 74 627 105 885 30 259 57 485 60 503 l6 32 1144 0 1143 0 134
108 c73 60 536 434 1028 831 492 398 903 732 913 741 21 19 57 -11 -868 705
-148 115 -349 270 -445 345 -96 75 -276 214 -400 310 -124 95 -263 204 -310
240 -47 37 -317 246 -600 465 -283 220 -634 492 -780 605 -233 181 -1071 830
-1324 1026 -50 38 -194 150 -321 248 -126 98 -301 233 -387 300 l-158 121 0
2245 0 2244 -167 -165 c-391 -384 -1439 -1415 -3103 -3049 -2116 -2078 -2362
-2321 -2356 -2335 2 -6 118 -137 258 -290 139 -154 607 -669 1038 -1145 431
-476 803 -885 826 -910 22 -25 157 -173 299 -330 142 -157 295 -325 340 -375
45 -49 264 -290 485 -535 222 -245 599 -660 837 -922 l433 -478 295 0 c250 0
295 -2 295 -14 0 -8 -63 -543 -140 -1188 -200 -1685 -295 -2487 -330 -2778
-16 -140 -32 -270 -35 -287 l-6 -33 -859 0 c-847 0 -860 0 -860 20 0 10 34
299 75 642 158 1313 196 1628 215 1783 11 88 20 172 20 187 0 22 -74 110 -383
450 -210 233 -700 774 -1088 1203 -388 429 -728 805 -756 835 -27 30 -539 597
-1138 1260 -599 663 -1098 1214 -1108 1225 -10 11 -62 68 -115 128 l-96 108
-221 -218 c-121 -120 -322 -319 -448 -443 l-227 -225 0 5618 0 5617 8960 0
8960 0 0 -9095z"/>
<path d="M11608 14895 l-876 -860 -1 -1380 0 -1380 47 -36 c26 -19 157 -121
292 -225 135 -105 407 -316 605 -469 198 -153 419 -324 490 -380 72 -56 330
-257 575 -446 245 -190 686 -532 980 -760 695 -539 1545 -1199 1880 -1458 146
-113 355 -275 465 -361 110 -85 222 -171 247 -190 26 -19 47 -37 47 -40 0 -3
-470 -381 -1044 -840 l-1043 -835 879 -3 879 -2 1008 807 c1064 852 1077 863
1077 874 0 7 -85 74 -995 779 -272 211 -794 616 -1160 900 -366 284 -827 642
-1025 795 -198 154 -459 356 -580 450 -121 94 -249 194 -285 221 -142 110
-669 519 -1112 863 l-468 362 -2 2237 -3 2236 -877 -859z"/>
<path d="M2210 9983 c-176 -164 -320 -301 -320 -306 0 -17 -22 7 2166 -2407
291 -322 835 -922 1209 -1335 373 -412 765 -844 870 -960 105 -115 405 -446
667 -735 262 -289 504 -555 539 -593 l64 -67 329 298 c182 164 331 303 334
310 2 6 -53 71 -121 144 -68 73 -474 520 -903 993 -1018 1125 -1729 1909
-2314 2555 -261 288 -610 673 -774 855 -165 181 -379 418 -476 525 -97 107
-293 323 -435 480 -312 344 -496 540 -506 540 -5 0 -152 -134 -329 -297z"/>
</g>
</svg>
