<?xml version="1.0" encoding="utf-8"?>
<!-- Generator: Adobe Illustrator 25.4.0, SVG Export Plug-In . SVG Version: 6.00 Build 0)  -->
<svg version="1.1" id="Layer_1" xmlns="http://www.w3.org/2000/svg" xmlns:xlink="http://www.w3.org/1999/xlink" x="0px" y="0px"
	 viewBox="0 0 730.1 492.4" style="enable-background:new 0 0 730.1 492.4;" xml:space="preserve">
<style type="text/css">
	.st0{fill:#E3ECF6;}
	.st1{fill:#192039;}
	.st2{fill:#121F28;}
	.st3{fill:#E4EDF6;}
	.st4{fill:#132124;}
	.st5{fill:#161E34;}
	.st6{fill:#172427;}
	.st7{fill:#9EBCD9;}
	.st8{fill:#32383E;}
	.st9{fill:#C3D1DB;}
	.st10{fill:#5C94BD;}
	.st11{fill:#5D94BD;}
	.st12{fill:#4781AE;}
	.st13{fill:#CCE7F6;}
	.st14{fill:#1C2741;}
	.st15{fill:#182035;}
	.st16{fill:#192030;}
	.st17{fill:#6C778C;}
	.st18{fill:#384552;}
	.st19{fill:#1D3454;}
	.st20{fill:#5F6F51;}
	.st21{fill:#748465;}
	.st22{fill:#A7B4C5;}
	.st23{fill:#7B8592;}
	.st24{fill:#3E4245;}
	.st25{fill:#A6B1BC;}
	.st26{fill:#F3F7F9;}
	.st27{fill:#F1F5F9;}
	.st28{fill:#162625;}
	.st29{fill:#2A3A2D;}
	.st30{fill:#324A62;}
	.st31{fill:#7D8B6D;}
	.st32{fill:#425B70;}
	.st33{fill:#9CABB9;}
	.st34{fill:#92A6BB;}
	.st35{fill:#BEE2F8;}
	.st36{fill:#EDF1F4;}
	.st37{fill:#B3DEF5;}
	.st38{fill:#3C5F9E;}
	.st39{fill:#A8D9F5;}
	.st40{fill:#162828;}
	.st41{fill:#5D93BC;}
	.st42{fill:#D5E9F6;}
	.st43{fill:#7EA8CD;}
	.st44{fill:#C0DEF3;}
	.st45{fill:#588DC8;}
	.st46{fill:#496EAB;}
	.st47{fill:#395A99;}
	.st48{fill:#5279B7;}
	.st49{fill:#90BFE6;}
	.st50{fill:#3C5E9E;}
	.st51{fill:#395B97;}
	.st52{fill:#6D9FD2;}
	.st53{fill:#7BA9D9;}
	.st54{fill:#ADD5F0;}
	.st55{fill:#4D74B1;}
	.st56{fill:#7CABDB;}
	.st57{fill:#5077B3;}
	.st58{fill:#5B7688;}
	.st59{fill:#334E80;}
	.st60{fill:#3B4B6A;}
	.st61{fill:#73A3C9;}
	.st62{fill:#9EC53C;}
	.st63{fill:#7FA9CC;}
	.st64{fill:#A8C945;}
	.st65{fill:#A9C944;}
	.st66{fill:#8CB2D5;}
	.st67{fill:#6194BC;}
	.st68{fill:#13261C;}
	.st69{fill:#A5C2E0;}
	.st70{fill:#92C030;}
	.st71{fill:#1B2541;}
	.st72{fill:#B8D060;}
	.st73{fill:#CDDB78;}
	.st74{fill:#A9C967;}
	.st75{fill:#678A75;}
	.st76{fill:#8FB5D8;}
	.st77{fill:#AACA46;}
	.st78{fill:#AFC8E3;}
	.st79{fill:#4882AF;}
	.st80{fill:#97C235;}
	.st81{fill:#1B2844;}
	.st82{fill:#ABC5E0;}
	.st83{fill:#90B4D6;}
	.st84{fill:#79A6CB;}
	.st85{fill:#132526;}
	.st86{fill:#1D302C;}
	.st87{fill:#B9DBF2;}
	.st88{fill:#C4D66A;}
	.st89{fill:#E7ECD4;}
	.st90{fill:#7EB439;}
	.st91{fill:#DCE5A6;}
	.st92{fill:#324F2B;}
	.st93{fill:#475641;}
	.st94{fill:#71A2C8;}
	.st95{fill:#81A9CD;}
	.st96{fill:#1B3832;}
	.st97{fill:#51775E;}
	.st98{fill:#162C2F;}
	.st99{fill:#132C2B;}
	.st100{fill:#588186;}
	.st101{fill:#ABCA48;}
	.st102{fill:#A4D7F4;}
	.st103{fill:#D3E8F6;}
	.st104{fill:#5E90CA;}
	.st105{fill:#375894;}
	.st106{fill:#5C93BD;}
	.st107{fill:#192338;}
	.st108{fill:#253326;}
	.st109{fill:#7E8593;}
	.st110{fill:#687853;}
	.st111{fill:#778596;}
	.st112{fill:#243323;}
	.st113{fill:#A3ACB4;}
	.st114{fill:#1C2639;}
	.st115{fill:#ABCA47;}
	.st116{fill:#D1DC76;}
	.st117{fill:#BED36C;}
	.st118{fill:#C5D770;}
	.st119{fill:#39614E;}
	.st120{fill:#3D664C;}
	.st121{fill:#D8E078;}
	.st122{fill:#C2D561;}
	.st123{fill:#212E58;}
	.st124{fill:#20325F;}
	.st125{fill:#8EB4D6;}
	.st126{fill:#A5C1DF;}
	.st127{fill:#A5C842;}
	.st128{fill:#A4C741;}
	.st129{fill:#C0D364;}
	.st130{fill:#9DC054;}
	.st131{fill:#B6D49E;}
	.st132{fill:#16272F;}
	.st133{fill:#6597BF;}
	.st134{fill:#172D2D;}
	.st135{fill:#26443F;}
	.st136{fill:#AACA45;}
	.st137{fill:#1A3331;}
	.st138{fill:#A8C3E0;}
	.st139{fill:#C1D268;}
	.st140{fill:#BBD269;}
	.st141{fill:#74A5CB;}
	.st142{fill:#45665D;}
	.st143{fill:#97C236;}
	.st144{fill:#1B2740;}
	.st145{fill:#6397BF;}
	.st146{fill:#7BA6CC;}
	.st147{fill:#192C2F;}
	.st148{fill:#273F5F;}
	.st149{fill:#78A4C8;}
	.st150{fill:#CEDB7A;}
	.st151{fill:#253E37;}
	.st152{fill:#1F3239;}
	.st153{fill:#BBCB92;}
	.st154{fill:#77A4C9;}
	.st155{fill:#C6D6EC;}
	.st156{fill:#97B8D9;}
	.st157{fill:#BBD163;}
	.st158{fill:#1A243E;}
	.st159{fill:#315071;}
	.st160{fill:#274A3B;}
	.st161{fill:#244161;}
	.st162{fill:#355E81;}
	.st163{fill:#7FACCD;}
	.st164{fill:#C6D767;}
	.st165{fill:#C7D769;}
	.st166{fill:#658270;}
	.st167{fill:#94C132;}
	.st168{fill:#D4DF81;}
	.st169{fill:#92BF33;}
	.st170{fill:#1A2641;}
	.st171{fill:#71A3C8;}
	.st172{fill:#8DB3D7;}
	.st173{fill:#A4C1E0;}
	.st174{fill:#BDD25F;}
	.st175{fill:#C3D682;}
	.st176{fill:#EAEDDA;}
	.st177{fill:#C8D886;}
	.st178{fill:#80B537;}
	.st179{fill:#3D5530;}
	.st180{fill:#CBD970;}
	.st181{fill:#365856;}
	.st182{fill:#BCD596;}
	.st183{fill:#B6CF6F;}
	.st184{fill:#7FAACE;}
	.st185{fill:#557468;}
	.st186{fill:#243D35;}
	.st187{fill:#8BB3D6;}
	.st188{fill:#132B2B;}
	.st189{fill:#172A35;}
	.st190{fill:#4A765B;}
	.st191{fill:#3F5A7C;}
	.st192{fill:#D3DD79;}
	.st193{fill:#213858;}
	.st194{fill:#436A8E;}
	.st195{fill:#426381;}
	.st196{fill:#2E5273;}
	.st197{fill:#D6E2A6;}
	.st198{fill:#BBD17C;}
</style>
<g>
	<path class="st0" d="M65.9,492.1c-3.9-3.4-8.7-1.9-12.8-1.6c-16.1,1.3-32.2,0.1-48.3,0.6c-2.7,0.1-4.5-1.2-4.7-4
		c-1.2-12.4,6.8-24,17.7-27.3c3.1-0.9,6.3-0.7,9.4-0.5c13.6,0.9,27.3-6.6,33.4-22.3c9.5-24.2,19.2-48.3,29.7-72
		c4.3-9.8,13.5-15.3,24.3-15.4c17.9-0.2,28.3-11.9,31.2-28.6c1.8-10.1,4.5-20,6.8-29.9c3.6-15.9,7.1-31.9,10.7-47.8
		c3.8-16.7,15-24.5,31.5-24.4c14.2,0.1,24.1-7.3,28.1-18c3.6-9.8,6.2-19.9,9.7-29.7c2.9-8,4-16.6,8.7-24.1
		c6.3-10,15.6-15.9,25.7-21.1c14.1-7.3,27.8-15.4,41.9-22.7c5.9-3,11.8-6,17.5-9.2c2.6-1.5,5.2-1.5,6.1,2.2c0.9,3.5,4.7,4.9,5.1,9.3
		c0.6,5.9-4.2,9.1-5,14c-0.1,0.4-1,1-0.9,1.1c4,5.4-2.3,9-2.4,13.8c0,2.6,0.2,5,2.8,6.4c1.1,3.1-2,3.8-3.3,5.4
		c-3.1,3.9-6.5,7.5-11.6,8.9c-2.2,0.5-4.4,0.6-6.6,0.3c-0.7-0.6-1.4-0.6-2.1-0.1c-4.6,0.1-9.6-1.7-13.1,3.1
		c-5.9,6.2-12.5,11.7-18.3,18.1c-3.5,3.6-7.2,6.9-10.7,10.5c-2.4,2.4-2.9,4.7-0.3,7.3c3.8,3.8,7.5,7.6,11.3,11.3
		c0.7,0.7,1.4,1.6,2.5,1.3c1.5-0.5,1-1.9,1.2-3c0.1-0.3,0.1-0.7,0-1c-1.5-11.6,7.1-16.5,14.6-22.1c6.1-0.5,12.3-0.1,18.4-0.2
		c2.8,0,5.1,1,7.1,2.9c12.4,11.4,12.4,11.3,12.4,28.1c0,11.8,0,23.5,0,35.3c0,2.1,0.2,4.3-0.6,6.4c-0.3,0.5-0.7,1-1.2,1.3
		c-1.9,0.8-4,0.7-6,0.5c-6.7-1.7-13.6-0.9-20.4-0.8c-9.1,0.1-18.3-1.2-27.2,1.8c-5,1.7-9.6,4.1-13.3,7.7
		c-11.4,10.9-23,21.6-34.6,32.3c-15,13.9-29.9,27.8-45.1,41.5c-5.6,5.1-8.8,11.7-9.3,19.3c-0.4,6-0.7,12,0.7,17.9
		c0.1,1.8,0.2,3.6-0.1,5.4c-0.3,1.7-1.5,2.6-2.8,3.3c-1.3,0.8-2.4,1.8-3.6,2.6c-0.6,0.3,0.4,0.8-0.1,0.3c1.2-1.1,2.5-2.1,3.9-3
		c0.7-0.3,1.4-0.2,2,0.4c0.5,0.9,0.5,1.9,0.2,2.9c-6,6.7-13.9,11.2-20.8,16.8c-6.8,5.6-14.3,10.2-20.7,16.2
		c-3.9,3.7-6.1,8.1-7.4,13.2c-1.1,4.3-1.8,4.5-5.9,2.5c-0.9-0.4-1.7-1-2.7-1.3c-2-0.8-4.1-1.5-6.1,0.1c-2.1,1.6-1.7,3.8-1.4,5.9
		c0.1,1.3,0.7,2.5,1,3.8c1.4,5.7-1.5,8.6-7.4,7.3c-4.3-0.9-7.9-3.4-11.5-5.8c-4.4-2.5-8.1-6.9-14.1-5.1c-3.1,4.6,0.9,7.5,2.7,10.9
		c4.4,5.2,8.2,10.8,12.5,16.1c1.7,2,3.1,4.3,3.9,6.9c1.1,3.8-0.6,5.7-4.6,5.3c-0.8-0.1-1.6-0.3-2.4-0.5c-2.2-0.5-4.3-0.7-6,1.1
		c-1.9,2.1-0.6,4,0.3,5.9c2,4.5,1.7,4.9-3.2,5.2C77,491.5,71.4,489.9,65.9,492.1z"/>
	<path class="st0" d="M426.4,159.8c3.7-1.9,0.7-4.8,0.7-7.1c0-2.1-0.4-4.1-4.4-4.6c-3.4-0.4-6.8-2.1-10.7-1.5c-2.7,0.4-4-1.1-3-4.1
		c0.8-2.3,0.1-2.8-2.6-3.1c-6.6-0.7-13.1-2.4-15.8-9.7c-0.9-2.6-2.6-4.4-4.7-5.6c-6.3-3.7-7.6-9.6-7.5-16.2c0-1-0.2-2.3,0.8-2.7
		c4.5-1.8,3-5.1,2.3-8.4c-0.5-2.1-0.4-4,0.6-6.4c1.4-3.4,0.6-7.6,1-11.4c0.4-3.6-2.2-7.4-1.1-10.2c1.8-4.7,5.8-8.6,11.1-9.8
		c10.9-2.6,21.2-1,30.9,5c5.2,3.2,8.8,7.9,11.2,13c6.6,13.9,12.5,28.1,18.3,42.3c4.4,11,9.8,21.7,14.6,32.6
		c4.2,9.7,8.1,19.5,12.2,29.2c5.9,13.8,11.6,27.8,18.1,41.4c7,14.6,18.9,24.1,33.2,31.5c11.2,5.7,22.7,10.9,33.5,17.5
		c5,3.1,10.6,5.1,15.4,8.7c10.1,7.8,15.2,18.5,15.4,30.8c0.2,15.5,7.4,26.3,19.7,34.5c13.6,9.1,27,18.2,40.6,27.3
		c11.5,7.7,16,19.3,17.8,32.3c1.2,8.6,2.6,17.3,6,25.4c4.4,10.5,13.3,16.4,22.6,22c7.5,4.5,15.7,8,22.2,14c5.2,4.8,6.3,9.5,4,15.1
		c-2.5,5.9-7,9.2-13.4,9.3c-16.1,0.1-32.3,0.1-48.4-0.1c-1.5,0-2.9-0.2-3.9,1.1c-4.4-2.1-9.2-1.4-13.6-0.8
		c-6.8,0.9-11.9-2.6-17.5-4.8c-2.4-1-3.1-3.3-2.5-5.9c0.8-3.1,2.2-5.9,3.8-8.6c0.8-1.5,1.6-2.9,2-4.5c0.8-3.6-1.1-5.5-4.7-4.7
		c-2.7,0.6-4.6,2.5-6.9,4c-2.3,1.3-4.4,3-6.8,4.1c-2.2,1-4.5,1.8-6.5-0.1c-2-1.8-1.7-4.2-1-6.5c0.9-2.9,2.2-5.6,3.9-8
		c5.2-7.5,9.7-15.4,14.6-23.1c0.9-1.3,1.6-2.8,2.2-4.3c2.2-6.4,1.2-8.2-5.4-9c-1.7-0.7-3.5-1.7-4.1-3.5c-1-3.1-3.1-4.3-5.9-5.8
		c-2.8-1.5-2.3-6.8-6.1-8.5c0,0-0.1-0.3,0.1-0.5c6.4-8-5.3-12.7-3.7-19.9c0.1-0.4-0.4-1.1-0.9-1c-7.9,1.2-6.6-5.9-9-9.8
		c-0.7,2-0.5,3.9-0.1,5.9c0.2,0.9,0.6,2.1-0.4,2.7c-1.1,0.7-2.2,0.2-3.3-0.3c-0.9-0.5-1.8-1-2.3-1.8c-1.8-2.8-4.1-4.3-7.5-3.2
		c-0.3,0.1-0.8,0.1-1-0.1c-3.4-4.2-10-5-11.9-10.6c-1.2-3.7-3.5-5.3-6.8-6.5c-2.7-0.9-5.4-1.7-7.9-3c-2-1-4.3-2.5-4.2-4.6
		c0.1-4.3-3.1-7.1-3.9-10.9c-0.5-2.3-1.3-5.7-5.2-2.7c-1.4,1-3.1,0.1-3.7-1.5c-1.4-3.8-4.8-6.3-6.6-9.9c-1.6-3.2-5.4-4.2-7.7-6.8
		c-1.7-1.9-2.8-5.2-6.7-3.4c-1.4,0.6-2.7-1.1-2.5-2.9c0.3-3.3-1.7-3.5-4.1-3.1c-3.7,0.6-6.4,0.2-7.2-4.4c-0.6-3.2-4.5-3-6.7-4.7
		c-2.5-2-5-2.4-7.2,0.9c-0.8,1.2-2.6,1.9-3.5,0.9c-3.2-3.6-7.9-3.1-11.7-5c-2-1-3.2-2.3-3.5-4.4c-0.3-2.6,1.9-6-1.6-7.6
		c-3.5-1.6-5.9,1.1-8.1,3.3c-0.9,0.9-1.9,1.9-2.8,2.8c-1.1,1-2.1,2.4-3.8,1.3c-1.8-1.1-2.3-2.8-1.7-4.8c0.8-2.5,2.1-4.9,2.7-7.5
		c2-8.7-0.4-11.2-9-9.2c-0.7,0.2-1.3,0.2-2,0.1c-1.8-2.7-1.1-5.3,0.5-7.8c1.7-2.7,3.5-4.7,6.5-1.3c1,1.1,2.3,1,3.6,0.7
		c-2.3-0.1-3.5-1.7-4.1-3.5c-1.5-3.9-4.5-6.9-5.8-10.9c-0.7-2.3-3.2-3.2-5.1-3.5c-4.6-0.6-5.9-3.7-6.5-7.4c-0.4-2.4-0.6-4.6-4-4.3
		c-1.1,0.1-2.6-0.8-2.2-2.1c1.1-4-2.4-4.9-4.4-6.8c-4.5-4.4-8.9-8.9-10.5-15.1c-1-4,0.2-8.2-0.2-12.4c-0.3-3.1,2.8-6.6,3-10.6
		c0.1-2,2.1-3.5,4.9-1.5c3.2,2.3,7.7,2.6,9.8,6.5c0.6-0.3,0.8-1,1.3-1.3c0.5-0.2,0.9-0.2,1.4-0.1c7.1,4.1,5.9,11.4,6.2,18.5
		c3.9-2.1,6.1-4.9,8.1-7.9c9.4-5.9,9.5-7.4,1.7-15.8c-6-6.4-12.4-12.3-18.4-18.6C427.9,163.3,425.9,162.2,426.4,159.8z"/>
	<path class="st0" d="M579.2,222.9c0.6,9.7-3.5,16.6-11.2,20.6c-7.8,4.1-15.5,2.5-22.7-3c-6-4.6-13.1-7.6-19.1-12.4
		c-7.6-6.2-12.9-14-16.5-23.2c-5.4-13.9-12-27.5-16.8-41.7c-1.4-4,0.3-5.3,4.1-6.6c12.3-4.2,19.9,4.8,28.4,10.2
		c9.7,6.2,18.8,13.5,28.3,20.2c3.9,2.8,7.7,6.1,12.5,8.1c4.9,2,8,7.5,9.9,12.5C578,212.6,580.2,217.8,579.2,222.9z"/>
	<path class="st1" d="M431.2,188.8c-0.3,0-0.5,0-0.8,0.1c-1.7,0.2-2.8-0.8-3.8-1.9c-3.4-3.6-7.3-5.1-12.4-4.2
		c-4.7,0.9-9.6-0.1-14.3,0.8c-0.8,0-1.6-0.1-2.3-0.5c-1.6-6-6.5-9.4-10.6-13.4c-2.6-2.5-5.9-1.6-9.3-1.6c0.2,2.6,2,3.8,3.4,4.9
		c5.2,4.3,7.4,9.6,6.6,16.3c-0.3,2.3,0,4.6,0.2,7c0.1,12.1,0.2,24.1,0,36.2c0.3,4.7-0.2,9.5,0,14.2c-0.2,11.8,0.7,23.5-0.5,35.3
		c-0.7,1.4-1.1,3.2-3.3,2.5c-2.6-2.9-2.2-6.5-2.2-10c0-26.7,0-53.5,0-80.2c0-1.8,1.4-4.4-1.5-5.5c-6.5,5.2-11.9,11.5-17.8,17.3
		c-1.8,1.8-1.8,4.1-1.9,6.5c-0.3,5.8,0.7,11.6-0.6,17.3c-0.5,0.7-1,1.3-2,0.7c-2.1-4.2-1.3-8.8-1-13.1c0.5-6.8-1.2-12.3-6.7-16.4
		c-5.1-5.9-11.3-10.6-16-16.9c-0.5-1.4-1.3-2.8,0.6-3.7c4,1.6,6.2,5.3,9.3,8.1c3.7,3.3,7,7.1,10.7,10.4c3,2.8,5.4,3,8.3-0.3
		c4.2-4.7,8.9-9,13.3-13.4c5-5,5-5,0-10c-4.5-4.6-9.2-9.1-13.7-13.7c-1.9-2-4-3.4-6.7-4.1c-2.1-1.4-4.4-1.2-6.8-1.2
		c-9.3,0-18.6,0.1-27.9-0.1c-2,0-4.5,0.7-5.3-2.3c3.6-0.1,5.8-2.6,8-4.9c2.6-2.7,5.1-5.4,7.7-8.1c1.9-3.4,5.1-3.2,8.2-3
		c2.9,0.2,4-0.4,4-3.7c-0.1-26.9-0.1-53.8,0-80.7c0-2.2-1.1-3.7-2-5.4c0.4-0.9,0.9-1.4,1.9-1.4c6.2,1.6,12.5,0.7,18.7,1
		c5.1,0.1,10.5,0.8,13-6.1c-6-0.4-11.8-0.1-17.5-0.1c-6.5,0-13,0.6-19.4-0.3c-3.6-2.3-0.4-2.8,1-3.8c10.9-0.8,21.8-1.2,32.7-1.1
		c4.5,0,7.4-0.7,7.9-5.5c1-1.2,1.8-0.6,2.5,0.4c1.3,5.5-0.3,10.2-4.5,13.8c-3.9,3.5-4.9,7.7-4.9,12.8c0.2,25.2,0.2,50.5,0.1,75.7
		c0,3.3,0.5,5,4.2,4.4c3.2-0.5,5.6,1.1,7.9,3.3c4,4,8.1,7.8,12.2,11.7c5.2,1.1,10.4,0.2,15.7,0.5c1.8,0.1,3.6-0.4,5.4,0.4
		c2.3,2,4.6,4.1,6.9,6.1c7.4,7.6,14.8,15.2,22.1,22.8c0.4,0.8,0.5,1.6-0.1,2.3c-3,0.3-4.4-2.1-6.1-3.8c-6.7-6.9-13.8-13.5-20.5-20.4
		c-1.9-2-4-3.5-6.9-3.5c-16.3-0.1-32.5,0-49.2,0c3.1,4.8,7,6.5,12.3,6.4c9-0.3,17.9,0,26.9-0.1c3.5,0,6.5,0.9,9,3.5
		c5.7,5.8,11.5,11.5,17.2,17.3c1.2,1.3,2.8,2.5,2.3,4.7C432.7,189.3,432,189.2,431.2,188.8z"/>
	<path class="st2" d="M65.9,492.1c-0.2-3,2.1-1.9,3.5-1.9c5.5-0.1,10.9,0,17,0c-1-1.8-1.8-3.3-2.5-4.8c-2.1-4.9,0.7-8.7,6-8
		c0.3,0,0.7,0.1,1,0.2c2.3,0.2,5.1,2.7,6.8,0.3c1.6-2.4-0.8-5-2.3-7.1c-4.8-6.6-9.7-13-14.6-19.4c-0.2-1.7,0.9-1.5,2-1.5
		c1.5,0.6,2.5,1.8,3.4,3.1c3.5,4.9,7.7,9.2,11,14.2c0.9,1.4,2,2.7,2.6,4.2c1.2,2.7,2.9,5.5,0.8,8.4c-2.1,3-5.1,2.3-8.2,1.9
		c-1.7-0.3-4-1.5-4.8,0.8c-0.9,2.6,1.1,4.3,3.1,5.6c1.5,0.9,3.2,0.9,4.8,0.9c4.8,0,9.6,0.1,14.5-0.1c2.5-0.1,5,0,7.5-0.1
		c6.5-0.1,6.8-0.3,6.9-6.6c0-8-0.1-15.9,0.1-23.9c0-4.5-0.1-8.9,0.1-13.4c0.2-4.6-2.5-7-6.1-8.7c-3.2-1.5-5.1,0.1-4.8,3.6
		c0.1,1.5,0.7,2.9,1,4.3c1.4,6.4-1.7,9.9-8.2,9.4c-2.5-0.2-4.8-1.3-7.1-2.2c-2.7-1.6-5.7-2.8-6.8-6.1c0.2-0.8,0.6-1.5,1.6-1
		c3.6,2.3,7.2,4.7,11.4,5.8c4.8,1.3,7.1-1,6-5.6c-0.9-3.8-4-7.8,0.4-11.3c4.7-3.7,8.3,0,12.1,2.1c0.4,0.2,0.8,0.5,1.8,1
		c0.7-11.3,7.6-18.1,16.1-24.2c11.6-8.3,22.7-17.2,34.1-25.9c0.6-0.8,1.2-1.6,2.3-0.6c0.4,0.7,0.4,1.4,0.3,2.1
		c-4.2,5.2-10.3,8.1-15.2,12.5c-7.5,6-15.4,11.5-23,17.4c-5.7,4.5-9.8,9.9-10.8,17.2c-0.2,16.3,0,32.5,0,48.8c0,1.6-0.1,3.4,1.2,4.6
		c2.7,0.9,5.5,0.2,8.2,0.5c3.3,0,6.6-0.2,9.9,0c3.9,0.2,7.4,0.1,8.8-4.8c0.7-2.5,3.4-3.5,6.2-2.1c0.6,0.7,0.7,1.5,0.3,2.4
		c-0.6,1.1-2.4,1.7-1.7,3.2c0.6,1.4,2.3,1.2,3.5,1.2c9.2,0.1,18.5,0,27.7,0c1.4,0.1,2.8,0,4.2,0c21.9-0.1,43.9,0,65.8,0
		c3.4,0,6.4,0.2,7.2-4.6c0.6-3.4,3.7-4.2,7.7-2.9c6.4,2.1,6.5,1.8,6.4-4.9c-0.1-3.9-1.7-7.9,0.1-11.8c0.9-0.9,1.6-0.3,2.2,0.4
		c2.3,5,2.6,10.3,2.6,15.7c-0.4,8-2.3,9-13.7,6.1c2.8,2.6,5.7,2.2,8.2,2.2c42.3-0.6,84.6-0.1,126.9-0.2c7,0.5,14.1-0.6,21.1,0.4
		c1.6,0.7,3.7,0.6,3.9,3.1c-12.5,0.1-24.9,0.3-37.4,0.3c-109.9,0-219.8-0.1-329.6-0.1C68.2,492.3,67.1,492.2,65.9,492.1z"/>
	<path class="st3" d="M106.4,337.4c-7.1,0-10.9-3-10.3-8.2c0.8-7.7,2.6-15.5,7.5-21.7c5.3-6.7,11.9-11.6,21.2-11
		c1.3,0.1,2.6-0.1,3.9-0.4c6.9-1.5,9.5,1.1,7.8,7.9c-1.6,6.7-3.6,13.4-5.4,20.1c-1.1,4.4-3.8,7.4-7.8,9.1
		C117.4,335.6,111.2,336.3,106.4,337.4z"/>
	<path class="st4" d="M622.7,466c2.1-1.9,4.4-3.5,7.1-4.4c2.2-0.8,4.2-0.8,6,1c1.6,1.6,1.7,3.6,0.8,5.5c-1.8,3.9-3.8,7.7-5.5,11.6
		c-1.9,4.3-1.1,5.7,3.5,6.1c1.3,0.1,3.2-0.1,3.6,1.2c1.4,4.2,4.7,3.2,7.7,3.2c4.8,0,9.6,0,14.5,0c1.3,0,3.3-0.7,2.8,2
		c-24.7,0-49.3,0-74,0c-1.1-2.2,2.8-0.9,2-2.9c-4.2-5-8.1-10.1-12.2-15.2c-5.8-7.2-8.1-15.5-8.2-24.6c-0.1-10.3-0.1-20.6,0-30.9
		c0-4.1,0-8.3,0-12.4c0-15.2-6.2-23.9-20.7-28.9c-0.9-0.3-1.9-0.6-2.8-0.9c-1.5-0.9-3.9-0.4-4.3-3c0.6-0.7,1.3-1,2.1-1.1
		c14.9-0.4,28.7,12.3,30.4,28.2c0.1,9.2,0,18.3,0,27.5c-0.4,9.4,1.3,18.8,1,28.2c0,1.5,0.2,3,0.7,4.4c1.8,7,6.8,12,11.1,17.4
		c10.4,13.2,5.9,10.7,22.9,10.9c7.1,0.2,14.2-0.3,21.2,0.3c-4.6-1.5-6.2-4.2-5.1-8.9c0.8-3.6,2.9-6.7,4.5-9.9
		c0.7-1.4,1.9-3.1,0.4-4.5c-1.3-1.3-2.8,0-4.1,0.6c-1.4,0.6-2.8,1.1-4.3,0.7C623.4,466.7,623,466.4,622.7,466z"/>
	<path class="st5" d="M593.1,490c-0.4,2.3-3.2,0.1-3.8,2.1c-23.1,0.1-46.1,0.2-69.2,0.2c-27.9,0-55.7-0.1-83.6-0.2
		c-1-0.6-2-1.2-3.1-1.8c0.4-0.5,0.8-0.9,1.4-1.1c0.9-0.3,1.8-0.4,2.8-0.5c17.9-0.2,35.7-0.1,53.6,0c18.8,0.1,37.7,0,57.5,0
		c-5.9-8-11.5-14.9-16.5-22.2c-6.2-9-13.5-16.3-24.9-18c-0.8-1-0.8-2-0.2-3c8.2-2,14.4,2,19.9,7.2c5.4,5.1,9.3,11.6,13.9,17.5
		c3.9,4.9,7.8,9.9,11.5,14.9c1.9,2.7,4.3,3.9,7.6,3.8c6.1-0.1,12.2,0.1,18.4-0.2C583.2,489,588.3,487.5,593.1,490z"/>
	<path class="st6" d="M383.5,31c-0.7-0.3-1.4-0.6-2.1-0.8c-0.3,0.1-0.6,0.1-0.9,0.2c-11.4,0.5-22.7-0.4-34.1,0.5
		c-1.6,0.4-3.3,0.5-4.9,0.5c-2.7,0.1-3.9,1.4-3.5,4.1c0.2,1.4,1.7,1.5,2.4,2.5c0,1.4-2.6,0.2-2,2.1c2.7,1.5,4.9,3.3,5.1,6.7
		c-0.4,0.4-0.8,0.8-1.2,1.2c-3.1-3.7-7.3-6.5-8-12.1c-0.9-7.2,2.9-11.8,7.8-16c0.4-0.3,0.9-0.3,1.3-0.1c1.6,2.7-1.4,3.9-2,6.4
		c3.3,1,6.6,0.3,9.9,0.4c4.9-0.1,9.7,0,14.6-0.1c1,0.1,2-0.2,3-0.1c2.4,0.2,4.9,0.8,7.8,0c-4.1-6.7-9.8-11.9-14-18.3
		c-0.3-1.6-1.1-2-2.3-0.8c-0.7-0.4-1.4-1-2.3-0.9c-0.6-0.1-1.1-0.4-1.7,0.1c-1.1,1.3-1.9,3-3.9,3.1c-0.7-0.2-1.2-0.5-1-1.4
		c8.8-12,7.6-9.5,15.2-0.5c4.9,5.8,9.7,11.7,14.5,17.6C382.6,26.9,384.2,28.5,383.5,31z"/>
	<path class="st7" d="M339.9,114.2c0-14.6,0-29.2,0-43.9c0.3,0,0.7,0,1,0c0,14.6,0,29.2,0,43.9C340.6,114.2,340.2,114.2,339.9,114.2
		z"/>
	<path class="st8" d="M351.6,8.2c0.4,0.3,0.8,0.7,1.3,1c-1.5,4.9-4,9-9.2,10.9c-0.5-0.1-0.9-0.1-1.4-0.2
		C345.2,15.8,347.9,11.6,351.6,8.2z"/>
	<path class="st9" d="M336.8,63.8c0,6,0,11.9,0,17.9c-0.3,0-0.7,0-1,0c0-6,0-11.9,0-17.9C336.2,63.8,336.5,63.8,336.8,63.8z"/>
	<path class="st0" d="M419.4,153.7c-7-0.9-14.1,0.7-21-0.9C405.4,153.1,412.5,151.5,419.4,153.7z"/>
	<path class="st7" d="M340.5,69.3c-1.4-2.4-0.7-3.9-0.7-6.1C342,65.2,341.7,66.8,340.5,69.3z"/>
	<path class="st10" d="M325.6,253.6c2,0.1,4,0.1,5.9,0.2c2.4,6.9,1,14,0.9,21.1c0,1-0.7,1.8-2,1.8c-0.9,0-2,0.1-2.1,1
		c-0.5,4.8-5.1,5.7-7.8,8.5c-1.5,1.6-3.3,3.2-5.6,2.6c-3.2-0.9-2.7,4.5-5.9,3.1c0.2,0.7,1,0.6,1.4,1.1c0.6,0.9,0.9,1.8,0.5,2.8
		c-0.6,1.2-1.6,0.7-2.6,0.4c-2.6-1-5.3-1.6-7.9-3.5c1.3,1.5,2.8,3.1,1.2,4.4c-2.2,1.8-2.7-1.7-4.2-1.8c-0.6-0.6-0.4,0.3-0.2,0.3
		c1.6,0.3,2.3,1.5,1.9,2.9c-0.8,2.4-2.7,2.6-4.8,1.6c-0.1,0-0.3,0.1-0.5,0.2c0.3,1.2,1.5,1.7,2.1,2.7c2.6,4.2,2.3,5.1-2.6,5.1
		c-3.4,0-1,4.2-3.8,4.2c-9.9-2.1-10.2-1.7-7.4,8.1c0.5,1.8,1,3.7-0.5,5.1c-1.8,1.6-3.9,0.5-5.5-0.5c-3.1-2.1-6.1-4.5-8.6-7.3
		c-2.2-2.1-4.3-4.2-6.5-6.4c-1.2-1.4-2.7-2.5-3-4.5c-2.5-3.7,0-5.8,2.9-5.9c5.1-0.2,8.7-5,14.2-3.9c1.9,0.4,3.6-2.1,5.6-3.1
		c2.1-1.1,4.2-1.8,5.5,1.1c1.6-1.7,1-3.9-0.3-4.4c-1.8-0.8-4.3-1.6-6.2-0.4c-3.1,1.9-6.6,2.2-9.8,3.4c-3.1,1.2-5.6,1.4-8.3-0.9
		c-2.1-1.8-4.2-0.7-4.5,1.6c-0.6,4.1-4,4.3-6.6,4.8c-3.3,0.6-6.7-0.7-10.2,1.3c-2.3,1.3-4.8-2.4-4.5-6.1c0.1-1.6,1.2-2.7,1.8-4.1
		c4.6-4.8,8.3-10.7,15-13.1c1.9,0.6,3.1,3.8,6.1,0.8c1.2-1.2,1.8,1.7,2,2.1c-0.8-3.3-0.8-3.3,4.1-3c1.7,0.1,3.3-0.1,4.8-1
		c1.1-0.7,2.2-2.5,3.7-0.4c1.2-0.9,3.3-0.8,3.3-3.3c0-3,1.6-5,5-4.5c1.4,0.2,1.9-0.5,2.7-1.5c2.9-3.7,6.8-5.5,11.4-5.5
		c0.4,0,1,0.6,1.3,0.2c2.5-3.1,5.3-5.2,9.5-2.3c-1.8-2.1-3.8-2.4-6.2-2.1c-4.3,0.5-8.6,0.3-12.9,0.1c-1.2-0.1-3.8,0.3-2.2-2.6
		C298.7,253,312.2,253.8,325.6,253.6z"/>
	<path class="st11" d="M176.1,380.4c-0.1-2-0.1-4.1-0.2-6.1c0.4-6.6-0.5-13.1,0.6-19.7c0.9-5.5,2.6-10.5,6.3-14.3
		c7.1-7.1,13.8-14.7,22.3-20.3c2.4,0.5,4.3,0.2,6.2-1.8c3.2-3.5,7.1-4.3,12-4.2c2.3,0.1,6.6,0.4,8.5-3.1c1.2-2.1,3.2-2.8,5.5-2.6
		c3.5,0.3,6.6,0,8.3-3.7c0.4-0.8,1.4-0.7,2.2-0.4c1,3.2,0,6.9,2.7,9.6c1.7,2.8,4.5,5,4.6,8.6c-2.3,3.3-6.3,4.5-8.8,7.7
		c0.5,0.5,1.4,0,2.3-0.1c1.5-0.2,3.3-0.5,3.4,1.6c0.1,2.1-1.7,4.3-3.2,3.4c-3.3-2.1-5.8,4-8.9,0.4c-0.3-0.3-0.4,1.9-1,2.9
		c-0.6,1.1-1.2,2-2.5,2.1c-1.1,0.1-1.2-0.9-1.4-1.7c-0.8-4.5-4.2-1.6-6.3-2.2c-2.9-0.9-2.1,1.8-2.4,3.1c-0.7,4.3-3.4,6.5-7.5,5.7
		c-1.3-0.2-1.4-1.6-2.4-3.9c-0.2,4.5-0.3,7.9-4,9.3c0.2,0.1-1,0.2,0,0.2c2.1,0.2,2.2,2.1,1.4,2.8c-1.9,1.7-3.1,5.3-5.8,4.9
		c-6.1-1-8.4,2.7-10.7,7c-0.2,0.4-0.6,0.8-0.9,1.2c-5.1,4.7-11,8.4-16.7,12.5C178.7,380.1,177.5,380.8,176.1,380.4z"/>
	<path class="st12" d="M289.6,311.5c2.3-1.5-0.2-3.2-0.2-4.7c2.6-0.8,4.8,0,8.2,1.2c-2.5-3-1.9-6.8-6.3-7c1.7-0.1,1-6.1,4.6-1.5
		c0.3,0.4,2.4-0.3,2.6-1.3c0.4-2.5-2.1-2.2-4.5-3c3.6-2,5.1,0.7,7,1.9c1.4-2.7-2.3-3.7-1.3-6.2c2.9,2.8,7.4,1.9,10.5,5.2
		c0.9-3.7-2.6-3.4-3.8-5c0.6-1,1.3-1.3,2.4-0.4c0.5,0.4,1.1,0.5,1.7,0.7c0.1-5.2,4.2-3,6.8-4c2.9-1.1,4.3-4.9,7.8-5.7
		c1.3-0.3,1.3-1.7,1.5-2.8c0.5-2,0-5.1,4-3.5c1.4,0.5,0.8-1.4,0.8-2.1c0.1-6.5,0.1-13,0.1-19.5c0.2-0.2,0.4-0.3,0.7-0.3
		c2.1,1.5,1.6,3.8,1.6,5.9c0.1,8.1,0,16.2,0,24.3c-0.3,8.9-0.3,17.8-0.3,26.7c0.2,7-0.3,7.7-7,7.4c-7.7-0.4-15.1,0.8-22.1,4.1
		c-4.3,0-6.9-2.8-9.7-5.4C293.6,314.4,290.1,314.5,289.6,311.5z"/>
	<path class="st12" d="M195.7,366.2c1-2.2,2.9-3.8,3.5-6.4c0.6-2.9,3.6-2.4,5.8-2.2c2.4,0.2,5,1.3,4.9-2.8c0-0.5,0.3-1,1-0.8
		c1.6,0.5,2.9,0.2,2.3-1.6c-0.7-2.3-2.2,1.2-3.3-0.8c2.3-2,6.9-3.2,4.7-8.2c-0.5-1.2,1.7-3.2,2.7-3.1c2.9,0.2,0.2,3.1,1.4,4.3
		c2.1,0.6,0.1-3.1,2-2c3.8,2.3,4.4,1.5,4.3-2.7c-0.1-5.4,1.7-6.2,7.3-4c2.9,1.2,4.2,2.3,4.2,3.9c2.3-0.6,1.8-2.5,1.8-4
		c0.1-1.4,0.2-2.9,1.8-3c2.5-0.1,1.1,2.2,1.6,3.9c1-4.2,3.3-3.9,6.1-2.6c1.2,0.6,2.3,0.5,3-0.8c0.4-0.7,1.1-1.5,0.3-2.2
		c-1-0.9-1.7,0.2-2.6,0.5c-1.9,0.6-3.5-0.4-5.9-1.7c5.6-0.7,7.2-6.4,12.2-7.3c6.5,4.2,10.2,10.5,12.5,17.7c0.9,2.7-1.4,4.2-4.2,4.2
		c-2.2,0-4.2-1-6.2-1.8c-1.7-0.6-3.8-1.4-5.1,0.2c-1.4,1.6-0.8,3.7,0.1,5.6c1,2,2.9,3.8,1.8,6.4c-2.1,1.4-4.5,0.9-6.8,1
		c-6.5,0.2-13-0.4-19.4,0.4c-10.9,1.3-19.5,7.1-27.8,13.7c-6.1,4.9-12.5,9.3-18.8,14c-0.9,0.7-1.9,1.4-3.2,1.2
		c-0.6,0.4-1.2,0.8-1.9,1.2c0-1,0-2.1,0-3.1c1.7-4.4,6.2-5.4,9.4-8.1C188.8,372,193.1,370.1,195.7,366.2z"/>
	<path class="st13" d="M309.7,154.2c0.3,0,0.6,0,0.9,0c0.9,1.9,2.6,0.9,3.9,1c7.2,0.2,14.4,0.1,21.6,0.1c2.4,0.2,2.2,1.6,0.5,2.1
		c-4.1,1.2-5.9,4.2-7.2,7.9c-3.5,1.6-7.2,1.1-10.7,0.7c-7.2-0.8-12.8,1.5-17.2,7.3c-1.1,1.4-2.5,2.6-3.8,3.9
		c-4.6,4.2-8.3,9.4-13.3,13.3c-2,1.6-3.1,3.8-2.8,6.5c0.1,1.6,0.1,3.3,0,5c0,1.5,0.3,3.2-1.4,4c-1.7,0.8-2.8-0.5-3.9-1.5
		c-3.3-3.2-6.6-6.5-9.8-9.8c-2.6-2.6-2.4-5.2,0.1-7.8c3.4-3.4,6.8-6.7,10.2-10.1c5.9-6.5,12.7-12.2,18.6-18.6c2-2.8,4.9-3.5,8.1-3.4
		C305.7,154.6,307.8,155.5,309.7,154.2z"/>
	<path class="st14" d="M337.5,155.8c-7.4-0.1-14.9,0-22.3-0.3c-1.5,0-3.7,1.2-4.7-1.3c2-0.1,4-0.3,6-0.4c1.5,1.6,3.4,0.9,5.2,0.9
		c9.6,0.1,19.2,0.1,28.7,0c2.8,0,5.5,0.2,7.8,2c1.2,2.1-0.7,3-1.7,3.9c-5.3,4.7-10.2,9.6-15.2,14.5c-2.1,1.7-3.6,4.1-5.9,5.6
		c-1.5,1-0.2,1.9,0.1,2.9c1.2,20.6,0.4,41.2,0.4,61.8c0.2,6.9,0.1,13.9,0.1,20.8c-0.5,3.9,0.3,7.9-0.4,11.8c-1.4,2,0.6,5.7-3.2,6.5
		c-0.1-10.3-0.1-20.7-0.2-31c0-18.2,0.1-36.5,0.1-54.7c0-1.1,0.3-2.3-0.7-3.2c-4.5-4.4-8.9-8.9-13.4-13.3c-0.9-0.9-2.1-0.9-3.3-0.9
		c-6.8,0.1-13.6,0.2-20.4,0.3c0.4-2.3,2-1.6,3.4-1.5c5.7,0.3,11.4-0.1,17.1,0.2c-5.8-0.3-11.6,0.3-17.4-0.4c0.2-3.1,2.9-2,4.4-2.2
		c2.9-0.5,6-0.4,8.9-0.2c6.6,0.5,10.3-3.3,13.9-8.9c-7.6-0.6-14.4-2-19.6,4.7c-1.8,2.3-3.7,4.8-7.1,4.9c-0.9-0.1-1.4-0.6-1.6-1.4
		c0.1-0.1,0.2-0.3,0.3-0.4c7.7-12.7,20.1-12.4,32.6-11.7c3.3-2.2,7.1-1.2,10.6-1.1c5.1,0.2,8.9-1.6,11.8-6
		C347.1,156.2,342,158.6,337.5,155.8z"/>
	<path class="st15" d="M205.7,320.3c-7,6.4-14.1,12.6-20.8,19.1c-5.5,5.3-7.4,12.3-7.8,19.8c-0.3,5,1.1,10.1-1.2,15
		c-2.4-15.4-1.3-29.2,11.7-40.8c25.8-23,50.8-46.9,76.1-70.4c7.4-6.9,16-10.5,26.1-10.5c9.8,0,19.6,0,29.4,0.1c2.2,0,4.3,0,6.4,0.9
		c-1.4,1.8-3.4,0.9-5.1,1c-10.3,0.1-20.6,0-30.9,0.1c-1.8,0-3.7-0.2-5.4,0.7c-3,2.8-7.4,2.4-10.8,4.6c-5.5,3.5-10.1,8-14.7,12.5
		c-2,1.9-3.7,4.3-6.7,4.9c-4.6,4.2-9.8,7.7-13.6,12.7c-9.1,10.7-20.1,19.4-30.3,28.9C207.6,319.7,206.8,320.3,205.7,320.3z"/>
	<path class="st16" d="M296.6,176.7c0.4,0.4,0.8,0.8,1.2,1.3l0,0.5c2.1,2.5,4.9,1.1,7.4,1.2c3.8,0.3,7.6,0.1,11.3,1
		c-5.6,0-11.2-0.1-16.7,0c-1.7,0-3.7-0.6-5.2,0.9c-1.2,1.3-2.3,2.9-3.7,4c-6.3,4.8-10.1,10.7-8.5,19c0.3,1.5,0.2,3.1-1.4,3.8
		c-1.5,0.6-2.4-0.7-3.3-1.6c-4.2-4.2-8.4-8.4-12.7-12.6c-2.5-2.4-2.6-4.8,0-7.2c3.9-3.7,7.8-7.6,11.7-11.3c1-0.1,1.7,0.2,1.2,1.4
		c-3.6,3.7-7.2,7.3-10.8,11c-1.4,1.4-2.5,2.7-0.6,4.6c4.3,4.3,8.6,8.6,13.6,12.9c-3-11.3,4.3-17.2,11-23.4
		C293,180.4,294.8,178.5,296.6,176.7z"/>
	<path class="st17" d="M216.8,299.7c9.3-8.8,18.7-17.6,28-26.4c0.3,0.3,0.7,0.7,1,1c-9.3,8.8-18.7,17.6-28,26.4
		C217.4,300.3,217.1,300,216.8,299.7z"/>
	<path class="st18" d="M277.9,177.1c-0.4-0.5-0.8-0.9-1.2-1.4c5.9-6.3,11.9-12.4,18.4-18c0.4,0.1,0.6,0.3,0.5,0.7
		C290.6,165.6,283.9,171,277.9,177.1z"/>
	<path class="st19" d="M195.7,366.2c-0.4,2.3-0.4,2.3-2.4,3.7c-5.8,4.4-11.7,8.7-17.5,13.1c-0.5,0.2-1.1,0.3-1.6,0.5
		c-0.7,0.2-0.9,0-0.6-0.7c0.8-0.8,1.6-1.6,2.5-2.4C182.6,375.7,189.2,371,195.7,366.2z"/>
	<path class="st20" d="M94.1,444.1c-0.4,0.4-0.9,0.8-1.3,1.2c-1.3,1-2.6,0.3-3.6-0.4c-3.1-2.1-6.6-3.4-9.9-5.1
		c-0.1-0.2-0.2-0.4-0.3-0.6c2.9-2.1,5.4-0.7,8,0.7C89.4,441.2,92,442.3,94.1,444.1z"/>
	<path class="st1" d="M295.6,158.5c-0.2-0.2-0.3-0.5-0.5-0.7c3.7-5.9,9.3-4.1,14.6-3.5c-0.7,1.7-2.1,1.2-3.4,1.1
		C302.3,155,298.6,155.7,295.6,158.5z"/>
	<path class="st21" d="M82.8,450.3c-0.8-0.1-1.6,0-1.9,0.9c-2-2.4-3.3-5.2-3.8-8.3c-0.2-1.7-0.6-3.4,1.9-3.7c0,0,0,0,0,0
		C79.3,443.2,83,446,82.8,450.3z"/>
	<path class="st22" d="M263.1,197.5c3,3.1,6,6.3,9,9.4c0.1-0.2,0.3-0.3,0.4-0.5c-3-3.1-6.1-6.3-9.1-9.4
		C263.4,197.2,263.2,197.4,263.1,197.5z"/>
	<path class="st23" d="M225.8,285.5c1.5-3.5,4.9-5.1,7.6-7.4C231.5,281.2,229.3,284,225.8,285.5L225.8,285.5z"/>
	<path class="st24" d="M174.3,383.5c-2.1,2-4.3,3.7-7.4,4c2.3-1.6,4.5-3.2,6.8-4.7C173.8,383.1,174,383.3,174.3,383.5z"/>
	<path class="st25" d="M225.7,285.4c-0.3,2.7-3,2.9-4.5,4.2C222.2,287.6,223.2,285.7,225.7,285.4
		C225.8,285.5,225.7,285.4,225.7,285.4z"/>
	<path class="st26" d="M574.4,399.3c-4.3-16.3-14-25-29.1-26.1c-2.9,0-4.4-1.7-5.1-4.3c-1.4-3.5-3.6-6.6-5.1-10.1
		c-5.3-7.4-9.4-15.6-14.2-23.3c-4.4-6.9-10.3-10.7-18.4-11.9c-7.2-1-14.4-2.2-21.4-4.2c-9.6-2.7-15.7-9.2-19.2-18.4
		c2.6-3.4,4.4-7.5,8.5-9.5c1.8,3.3,5.3,4.2,8.5,4.9c2.4,0.5,4.6,0,6,3.1c1,2.2,2.9,0.6,3.4-1.2c0.9-2.9,2.6-3.1,4.9-1.9
		c3.2,1.6,6.4,3.3,9.6,4.9c1,0.5,1.7,1.2,1.3,2.4c-1.3,4.3,1.3,4.2,4,3.3c1.6-0.5,3,0.2,4.4-0.1c2-0.5,2.8,0.2,2.7,2.2
		c-0.1,1.4-1.8,3.1,0,4c2,1.1,3.8-0.3,5.3-1.7c0.2-0.2,0.6-0.2,1.1-0.4c-1.1,5.6,3.8,7,6.9,9.4c1,0.8,2.6,1,2.8,2.4
		c0.7,4.7,5.9,6.4,6.9,11.1c0.5,2.3,2.2,1.8,3.2-0.4c1.1-2.5,2.8-2.4,3.6,0.2c0.7,2.3,3.4,3.5,2.5,6.9c-0.9,3.4,3.1,0.3,4.3,1.7
		c-4.2,7,0.3,9.8,5.5,12c2.3,0.9,4.7,1.5,7,2.4c2.6,1,5,2,5.1,5.8c0,2.2,1.8,4,4.2,5.1c2.2,1,5.3,1.3,5.8,4.7c0.1,0.4,0.8,1,1,0.9
		c6.4-3.5,8.1,3.3,12,5.4c0.6,0.3,1.2,0.5,2.8,1.1c-2.3-3.3-1.7-6.2-1.6-9.1c0-0.9-0.8-2.2,0.4-2.5c1.6-0.4,2.9,1.2,2.8,2.2
		c-0.3,2.5,1.5,4.2,2,6.2c0.9,3.9,2.1,5,5.5,2.3c0.7-0.5,2.6-0.2,2.3,0.8c-1.3,3.6,2.1,6.2,1.6,9.6c-0.3,1.9,0.6,3.8,2.5,4.5
		c5.2,1.8,3.3,4.2,0.6,6.6c-0.7,0.6-1.9,1-1.7,2.2c0.3,1.3,1.6,0.8,2.5,1c3.6,0.7,3.8,1.2,1.9,4.2c-1.5,2.4,0.4,2.7,1.8,2.6
		c3.7-0.3,5.1,1.3,5.3,4.7c0.2,2.3,2.4,3,3.9,4.2c-1.3,2.2-4.5,1.6-5.7,3.9c-3.5,2-6.9,4.3-10,6.9c-2.9,2-5.5,4.4-8.3,6.5
		c-2.9,1.6-5.6,5.4-9.1,3c-3.9-2.7-1-6.6-0.3-10c0.6-3.1,2.9-6.9-0.2-9.1c-3.2-2.2-6.5,0.7-9.3,2.6c-1.4,0.9-2.3,2.3-3.7,3.3
		c-0.7,0.5-1.5,0.8-2.4,0.6c-2.3-1.1-1.2-3.2-1.3-4.8C574.5,414.4,575.1,406.8,574.4,399.3z"/>
	<path class="st27" d="M386.6,232.6c-0.6-12.7-0.7-25.4,0-38.1c1-1.9,2.6-3.1,4.2-4.4c3-2.3,5-5.7,8.6-7.3c2.2-2.1,5-1.2,7.6-1.4
		c1.3-0.1,2.7,0.2,4,0c8-1.4,14.5,1,19.3,7.6c-1.3,1.2,0.7,2.3,0.1,3.6c-2.2-0.9-3.6-2.6-4.7-4.3c-1.3-1.9-2.4-3.3-4.7-1.6
		c-1.4,1-2,0.2-2.5-1.1c-0.3-0.9,0.2-2.8-1.7-2.2c-1.3,0.4-2.5,1.5-2,3c1.3,3.2-0.1,5.5-2.1,7.6c-2.3,2.4-0.7,4.3,0.7,6.1
		c0.7,0.8,2.5,1.6,1.2,2.6c-5.5,4.3-0.7,6.8,1,10.4c2.2,4.7,6.6,7.4,9.4,11.5c1.2,1.8,2.8-0.3,3.9,0.8c0.4,1.3-0.8,1.8-1.1,2.7
		c-0.4,0.8-1.3,1.7-0.3,2.6c0.7,0.6,1.4,0.7,2.3,0.2c3-1.9,3.4,0.2,3.6,2.4c0.4,4.5,0.9,8.4,6.7,9.6c2.4,0.5,7.4,1,5.5,6.3
		c-0.1,0.2,0.2,0.9,0.3,0.9c6.2-0.2,2.8,5.8,5.3,8.4c1.9,1.9,2.8,2.1,5.1,0.7c-0.7,1.9-0.4,4.4-2.3,4c-1.4-0.3-3.9,1.4-4.8-1.9
		c-0.7-2.7-2.3-1.3-3.5,0.1c-2.1,2.4-1.9,5.4-2.3,8.2c-0.4,1.5-1.5,1.9-2.8,2c-3.6-0.1-4.8-3.2-6.5-5.5
		c-6.1-8.2-12.3-16.4-18.5-24.6c-2.9-3.8-6.6-6.4-11.5-7.2c-0.5-0.1-0.9-0.2-1.3-0.4c-2.2-1.4-4.7-1.1-7.1-0.8
		C392.6,233.8,389.6,233.2,386.6,232.6z"/>
	<path class="st28" d="M440.4,270.7c1.1-0.1,2.2-0.3,3-1.3c3.6-1.3,7.5-4,11.1-0.8c3.6,3.3,2.1,7.6,0.9,11.6
		c-0.4,1.6-1.1,3.1-1.9,4.5c-1.5,2.6-1.5,4.6,1.2,6.2c1.9-2.1,3.6-4.4,5.7-6.2c2.5-2.1,5.4-4.5,8.9-2.2c3.6,2.4,2.2,5.7,0.9,8.9
		c-2.5,3.1-4.2,6.9-7.7,9.1c-0.9,0.8-0.6,2.4-2,2.9c-7.5,2.4-10.2,0.4-9.1-7.1c0.3-2.3-0.2-3.9-2-5.2c-0.3-0.4-0.5-0.8-0.6-1.3
		c-0.1-1.2,0.3-2.4,0.7-3.6c1.5-3.1,2.8-6.3,3.4-9.7c0.3-1.8,0.6-3.7-1.2-5c-1.5-1.1-3.2-0.5-4.7,0.2c-3.8,1.7-6.9,4.4-10.2,6.9
		c-6.7,5.1-12.7,11.2-20.3,15.1c-1.5,0.8-2.9,1.6-4.6,1.7c-5.2,0.5-7.9-2-7.6-7.2c0.1-2.7,1.1-5.2,2.2-7.6c1.2-2.3,2.5-4.6,3.5-7
		c0.4-0.9,0.9-1.9,0.2-2.7c-1-1.1-2.1-0.4-3.1,0c-1.9,0.8-3.6,2.3-5.8,2.4c-1.1-0.2-2-0.5-2-1.9c3-4.9,7.5-6.4,13-5.6
		c1,0.4,1.7,1.2,2.2,2.1c1.9,3.5,0.6,6.8-1.1,9.9c-1.5,2.8-2.8,5.7-3.9,8.6c-0.5,1.4-1,3,0.6,4.1c1.3,0.9,2.6,0.2,3.7-0.5
		c5.1-2.9,9.7-6.5,14.1-10.3c2.8-2.4,5.7-4.6,8.7-6.7C437.7,272.1,439.2,271.7,440.4,270.7z"/>
	<path class="st29" d="M622.7,466c0.5,0.1,1,0.2,1.5,0.2c-1.5,4.2-7.7,8.3-11.8,7.9c-4.2-0.5-6.4-4-5.3-8.9
		c0.9-3.9,3.1-7.2,4.9-10.7c2-2.4,3.7-5,5.2-7.8c3.3-4.6,5.3-10,9.6-13.9c0.7-0.2,1.4-0.2,2,0.4c-3.7,8-9,14.9-13.5,22.4
		c-1.8,3-3.5,6-4.9,9.1c-0.7,1.5-1.3,3.6,0.3,5.1c1.7,1.5,3.7,1,5.5-0.1C618.5,468.6,620.6,467.3,622.7,466z"/>
	<path class="st30" d="M431.2,188.8c0.7,0,1.5-0.1,2.2-0.1c4.7,0.4,5.4,3.9,6.1,7.5c0.4,2.1-0.6,4.2,0.5,6.5c2.4-1,3.2-3.9,5.8-4.3
		c0.2,0.1,0.4,0.1,0.7,0.2c-0.3,2.2-6.2,9.4-7.9,9.7c-1.4,0.2-2.2-0.6-2.2-2c-0.1-1.6-0.2-3.3,0-4.9
		C436.9,196.2,435,192.2,431.2,188.8z"/>
	<path class="st31" d="M629,433.2c-0.6,0-1.1,0.1-1.7,0.1c-1.8-2.5,0.8-4.2,1.3-6.2c0.4-1.4,1.1-2.9,0.2-4.2c-1.2-1.6-2.7-0.4-4-0.1
		c-1.6,0.4-3,1.4-4.7,0.9c-0.7-0.3-1.2-0.7-0.9-1.6c0.8-3.4,4.1-1.9,6-3.2c2.3,0.3,5.2-1.2,6.6,2.2
		C633.8,425.9,631.9,429.7,629,433.2z"/>
	<path class="st32" d="M448.4,184.6c0-0.7,0.1-1.4,0.1-2.1c0.4,0.5,0.7,1.1,1.2,1.5c7.2,5.8,6.9,10.1-1.1,15c-1,0.6-1.5-0.2-2.2-0.4
		c0,0,0,0.1,0,0.1c-0.3-0.5-0.4-1.1,0-1.4C450.9,193.7,451.8,189.5,448.4,184.6z"/>
	<path class="st33" d="M451,178.9c-5.5-5.4-11-10.7-16.4-16.1c-0.1,0.1-0.2,0.2-0.3,0.3c5.4,5.4,10.9,10.8,16.3,16.2
		C450.7,179.1,450.8,179,451,178.9z"/>
	<path class="st34" d="M443.3,165.5c-1.8-1.4-3.7-2.7-5.1-5.5C440.3,162.2,441.8,163.9,443.3,165.5z"/>
	<path class="st35" d="M379.5,187.6c1-1.2,1.6-3.4,3.6-2.6c1.7,0.6,0.8,2.6,0.8,4c0,28.1,0,56.1,0,84.2c0,3.8,0.2,7.6,0.4,11.4
		c1.2,7.3,0.5,14.6,0.4,21.9c0,3.1-2,4.3-5,4.2c-2.1-0.1-4.2-0.7-5.3-2.3c-3-4.3-6.5-5.8-11.5-3.2c-1.6,0.8-3.2-0.4-4.2-1.8
		c-1.5-2.2-2.7-4.6-2.7-7.4c1.6-3,2.5-6,1.5-9.5c-0.7-2.3-0.3-4.6,0.7-6.8c1.1-2.5,1.1-5.2,1.1-7.8c0-4-0.1-8,3.9-10.6
		c0.7-0.4,1.3-1.4,1.1-2.2c-1.7-5.6,2.4-8.9,4.8-12.9c2-3.4,3.1-6.5,2.1-10.7c-1-4.1-0.1-8.4,2.6-12.2c3.7-5.1,5.8-10.6,5.7-17.5
		C379.6,199.7,379.7,193.6,379.5,187.6z"/>
	<path class="st36" d="M334.7,266.5c0-7,0-14,0-20.9c2.8-0.8,4.3-2.1,4.2-5.5c-0.1-3,1-6.4,2.2-8.8c2.6-5.2,1.1-11.4,4.6-16.2
		c0.6-0.8,0.7-1.9,0.5-2.9c-1.3-5.3,2.6-8.7,4.5-12.8c6,4.1,9.1,9.3,8,17c-0.7,4.7-0.1,9.5,0,14.2c1.6,1.8,1.2,4,1.3,6.1
		c0.1,7.6,0,15.1,0.1,22.7c0.7,6.6-0.4,13.1-1.1,19.6c-2.2,6-3.6,6.2-8.7,2.6c-4.2-3-7.3-7.8-13.3-8.1c-1.3,0-2-1.1-1.7-2.5
		C335.7,269.3,335.5,267.9,334.7,266.5z"/>
	<path class="st37" d="M448.4,184.6c5.7,6.8,5.7,6.8-1.6,13.2c-0.2,0.2-0.3,0.6-0.4,0.9c-3.2,1.2-4.2,5-7.7,6.4
		c-1.3-5.7,1.9-12.9-5.3-16.4c-7.3-7.4-14.6-14.8-21.8-22.3c-1.6-1.7-3.5-1.6-5.5-1.6c-8.5,0-17-0.6-25.4,0.2
		c-8.2,0.8-13.4-2.6-18-9.4c13,0,25.8,0.9,38.4-0.2c13-1.2,22.5,2.7,30.5,12.8C436.4,174.2,442.7,179.2,448.4,184.6z"/>
	<path class="st38" d="M366.5,70.9c5,2.8,5.4,7.4,5.3,12.6c-0.3,13.4,0,26.8-0.2,40.2c0,1.5,2.2,3.9-2.8,4.7
		c-6.9,1.1-6.6,2.6-19.1,2.2c-0.1-2.5,3.9-1.6,3.6-4c-0.3-2.2,0.7-5-2.8-6.1c-1.3-0.4-2.7-2.3-2.1-4.1c0.8-2,2.5-1,3.8-0.5
		c2.6,1.2,2.9-1.2,2.4-2.2c-2.2-4.7-0.7-10.3-3.5-14.8c5.6-6.3,5.1-11.6-2.1-20.2c-0.4-1.7,0-3.4,1.2-4.5c2.1-1.8,2.9-3.7,2.2-6.4
		c-0.7-2.5,1.5-3.3,3.1-4.3C359.8,65,363.9,66.9,366.5,70.9z"/>
	<path class="st39" d="M358.5,279.5c0.1-3.1-0.3-6.2,0.4-9.2c0.8-3.4,0.6-6.5-0.3-9.6c1.8-7.4,0.6-15,0.8-22.5
		c0.1-2.9,0.1-5.8,0.3-8.7c0-4.3,0.6-8.7,0-12.8c-1.1-7.2,1.6-12.2,7-16.7c4.6-3.8,8.6-8.2,12.8-12.4c2.1,5,2.8,10.1,1.2,15.4
		c-0.3,0.9-0.3,2-0.1,3c1.5,7.5-2.1,13.2-6.4,18.8c-2.5,3.3-2.7,7.6-1.6,10.8c1.2,3.6,0.8,6.1-1,8.8c-1.8,2.8-2.9,6-5.5,8.2
		c-1.4,1.2-1.5,2.5-0.5,3.9c1.6,2.6,0.3,4.8-1.6,6c-2.8,1.8-3.3,3.8-3.1,7c0.2,3.3,0.3,6.9-1.3,10.1
		C359.1,280,358.8,279.9,358.5,279.5z"/>
	<path class="st40" d="M356.5,295.5c0.4,0.9,0.9,1.8,1.2,2.7c1.3,4.6,2.6,8.3,8.5,4.2c2.1-1.5,4.8-0.3,6.6,2
		c0.9,1.2,1.7,2.5,2.8,3.5c2,2,4.7,2,7,1.3c2.3-0.7,1.1-3.1,1.2-4.8c0.3-6.6,0.3-13.2,0.4-19.8c0.7-0.7,1.4-1.4,2.1-2.1
		c0.6-0.2,1.1,0,1.4,0.6c0.6,9-0.1,18,0.1,27.1c0.1,2.6-0.1,5.2,3.7,4.8c4.8,0.2,9.6-0.2,14.4,0.3c16.3,1.2,27,12.6,39,21.7
		c2.3,1.7,4.5,3.4,6.8,5c0.8,0.5,1.7,1.3,2.7,0.6c1.1-0.8,1.1-2,0.8-3.2c-0.4-1.7-1.4-3-2.6-4.2c-2.8-2.9-2.8-6.1-1.4-9.7
		c1.6-4.2,4.6-7.7,5.9-12.6c-4.1,0.5-6.6,3.3-9.8,4.7c-4.9,2.3-6.6,2-9.7-2.1c-1.5-4.2,0.9-7.7,2.2-11.4c0.8-2.2,2.9-4.9,0.6-6.9
		c-2.2-1.9-4.8,0.3-6.8,1.5c-5.9,3.5-11.2,7.8-16.4,12.1c-1.8,1.5-3.4,3.3-6,3.1c-2-0.9-1.5-2.2-0.5-3.6c1-1,2.3-1.8,3.2-3
		c6.8-5.6,13.6-11.1,21.8-14.7c5.3-2.3,7.5-1.4,10.6,3.7c1,4.6-1.3,8.4-3.1,12.3c-0.7,1.5-2,3.2-0.5,4.6c1.5,1.4,3.1-0.1,4.5-0.9
		c2.3-1.3,4.4-3,6.9-4c2.3-1,4.5-1.2,6.5,0.6c2,1.8,1.9,4.1,1.2,6.4c-0.6,1.9-1.6,3.6-2.6,5.4c-0.9,1.6-1.8,3.1-2.7,4.7
		c-1.4,2.8-1.5,5.3,0.8,7.7c3,3.2,3.6,6.7,2.3,11c-1.2,4.2,1.2,6.2,5.5,4.8c1.1-0.3,2.1-0.9,3.2-1.2c5.8-1.6,9.4,1.3,9.4,7.5
		c-0.5,0.9-1.3,1.5-2.4,1.4c-1.9-1.3-1.4-5.1-5-4.4c-0.9,0.2-2,0.3-2.4,1.4c-0.3,0.9,0.7,1.3,1.2,2c1.7,2.4,4.5,1.6,6.7,2.3
		c0.7,2,0.9,4-0.8,5.7c-2.7,1-4.4-0.9-6.2-2.3c-14.9-11.6-30.1-23-45.1-34.5c-6.1-4.5-13-6.2-20.6-6c-6.1,0.1-12.2,0.8-18.3-0.7
		c-13-0.6-26.1-0.1-39.1-0.2c-1.2,0-2.3,0-3.5,0c-8.6,0-8.7,0-9.5-8.2c-0.1-0.7-0.5-0.7-0.9-1c0.1-8.7,0.2-17.4,0.3-26.1
		c2.2-1.5-0.2-4.7,2.3-6.1c1.9-1.2,3.6-1.5,5,0.8c-0.4,1.1-1.4,1.7-2.3,2.4c-1.3,0.8-1.5,2-1.5,3.4c-0.1,8.9-0.1,17.7,0,26.6
		c0,1,0.3,1.9,1.1,2.6c0.7,0.4,1.5,0.7,2.4,0.7c13.1,0.2,26.2-0.1,39.3,0.2c0.8,0,1.6-0.1,2.5-1.7c-4.7-0.5-8.3-2.7-11.2-6.2
		c-0.9-1.1-2.4-0.9-3.7-0.7c-8.4,1.4-9,1-11.6-7c-0.2-0.6-0.4-1.3-0.5-1.9c-0.1-0.9,0.2-1.6,0.9-2.1
		C355.5,295.2,356,295.2,356.5,295.5z"/>
	<path class="st41" d="M387.3,282.7c-0.3-0.1-0.7-0.1-1-0.2c0.1-12,0.1-24,0.2-35.9c4.3-9.1,7.9-7.1,13-2.9c1.7,1.4,3.2,2.4,5.1,0.4
		c0.9-1,2.1-0.8,3.2,0c1,0.8,0.7,1.6,0.1,2.5c-1.8,2.3,1.1,1.6,1.7,2.4c0.8,1.2,4.9,0.7,1.9,3.9c-0.2,0.2,0.4,0.1,0.7,0.1
		c1.7,0.2,2.8,1.1,3,2.8c0.3,2-1.1,2.9-2.8,3.6c1.8-0.8,4.5-1.7,4.1,1.2c-0.3,2.2,0.7,6.6-4.3,6.1c-5.2-0.8-9,1.9-12.7,5
		c-2.5,4.6-7.5,6.7-10.9,10.4C388.2,282.4,387.8,282.6,387.3,282.7z"/>
	<path class="st42" d="M350.7,199.4c-0.8,5.1-4.9,9.5-3.2,15.1c0.4,1.3-1.1,1.9-1.6,2.9c-0.7,1.1-2,3-1.6,3.5c3,3.9-1.5,6.2-1.8,9.3
		c-0.1,0.6-0.9,1.4-0.7,1.7c2.3,4-2.6,6.8-1.7,11c0.8,3.3-2.4,4-5.3,2.6c-0.1-19.8-0.1-39.7-0.1-59.5c0-0.9-0.3-2.1,1-2.4
		C340.6,188.9,345.7,194.1,350.7,199.4z"/>
	<path class="st43" d="M412.1,266.7c3.4-1,1.8-4.6,3.4-6.6c0.3-0.4-0.8-1-1.8-0.4c-2.4,1.5-3.1-0.4-4.2-2.3c1.9,0.1,4.6,2.3,4.7-1
		c0.1-4-3.6-2.2-6.1-3.1c1.4-0.5,2.5-0.9,3.6-1.3c-2.5,0.2-3.2-4.1-6.1-2.6c-0.5-1.3-0.5-2.5,0.8-3.1c0.7-0.3,1.9-0.2,1.1-1.3
		c-0.5-0.7-2-1.3-2.5,0c-1.7,4.8-3.6,2-5.6,0.3c-1.5-1.3-3.1-2.5-4.7-3.4c-1.1-0.6-2.4,0.2-6.7,3.7c-0.5,0.4-1,0.8-1.6,1.2
		c-0.3-4.7-0.6-9.3,0.1-14c2.9-2.2,6.1,0.7,9.1-0.7c2.4,1.4,5.5,0,7.9,1.7l-0.1-0.1c6.7,1.6,11,6.4,14.9,11.6
		c3,3.9,6.3,7.7,8.6,12.1c-1.5,4.1-2.9,8.3-8.1,9c-1.9,0.3-2.9,2.7-5.2,2.2C413.2,267.8,412.7,267.3,412.1,266.7z"/>
	<path class="st44" d="M335.5,180.7c0.9-2.7,3.2-4.1,5.2-5.9c1.9-0.5,2.6,0.7,3.3,2.1c-1,2.8-0.4,5,1.9,7c3.3,3,6.4,6.2,9.5,9.4
		c2.5,2.7,4.6,3.3,7.3,0.2c3.2-3.6,6.7-6.8,10.1-10.2c1.5-1.4,2.5-3,2.6-5.2c0.2-1.5,0.5-3,2.2-3.6c6.1,5.4,6.1,5.4,0.5,11
		c-5.5,5.5-11.1,10.9-16.5,16.5c-1.8,1.9-2.8,1.9-4.7,0C349.9,194.9,342.6,187.8,335.5,180.7z"/>
	<path class="st45" d="M391.4,190.6c-1.4,1.5-2.6,3.3-4.7,3.9c1.1-11.2-2.6-20.2-13.5-26.9c7.9-1.3,13.5-1.5,17.8,4.2
		c1.7,2.2,3.8,4.2,6,6c2.1,1.7,1.5,3.3,0.2,5C395.6,185.7,392.3,187.3,391.4,190.6z"/>
	<path class="st46" d="M325.2,152.6c6.6-12.2,16.9-15,29.3-12.2C350.9,150.4,341.5,154.4,325.2,152.6z"/>
	<path class="st47" d="M363.1,140c5.7,0,10.9-0.1,16.2,0.1c2.2,0.1,4.1,1.1,5.6,2.8c1.5,1.8,3.1,3.5,4.7,5.2c1.2,1.3,4.2,2,3.3,4.2
		c-0.7,1.5-3.4,0.3-5.1,0.7c-9.6,1.9-16.6-1.9-22.1-9.5c-0.6-0.8-1.3-1.5-2-2.2C363.4,141.1,363.4,140.9,363.1,140z"/>
	<path class="st48" d="M351.4,98.9c1.8,1.9,5.5,3.3,2,6.8c-0.8,0.8,0,1.5,0.5,2.1c2.5,3.3,2.7,6.9,0.7,10.7c-1.9,0-3-2.9-5.8-2
		c1.3,1.8,1.7,4.1,4.6,3.9c1.8-0.1,2,0.8,1,2.1c-0.3,0.4-0.7,1.1-0.5,1.3c3.6,5.4-1.3,5.5-4.3,6.8c-3,0.6-3.2-1.3-3.2-3.5
		c0.1-8.8,0.2-17.6,0-26.3c-0.1-3.7,1.4-3.6,3.9-2.6C350.8,98.2,351.2,98.4,351.4,98.9z"/>
	<path class="st49" d="M377.6,174.6c-0.8,1.3-1.2,2.7-1.1,4.2c-2.2,0.4-3.2-1.3-4.5-2.5c-3.3-3.2-6.6-6.5-9.8-9.8
		c-2.2-2.3-4-2.4-6.2-0.1c-2.5,2.7-5.1,5.2-7.7,7.7c-1.3,1.2-2.3,2.9-4.5,2.7c-1-0.7-2.1-1.4-3.1-2c5.9-6,11.8-12.1,17.6-18.1
		c1.9-0.6,2.6,1.1,3.6,2C367.2,164,372.4,169.3,377.6,174.6z"/>
	<path class="st50" d="M411.4,169.8c2.8,2.7,5.7,5.4,9.4,8.9c-10.7-0.1-21.1,3.3-27.4-7.8c-0.6-1-0.5-2.3,0.7-2.4
		C399.9,167.8,405.9,166.1,411.4,169.8z"/>
	<path class="st51" d="M366.5,70.9c-3.7-2.3-7.4-4.6-11-6.9c-2.7,1.1-4.8-0.3-5.1-2.6c-0.4-2.9,3.2-0.9,4.2-2.6
		c4.8-1.2,9.7-0.5,14.6-0.6c2-0.1,2.5,1.1,2.5,2.9c0,3.6,0,7.3,0,10.9C369.5,72.9,368.3,70.5,366.5,70.9z"/>
	<path class="st52" d="M346.6,151.7c3.7-3.3,7.5-6.5,11.1-9.8c1.3-1.3,2.1-0.9,3.3,0.1c3.6,3.3,7.4,6.5,11.1,9.8
		c-0.4,0.5-0.7,0.9-1.1,1.4c-7.7,0-15.3,0-23,0C347.5,152.6,347.1,152.1,346.6,151.7z"/>
	<path class="st53" d="M340.5,37.9c-1.1-0.8-2.8,0.7-3.6-1c3.5-2.3,7.4-1,11.1-1.3c2.1-0.2,4.3,0,6.4,0c3,0,5.7-0.3,5.9-4.2
		c0.1-1.1,1-1.7,2-1.8c6.4,0.4,12.7-0.7,19.1,0.6c0,0-0.1,0-0.1,0c0.4,8.5,0.6,7.4-7.2,7.4C363,37.5,351.8,37.8,340.5,37.9z"/>
	<path class="st54" d="M343.6,46.7c-1.7-2.2-3.4-4.5-5.1-6.7c6.9-0.7,13.9-0.3,20.8-0.1c-0.1,3.6,4.2,5.3,4,8.9
		c-4.8,0.1-9.5,0-14.3,0.2C346.8,49.2,345.1,48.3,343.6,46.7z"/>
	<path class="st55" d="M351.4,98.9c-0.4-0.2-0.7-0.4-1.1-0.7c-4.2-3.7-5.6-15.4-2.3-20.1c0.8-0.3,1.2,0.3,1.6,0.8
		c7.8,3.2,5.7,10.2,6.3,16.2C356.2,98.3,353.3,98.1,351.4,98.9z"/>
	<path class="st56" d="M363.4,48.9c-0.6-0.8-0.8-1.8-2-2.4c-2.6-1.3-4.2-3.5-2-6.5c6.5,0,13.1,0,19.8,0
		C376.1,47,371.3,50.6,363.4,48.9z"/>
	<path class="st57" d="M349.6,78.9c-0.5-0.3-1.1-0.5-1.6-0.8c-3.2-5.7-0.9-11.8-1.4-17.7c-0.1-1.6,1.4-1.5,2.5-1.5
		c1.8,0,3.6,0,5.4,0c-0.7,1.6-2.5,1.3-3.8,2.1c0.8,2.3,2.7,2.7,4.7,3.1c-1.1,1.9-2.8,3.4-1.6,6.1c0.5,1.1,0,3.4-1.3,3.9
		C350.1,74.9,350.2,77,349.6,78.9z"/>
	<path class="st58" d="M359.7,229.5c0.8,9.8,0.5,19.6,0.1,29.4c0,0.9-0.2,1.6-1.2,1.8c0-10.1,0.1-20.1,0.1-30.2
		C359,230.2,359.3,229.9,359.7,229.5z"/>
	<path class="st40" d="M384.7,241.2c0-14.7,0-29.5,0-44.2c0.2,0,0.3,0,0.5,0c0,14.8,0,29.6,0,44.4
		C385,241.4,384.8,241.3,384.7,241.2z"/>
	<path class="st59" d="M411.4,169.8c-4.9-1.8-10-1.1-15.1-0.8c-1.1,0.1-2.9-0.2-2.9,1.8c-1.3-0.9-2.7-1.8-3.3-4c5.7,0,11.2,0,16.7,0
		C409,166.8,410.4,167.9,411.4,169.8z"/>
	<path class="st60" d="M391.4,190.6c-0.2-0.9-2.8,0.3-1.6-1c2.3-2.4,3.8-5.6,7.2-6.9c0.8,0,1.7,0.1,2.5,0.1
		C396.9,185.4,394.6,188.5,391.4,190.6z"/>
	<path class="st61" d="M138.8,490c-3,0-6,0-8.9,0c0.9-4,2-7.9,2.4-12c0.3-3.1,2-5.2,5.7-5.3c-4.1-4-0.1-6.8,1.7-9.2
		c4.5-5.9,5.9-12.7,8-19.4c0.9-2.9,0.8-5.2,0.4-8c-0.5-3.6,1.2-7.4,4.1-9.1c3.7-2.3,5.2-5.5,6.7-9c1.4-3.3,5-2.6,7.7-4.7
		c-2-0.6-3.9-1.3-3.4-3.7c0-3.4,0.4-6.4,5.1-5.6c1.7-0.5,2.6,1.2,3.9,1.7c-1.6-5.7,0.2-9.4,5-10.5c1-0.2,1.1-0.6,1.6-1.4
		c2.5-3.9,3.4-4,7.6-0.1c-0.5-2.2-1.5-4.3,0.9-5.3c2.5-1,5-0.5,7.1,0.9c2.1,1.3,0.3,3.2,0.2,4.9c-0.5,5.7-3.8,10.4-5,15.8
		c-0.3,1.6-1.7,3.6,1,4.6c4.1,1.5,5.1,6.8,2.1,10.5c-1.2,1.4-2.7,2.3-4.1,3.5c-3.2,2.5-3.2,6.3-4.2,9.8c-0.4,0.5,0.2,0-0.3,0.4
		c-1.4,1.2-2.5,4-4.7,2.3c-2.1-1.6-0.6-3.8,0.8-5.6c-1.8,1.2-3.6,1.8-2.5,4.9c1.6,4.8-1,6.9-6.1,5.6c-1.8-0.5-3.8-2.1-5.5-0.1
		c-1.8,2-0.5,4.1,0.4,6c0.7,1.5,1.8,2.8,2.2,4.5c0.1,2-0.9,5.6-1.4,5.4c-4.6-1.7-4.7,3.2-7.1,4.5c-0.9,0.5-1.6-0.1-2.3-0.3
		c-2.3-0.4-3,0.7-2.5,2.8c0.1,0.6,0-0.2,0.2,0.5c0.5,2,1.2,4.1-0.9,5.4c-2.2,1.4-3.5-0.9-5.1-2c-2.4,2-2.3,3.6-0.4,6.2
		c2.5,3.6,0.7,7.4-3.7,8.9C143,488.2,140.6,488.2,138.8,490z"/>
	<path class="st62" d="M411.5,490c-34.4,0.1-68.8,0.1-103.2,0.2c-9.5,0-18.9,0-28.4,0c-1.2,0-2.3,0-3.5-0.1c-1.9-0.3-2-2-2.5-3.4
		c-0.3-0.9-0.5-2,0.7-2.6c1.3-0.6,2.6,0,3.7,0.6c0.1,0.1,0.2,0.2,0.4,0.3c7.1,4.5,9.4,3.5,10.2-4.7c1-0.5,1-1.6,1.3-2.5
		c0.6-1.9-1.4-4.6,1.4-5.7c2.6-1,5.5-1,8.2-0.1c1.4,0.5,2.8,0.9,4.3,0.9c2.4,0.2,4.7-0.4,7-0.6c4.3-0.1,5.4,3.6,7.1,6.4
		c1.3-0.8,1.9-2,2.7-3c1.3-1.6,2.4-1.8,4-0.2c3.2,3.2,6.4,3.2,9.8,0.1c1.3-1.1,2.7-2.6,4.3-2c4.2,1.7,7.5,0,11.2-1.4
		c2.6-1,5.1,0.9,6.6,1.7c-2.1-1.5-0.6-3.5,1.1-5.4c1.5-1.7,3.1-1.8,3.7,0.5c1.1,4.5,4.7,3.7,7.6,3.4c2.3-0.2,4.6-0.8,6.9-1.1
		c4.8,1.4,8.8,0,11.9-3.9c0.4-0.5-0.1,0.1,0.3-0.4c2.6-2.4,4.8-6,9.2-4.6c4.2,1.3,3.1,5.5,3.8,8.5c1.7,7.1,2.5,7.9,9.5,7.9
		c4.8-0.3,9.4-0.3,11.3,5.5c1,3,0.2,4.5-2.9,4.8C416.7,489.3,414,488.6,411.5,490z"/>
	<path class="st63" d="M285.7,464.4c0.4,5.4,0.9,10.8,1,16.1c0.1,4.8-1.6,5.7-5.7,3.5c-0.7-0.4-1.3-1-2-1.4c-2-1.1-4-1.7-6.1-0.3
		c-1.9,1.3-1.2,3.2-1.1,5c0.1,0.8,0.3,1.6,0.6,2.7c-25.1,0-50,0-74.8,0c-0.4-1.3,0.3-2.3,1.2-3c5-3.6,9.5-7.9,15.2-10.5
		c1.9-0.4,3.8-0.8,4.3-3.1c0.5-1.1,1.3-1.8,2.5-1.9c3.5-1.4,6.4-2.4,6.7,3.3c0.1,2.9,3.5,1.9,4.6,1.2c2.5-1.7,3.8-0.6,5.6,0.8
		c2.8,2.1,5.8,2.4,8.8,0.1c0.7-0.5,1.7-1.4,2.1-1.1c4.1,2.8,7.1-1.8,10.8-1.3c1.1,0.1,1.4-0.5,1.9-1.2c1.2-1.9,3.1-2.7,5.1-2.1
		c2.4,0.8,2.9-1.8,4.6-2.1c3.3-0.7,0.9-2.4,0.7-3.6c-0.3-1.7,0.9-1.9,1.9-2.4c2.6-1.2,5.4-1.8,7.3-4.7c0.9-1.4,4.1-1.4,6.2,0.2
		C287.2,460.7,287.1,462.7,285.7,464.4z"/>
	<path class="st64" d="M193.4,490c-9.7,0.1-19.4,0.1-29.2,0.2c-2.1,0-4.3,0.5-4.5-2.9c-0.2-3.4,2-3.1,4.1-3.3
		c1.8-1.4,4.2-1.1,6.1-2.1c3.4-1.2,2.4-4.3,2.8-6.7c0.2-1.5,0.5-3.1,2-3.8c1.7-0.8,2,1.1,2.9,1.9c1.6,1.6,4-0.2,5.6,1.3
		c6.4,3.4,6.8,3.3,10.5-1.2c1-3.3,2-6.7,4.9-8.9c0.8-0.6,1.4-1.4,2.4-1.7c-0.4-0.6,3.9,2.1,0.6-0.9c-1.4-1.3,1.1-4.1,3.5-3.7
		c1.6,0.3,3.2,0.6,4.9,0.5c0.5,0.1,1,0.2,1.4,0.4c7.1,3.2,9.4,1.9,10-5.6c0.6-7.9,3.3-9.2,10.2-5.1c5.5,3.3,7.3,3,11.2-2.2
		c1-1.3,1.8-2.8,3.3-3.7c2.3-1.4,4.5-1.4,6.2,0.8c1.7,2.2,0.2,3.7-1.5,5c-7,5.6-14.5,10.6-21.6,16.1c-10.3,7.8-20.9,15.3-31.1,23.2
		C196.8,488.6,195.1,489.3,193.4,490z"/>
	<path class="st65" d="M108.9,489.9c-5.1,0.1-10.3,0-15.4,0.3c-5,0.3-6.5-3.1-7.7-6.8c-1-2.9,0.9-4,3.4-3.9c1.6,0.1,3.3,0.4,4.9,0.9
		c2.1,0.7,4.1,0.8,5.5-0.8c1.6-1.9,0.9-4.2,0-6.1c-2.3-4.8-5.8-8.9-9-13.1c-1.8-2.3-3.5-4.8-5.3-7.1c0.8-5.1,4.8-7.3,8.9-4.9
		c1.6,0.9,3.3,1.4,5,1.7c2.8,0.3,5.1,2.3,8,2.3c5.4,0,7.7-2.7,6.4-7.8c-0.4-1.6-1.2-3.1-1.5-4.7c-0.3-1.9-1-3.9,1-5.4
		c1.9-1.4,3.9-0.9,5.6,0c4.3,2.3,8.2,4.8,7.2,10.9c-0.6,3.9-0.2,7.9-0.3,11.9c0.1,3-1.2,4.8-4.3,5.4c-5.5,1.2-9.1,3.6-8.5,10.4
		c0.3,3.3-2.5,6.8-4.9,9.3c-2.1,2.1-2.4,3.2,0,4.9C108.9,487.8,109.9,488.5,108.9,489.9z"/>
	<path class="st66" d="M189.8,415.2c-1.3,1.2-1.7-0.3-2.2-0.9c-0.8-1,0.4-1.8,0.6-2.7c0.7-3.2-0.9-7.2,3.2-9.2
		c0.8-0.4,1.4-1.1,0.9-2c-1.1-2.3-0.2-4.3,0.9-6.1c2.6-4.2,0.5-5.3-3.3-5.4c-2-0.1-4.5-0.8-2.6,2.8c0.7,1.4-0.4,2.8-1.2,4.2
		c-1.6-0.7-0.7-2.7-2.2-3.5c-0.9-0.5-1.6-1.3-2.6-0.7c-0.9,0.5-2.2,0.9-1.6,2.5c0.6,1.7,1,3.2-1.9,1.9c-1.1-0.5-4.2-0.9-4,0.8
		c0.4,3-3.7,6.1,0.3,8.8c-2.7,1.7-4-1.7-6.3-1.5c-2.8-0.5-4-2.7-5-5c5-4,10-8,15-12c3.4-4.8,8.7-7.6,13.3-11
		c7.8-5.8,14.9-12.6,23.9-16.7c2.4-1.1,4.8-2.3,7.6-2.2c1.2,0.2,2.4,0.5,2.3,2c-0.2,5.1-2.5,9.5-4.5,14.1c-6.1,0.4-6.4,4.7-6.4,9.3
		c0,1.1-1.4,1.9-2.5,2.2c-3.5,0.9-4.9,3.6-6.1,6.6c-0.1,0.5-0.2,0.9-0.4,1.3c-2.3,5.7-7.9,9.5-9,16.1
		C195.5,411.7,191.5,412.7,189.8,415.2z"/>
	<path class="st66" d="M163.8,409.2c1.1,0.2-0.9,3.5,2.2,2c1.4-0.7,1.5,1.2,1.3,1.7c-0.4,0.7,0.4,2.1-1.5,2.3
		c-2.1,0.2-4.1,1.3-6.2,2c3.9,2.6-1.1,2.4-1.3,3.8c-0.5,2.7-1.4,4.9-5.1,6.2c-2.7,0.9-5.1,5.6-3.8,9.8c0.7,2.2-0.6,5.3-0.4,5.8
		c2.3,6.3-5.3,9.2-4.4,15.1c0.7,4.2-5,5.5-6.3,9.4c-0.6,1.8-2.4,2.9,0.5,4c0.9,0.3,1.1,1.3,0.8,2.1c-0.6,1.8-1.5,0-2.2,0.1
		c-2,0.2-3.2,1-3.9,3.3c-1.3,4.3,0.3,9.5-3.7,13c-1.2,0.2-1.9-0.1-1.9-1.5c0-18.1,0-36.2,0.1-54.3c0-0.5,0.4-0.9,0.6-1.4
		c2.1,1,1.2,3.3,2.1,4.7c1.6,0.3,2.6-2.7,4.3-0.8c0.6,0.6-0.1,1.6-0.5,2.3c1.3-2.9,4-5.2,2.8-9.2c-0.6-2.1,2.5-3.7,3.6-2.7
		c3.5,3,3.8-1,5.4-1.9c0.3-0.3,0.6-0.7,0.9-1c1.3-3.6,0.8-8.6,6.7-8.9c0.9,0,1-1.6,1.3-2.5C157.1,408.9,159.6,407.2,163.8,409.2z"/>
	<path class="st67" d="M138.8,490c-0.5-3.6,3.3-3.4,4.6-3.5c3.1-0.2,5-1.2,5.3-4c0.4-3.2-1-5.7-6.3-6.2c4.4-1.4,7-2.6,5.1-6.5
		c1.2,0.8,2.4,1.4,3.5,2.3c1,0.7,1.5,2.7,3.1,1.5c1.2-0.9,0.8-2.4,0.4-3.7c-1.7-5.7-1.8-5.5,4.5-4.9c1.4,0.1,2.9-1.8,3.1-3.6
		c0.1-0.9-2-2-0.3-2.9c1.5-0.8,2.1,1.2,3.2,1.8c0.4,0.2,0.8,0.6,1.4,1.2c0.5-1.8,0.9-3.4,1.4-5.1c1.5-1.1,2.4,0.3,3.4,1
		c1.1,0.7,2.2,1.9,3.5,0.9c1.2-0.9,0.8-2.4,0.7-3.7c-0.1-2-0.9-3.8-2.1-5.5c-0.8-1.1-2.3-2.1-1.3-3.8c1.6-1.5,2.5,1,3.8,0.7
		c1.4-0.7-3.3-3.3,1.1-3c0.1,0,0.5-1.4,0.3-1.7c-4.5-4.8,0.2-5.6,3.3-7c0.9,2.2-2,4.1-0.7,6.4c2,0.3,2-2.7,4-2.4
		c0.7,0.5,1.2,1.2,1.3,2c1.6,9.9,4.4,19.7,4.4,29.8c-0.6,2-0.5,4.5-3.5,4.8c-3.7-0.7-5.4-4-8-6.2c-1.5-1.3-3-2.9-5.2-1.9
		c-2.1,0.9-1.6,3-1.7,4.8c-0.1,2.3,0.2,4.6-0.2,6.9c-0.7,4.2-2.5,5.1-7,3.8c-4-0.8-6.3,0.7-6,4.9c0.2,2.5-0.7,3.1-3.1,3
		C149.5,489.9,144.1,490,138.8,490z"/>
	<path class="st68" d="M163.9,482.2c4.5,0.4,6.4-1.7,5.9-6.1c-0.2-1.6-0.1-3.3-0.2-4.9c-0.1-2.6,0.1-5.3,2.9-6.2
		c2.6-0.8,4.8,0.7,6.5,2.6c2.2,2.4,4.1,5.1,7,6.8c4.5,1.2,5-2,5.3-5.1c0.4-4.4-0.2-8.9,1.1-13.3c1.7-5.4,4-7,9.9-6.7
		c3.7,1.6,6.4,4.7,9.7,6.9c4.9,3.4,6.3,2.8,7.3-3.2c0.2-1.3,0.2-2.7,0.5-3.9c1.4-5.5,5.2-7.2,10.1-4.5c1,0.6,2,1.2,3,1.8
		c3,1.9,5.7,1.8,7.7-1.4c3.3-5,7.3-7.7,13.4-4.6c1.9,1,3.5-0.4,5-1.4c2.1-1.3,3.7-3.5,6.5-3.1c0.6,0.6,0.7,1.3,0.6,2
		c-1,2.4-3.1,3.8-5.1,5.3c-10.6,7.8-21.1,15.9-31.7,23.8c-2.7,2-5.6,3.8-8.7,5.3c-1,0.3-1.9,0.7-2.3,1.7c-1,1.3-2.3,2.2-3.9,2.8
		c-5.9,4.1-12,8-17.1,13.2c-1.4,0-2.8-0.1-4.2-0.1c14.1-10.7,28.2-21.3,42.4-32c4.9-3.7,9.8-7.3,14.7-11.1c0.9-0.7,3-1.2,1.8-2.8
		c-1-1.5-2.9-2.6-4.7-1.3c-1.3,0.9-2.5,2.2-3.4,3.5c-4.9,6.7-7.1,7.1-13.8,2.6c-1.7-1.1-3.3-3.2-5.7-1.8c-1.9,1.2-1.8,3.3-1.9,5.3
		c-0.6,10.5-3.9,12.3-13,7c-2.2,0-3.5-1.6-5.1-2.8c-5-3.8-6.7-3.2-7.9,2.8c-1,4.8-0.9,9.8-2.1,14.6c-3.5,5.5-5.4,5.7-11.9,1.4
		c-1.8-1.7-4-2.9-5.8-4.7c-2.6-2.6-3.6-1.2-3.9,1.7c-0.2,1.8-0.2,3.6-0.2,5.5c0,2.1-0.5,3.9-2.4,5.1c-2,1.4-4.2,1.5-6.6,1
		C163.8,483.4,163.9,482.8,163.9,482.2z"/>
	<path class="st69" d="M163.8,409.2c-1.5-0.5-3.2,3.2-4.5-0.3c-1.3,1.8-2.8,3.4-3.3,5.6c-0.4,1.7,0.7,4-3.2,2.3
		c-2.3-1-3.5,3.1-3.6,5.6c-0.1,1.3,0.8,2.6-1.3,2.8c-0.5-0.3-0.7-0.8-1.2-1c0.2,0.6,0.9,0.6,1.2,1c-2.5,1.6-2.1,5.3-4.8,6.8
		c-1.8-1,0-2.2-0.5-3.2c-0.5-0.9-1.1-1.2-2-0.9c-1,0.3-2.9,0.5-2.1,1.9c3.5,5.8-3.6,7.1-4.1,11.5c-1.6-1.9,1-3-0.2-4.6
		c-0.5,0.4-1,0.8-1.4,1.2c-0.9,0.8-1.2,2.8-2.9,1.9c-1.2-0.6-0.9-2-0.6-3.1c0.4-1.4-0.4-2.6-0.5-3.9c0.4-5.7,3.4-10.2,7.5-13.5
		c8.7-6.9,17.7-13.4,26.6-20.1c2.3,1,3.3,3.4,5,5c-0.2,0.4-0.3,0.9-0.5,1.3c-2.9-1.7-3-0.2-2.6,2.1
		C164.9,408.1,164.1,408.7,163.8,409.2z"/>
	<path class="st70" d="M108.9,489.9c0-2.1-2.5-1.5-3.1-2.7c-0.9-1.8-4.3-4.2,0.8-5.2c0.3-0.1,0.9-0.3,0.9-0.3
		c-0.4-4.3,5.1-5.9,4.3-10.9c-0.6-3.5,0.4-7.6,6-8.3c3.1-0.4,6.8-1.4,8-5.3c0.1,9.7,0,19.5,0.2,29.2c0,2.7-0.7,3.9-3.6,3.7
		C117.8,489.9,113.4,490,108.9,489.9z"/>
	<path class="st71" d="M222.5,358.2c-5.8,1-10.8,3.8-15.5,7.2c-9.8,7.2-19.5,14.5-29.2,21.8c0-0.8,0-1.5,0-2.3
		c10.3-8.3,20.8-16.4,31.8-23.9c6.7-4.6,14.5-6.5,22.6-6.7c7.1-0.2,14.3-0.1,21.4-0.1c2.8,1.3,0.4,2-0.4,2.9
		c-5.8,1.2-11.7,0.3-17.6,0.6c-2.1,0.1-4.3-0.1-6.3,0.5C227,359.3,224.7,357.3,222.5,358.2z"/>
	<path class="st72" d="M304,474c-3.5,0.5-6.6-2-10.1-1.4c-1.7,0.3-3.8-0.5-2.2,2.9c0.7,1.5,0.6,4.5-2.7,4.8c-0.7-5-1.4-10-2.1-15
		c0.1-2.2-0.7-4.4,0.3-6.5c0.1-0.5,0.4-0.9,0.8-1.2c4-1.3,5.9,1.8,8.2,4C298.3,466,301.5,469.8,304,474z"/>
	<path class="st73" d="M99.2,449.9c-2.6,0.2-4.7-0.2-7.2-1.5c-2.8-1.5-4.9,2.4-6.7,4.8c-0.8-1-1.6-2-2.5-2.9
		c-1.4-3.6-5.3-6.4-3.8-11.1c5.2,0.6,9.1,4.4,13.8,6.1C94.9,446.9,97.1,448.4,99.2,449.9z"/>
	<path class="st74" d="M411.5,490c1.2-2.3,3.3-1.7,5.2-1.9c1.8-0.2,5.3,0.8,4.7-1.6c-0.6-2.2-1-6.5-5.3-6.4c-2,0-4-0.1-6-0.1
		c3.4-4.3,8.4-4.7,11.2-0.3c2.5,3.9,5.4,6.3,10.2,6.5c1.9,0.1,4,1,2.8,3.8c-0.3,0.1-0.7,0.2-1,0.3
		C426.1,490.2,418.8,490.1,411.5,490z"/>
	<path class="st75" d="M287.7,458.2c-0.4,2.4,0.7,4.9-0.8,7.1c-0.4-0.3-0.8-0.6-1.2-0.9c-0.4-2.2-0.1-4.2,0.8-6.2
		C286.9,457.9,287.3,457.9,287.7,458.2z"/>
	<path class="st76" d="M593.1,490c-5.3,0-10.6-0.1-15.8-0.1c-2.6-2.6-4.5-5.5-4.5-9.3c0.2-0.3,0.5-0.6,0.6-0.6
		c0.4,0.5,0.2-0.4-0.2,0.1c-0.4,0.5,0.1-0.1-0.4,0.3c-1.4-1.6-4.2-1.1-4.9-3.9c-1.4-5.6-6.5-7.7-11-10.2c-0.9-0.5-2-0.6-2.6,1
		c-0.4,1.3-1.8,1.8-3.1,2.1c-2.9-0.4-3.9-2.6-4.5-5.1c0-3.6-0.9-7-3.9-9.2c-2.6-2-3.2-4-1.5-6.8c0.4-0.7,0.5-1.6-0.1-2.4
		c-1.6-0.5-2.1,1.2-3.2,1.8c-1,0.5-2.1,1.3-3.2,0.5c-1.2-0.8-0.3-1.8,0.1-2.6c0.3-0.6,0.7-1.4,0.1-1.8c-6.3-3.9-9.3-11.7-16.6-14.6
		c-0.8-0.3-1.6-0.6-2.3-0.2c-3,1.6-4.2-0.5-5.4-2.6c-1.4-2.5-1.9-5.1,0.1-7.4c2.7-3.2-1-4.3-2.1-4.9c-3.3-1.7-6.7-2.6-6-7.4
		c0.1-0.4-2-0.6-2.2-2c-0.4-1.5-0.2-2.9,0.4-4.3c1.6-3.3,0.8-6.6,0.1-9.9c0.4-1.3,1.5-2,2.7-1.7c7.1,1.6,13.3-2.2,19.9-2.9
		c5.5-0.5,11.2-1.1,16.8,1.2c3.7,1.6,7.9,1.3,11.4,4.3c1.8,1.6,3.8,2.9,4.8,5.1c2.2-0.4,1-4.7,4-3.2c2.3,1.1,4.4,3.1,3.9,5.9
		c-0.5,3.2,0,4.8,3.5,4.7c0.7,0,1.3,0.2,1.6,0.9c0.8,1.6-0.2,2.8-1.2,3.9c1.2-0.2,2.7-0.6,3.1,1c0.3,1.4-0.4,2.9-0.7,4.4
		c-0.3,1.6-0.1,3,1.3,3.9c0.1,10.6,0.4,21.2,0.2,31.9c-0.1,9,2.6,16.9,8.3,23.9C585,479.1,589,484.7,593.1,490z"/>
	<path class="st77" d="M613.2,454.5c-1.6,3.3-3.3,6.5-4.6,9.8c-1,2.5-1.5,5.3,0.9,7.4c2.4,2.1,5,1.5,7.4,0.2
		c2.7-1.5,5.7-2.8,7.3-5.7c2.2,0.3,3.5-1.6,5.4-2.2c1.6-0.6,3.1-1.1,4.6,0.3c1.4,1.4,0.6,2.8,0,4.1c-1.6,3.4-3.5,6.7-5,10.2
		c-2.6,6.2-1.1,8.6,5.6,9.5c0.8,0.1,1.7,0.1,2.2,1.8c-8.7,0-17.3,0-25.9,0c-2.1-1-2-3.3-0.8-4.1c3.6-2.7,2.3-5.2,0.1-8.1
		c-1.7,2-3.7,2.9-5.8,0.3c-0.8-0.9-1.7-1.3-3-1.4c-4.8-0.3-5-0.8-2.4-5.1c0.3-0.4,0.5-0.9,0.5-1.4c0.4-0.5-0.8-0.4-0.2-0.2
		c0.2,0.1,0.2,0.2,0,0.4c-2.3,2.2-3,5.2-7.6,0.9c-4.3-4.1-3.4-7.8-4.4-12c-3.8-1.1-3,3.5-4.6,5.2c-4.4-2.6-1.4-7.9-4.5-10.8
		c-1,2.8,1.5,6.3-1.9,8.5c-2.7-5.9-1.5-12.3-1.9-18.5c-0.3-5.1,0.1-10.2,0.1-15.3c0.2-1.1,1.4-1.4,2-2.1c0.4-0.4,0.9-0.8,1.3-1.2
		c2.7-1,4.6-3.1,7-4.5c2.1-1.2,4.4-2.1,6.5-0.7c2.3,1.5,1.6,4.1,1.1,6.4c-0.4,1.7-1.2,3.4-1.6,5.2c-0.6,2.7-2.2,5.4,0.2,7.9
		c2.6,2.7,4.8-0.6,7.2-0.7c4.8,0,9.4,0.5,11.4,5.9c0.2,0.5,0.5,1,0.9,1.1C617.1,447.2,615,450.9,613.2,454.5z"/>
	<path class="st78" d="M572.1,418.2c-3.8,0.3-3.6-1.3-2.5-4.2c0.5-1.2,1.8-3.3,0.6-4.3c-1.7-1.3-1.7,1.4-2.6,2
		c-0.6,0.4-1.3,0-1.7-0.5c-0.5-0.6-0.3-1.3,0.3-1.7c1.3-1,2.8-1.8,3-4.3c-2.6,1.2-4.5,0.2-6.3-1.5c-0.6-0.6-1.1-0.8-0.7-1.9
		c1.5-4.1,1.4-4.2-3.5-8c0.4,2,1.8,4.4-0.9,5c-2.5,0.6-2.5-2.6-3.4-3.2c-3.5-2.2-5.8-6.8-10.7-6.2c-1.6,0.2-2.9,0.1-4.1-0.9
		c-2-1.9-4.3-2.1-6.8-1c-0.9,0.4-2.3,0.9-2.8,0.5c-4.1-3.6-8.2-0.6-11.6,0.6c-5.2,1.8-10.1,2.3-15.3,1.3c-0.6-0.1-1.3,0.3-1.9,0.5
		c-5.4-0.2-9,3.3-12.7,6.4c-1.4,0.5-2.8,0.6-4.1,1.3c-2.9,1.5-4.2,0.3-4.4-2.6c0.6-1.9,2.5-3,3.5-4.6c1.3-2.1,2.8-4.2,0-6.3
		c-1.7,0.4-2.4,1.8-3.6,2.8c-2,1.7-1.9,4.6-3.4,6.5c-4.4,4-4.5,4-7.1,0c-0.7-2.7,0.8-5.5-0.4-8.1c-0.1-0.4-0.1-0.9-0.1-1.3
		c0.9-1.5-0.3-3,0-4.4c0.4-1.1,1.4-1.5,2.4-1.5c7.2-0.2,13.7-2.9,20.1-6.1c12.6,2.9,25.4,1.1,38.1,1.5c5.9,0.2,11.9-0.1,17.7,1.3
		c15.8,2.6,26.5,15.7,25.2,32.1C572.1,410.9,572.2,414.6,572.1,418.2z"/>
	<path class="st79" d="M477.2,355.3c-0.7-6.7-3.5-8.5-9.6-6c-1.5,0.6-2.9,1.7-4.5,2c-2.9,0.5-6.1-3.6-5-6.5c1.4-3.4,2.4-7.2-0.7-9.7
		c-5.4-4.4-3.3-8.6-0.5-13c0.4-0.7,0.9-1.4,1.4-2.1c3.1,1.9,1.3,6.1,4.4,8.4c1.3,1,1.9,1.9,3.8,2c3.6,0,4.5,1.6,3.5,5.3
		c-0.8,2.9-1.5,4.9,2.8,6.4c3.3,1.2,7.3,3,9.5,6.9c2-1.9,4.1-4.9,5.7,0.3c0.4,1.4,1.5,1.1,2.8,0.4c4.1-2.4,12.4,1.9,13.1,6.6
		c0.3,1.6,0.1,1.8-2.8,2.3c0.1,0.1,0.3,0.2,0.4,0.2c10.2-2.6,16.4,4,22.8,9.9c0.9,0.8,1.8,1.9,2.9,1.6c4.6-1.5,9.6,0.3,14-2
		c1.4,1.6,1.5,4.3,4.1,4.8c-0.7,0.1-1.4,0.1-2.1,0.2c-0.5,0.5-1.1,0.9-1.7,0.9c-14.9-0.1-29.8,1-44.6-0.6
		c-5.3-0.6-10.2-2.3-14.8-5.2C475.7,364.2,475,362.7,477.2,355.3z"/>
	<path class="st80" d="M576.6,462.1c1.1-1.8,0.5-3.9,0.6-5.8c0-1.8-0.3-3.6-0.4-5.7c6.6,2.2,3.2,8.8,6.5,13.5
		c-1.6-8,3.8-5.8,7.6-6.6c-4.8,3.9,0,8.1-0.7,12.3c1.4,0.8,2-2.1,3.6-1.2c1.7,0.9,0.6,2,0.4,3.3c-0.3,2.2,1.6,0.1,2.2,0.7
		c-0.2-2.4,3.8-1.8,2.8-5.1c2.1,2.6,0.8,4.2-0.2,5.9c-0.4,0.7-1,1.5-0.2,2.2c0.7,0.7,1.6,0.4,2.3-0.1c1.1-0.7,2.2-1.9,3.2,0
		c3,5.7,5,2.2,7.2-1.5c0.7,2.6-0.7,5.3,2.4,6.4c0.5,0.2,2,3.8-0.9,4.5c-3.2,0.9-2.5,2.9-1.8,4.9c-9.6,1.6-17.5-0.1-22.7-9.7
		C585,473.9,578.7,469.4,576.6,462.1z"/>
	<path class="st81" d="M477.2,355.3c1.3,2.6-2.7,5.4,0.3,7.9c5.5,4.7,11.6,8.3,19,9.2c12.6,1.5,25.2,0.4,37.8,0.8c3,0.1,6,0.1,9,0.2
		c0.9,1.6,3.1,0.4,4,1.9c-15.4,0-30.8,0-46.2,0.1c-4,0-7.8-1.4-11.7-1.9c-6.5-1.1-11.8-4-15.1-10c1.9-1.9,1-4.3,1-6.5l0.1-0.4
		C475.9,356.1,476.6,355.7,477.2,355.3z"/>
	<path class="st0" d="M576.9,426.2c-0.1,1.3-1.2,1.6-2,2.1c-0.2-9.7-0.3-19.4-0.5-29.1c1.9,7.2,0.3,14.6,0.9,21.9
		C575.4,422.9,574.2,425.2,576.9,426.2z"/>
	<path class="st82" d="M507.2,447.6c9.4,0.7,16.5,5.1,22,12.8c7,9.8,14.6,19.2,22.4,29.5c-20.3,0-39.7,0-59.2,0
		c-3.7,0.3-4.5-4.1-7.8-4.9c-0.1,2,0.5,4.7-2.4,4.4c-2.6-0.2-4.8-2.2-5-4.7c-0.4-4.4-3.8-4.4-5.5-3c-4.3,3.5-8.4,0.6-11.3-0.8
		c-4.7-2.4-9.7-1.8-14.4-3c-2.4-0.6-5.3-2.9-8.4-0.5c-1,0.8-2.4-1.4-3.6-2.2c-1.8-1.2-2.3-3.8-4.9-4.3c-1.1-0.2-1.4-1.8-1-3
		c0.6-1.8,1.9-2.5,3.9-1.8c-1-0.5-1.9-0.3-2.9-0.1c-2.7,0.5-5.7-0.2-7.2-2.1c-1.3-1.7,1.2-3.8,2.2-5.6c0.7-1.3,1.8-2.2,2.9-3.4
		c-2.2,2.3-4.7,2.5-6.3-0.1c-1.6-2.6-2.5-2.8-4.3-0.5c-1.2,1.5-2.8,1.2-3-0.3c-0.7-6.1-5.8-6.2-9.9-7.8c-1-0.4-2.4-0.1-3.2-1.1
		c-1.3-1.4-2.1-0.8-3,0.5c-1.1,1.6-2.9,2.2-4.8,2.2c-0.9,0-1.7-0.3-2-1.1c-0.5-1.2,0.4-1.8,2.2-2.5c-4.7,0.4-8.5,0-12.3-0.9
		c-1.9-0.4-2.6-1.1-2.7-2.8c0-0.5,0-0.9,0.1-1.4c-0.2-1.4,3-3.1-0.4-4.2c-0.2-0.4-0.4-0.8-0.4-1.3c0.6-3.6,4.4-3,7.4-5.8
		c-4.5,2.7-6.7,0.6-8.8-1.8c-2.9-3.5-7.9-5.2-8.7-10.5c-0.4-2.5-2.7-2.8-4.6-3.2c-2.6-0.6-5.1-1.3-7.4-2.7c-2.5-0.5-4.8-1.6-7.4-1.3
		c-1.2-1.5-2.7-2.1-4.7-1.9c-3.5,0.4-7.1,2.1-10.4-0.6c-0.4-0.4-1.1-0.3-1.3,0.1c-2.5,4.2-5.9,2.1-9.4,2.1c-2.9,0-6,1.8-9.4,1
		c-1.7-0.4-3.3-0.8-3.2-3c0.7-2,1.8-3.8,3.3-5.4c8.1-4.9,15.8-10.1,22.7-16.6c0.4-0.4,0.8-0.7,1.2-0.9c10.2-7.3,21.8-8,33.8-7.4
		c5.6,0.3,11.3,0.1,16.9,0c8.4,0,15.6,2.9,21,9.5c7.5,9,15.1,18,22.6,27.1c6.3,7.7,12.9,15.2,19,23.1c6.4,8.1,15.1,11,25,11.2
		c9,0.1,18,0,26.9,0C503.3,446.9,505.3,446.6,507.2,447.6z"/>
	<path class="st83" d="M378.4,440c2.4,2.5,5.3,3.6,8.7,3.4c2.6-0.2,5.3-0.5,7.8,0.8c-0.9,1.9-3.1,0.8-4.2,2.6c4.5,1,5.8-2,7.4-5.6
		c2.6,3.8,6.1,4.6,10,4.6c2.3,0,6,5.5,6.2,9.6c1.6-3.4,4-6.8,6.4-3c2.2,3.5,3.5,3.8,6.4,1.5c0.2-0.2,1.1,0.5,1.7,0.8
		c0.1,0.1-0.1,0.8-0.1,0.8c-4.8,0.5-3.4,6.1-6.5,7.6c3.8,2.9,9.5,0.5,12.9,4.6c-1.8,2-2.4-0.1-3.3-0.6c-1-0.6-1.8-0.8-2.6,0.1
		c-0.6,0.7-0.8,1.5-0.4,2.3c0.4,0.9,1.2,2,2.2,1.1c1.5-1.2,1.9-0.5,2.4,0.8c1.1,3.2,2.2,3.7,5.4,3.1c0.9-0.2,2,0.3,2.8,0.8
		c2.9,2.1,6.6,0.3,9.5,1.9c2.9,1.6,7.3-1.7,9.3,3c0.4,0.8,1.3,0.8,2.1,0c0.4-0.5,0.9-0.8,1.4-1.3c3.1,8,7.3-0.9,10.9,0.7
		c1.7,0.7,3.8,1.9,3.5,3.6c-0.3,2.1-0.4,3.3,1.9,3.2c2-0.1,0.1,4.1,2.9,2.4c2.4-1.5-0.7-3.2,0-4.8c2.7,0.3,6.1-0.7,6.3,3.9
		c0,0.8,2.1,1.4,3.2,2.2c-18.6,0-37.2,0.1-55.7,0.1c-1.8-2.8-3.9-4.5-7.6-4.3c-2.9,0.2-5.1-1.8-6.7-4.5c-3.1-5.4-5-5.9-10.5-3.6
		c-5.8,2.4-8.9,1-10.1-5c-0.4-2.1-1.4-4.1-1.2-6.3c0.2-2.1-0.8-3.6-2.6-4.4c-2-0.9-3.9-0.2-5.5,1.3c-2.2,2-4.2,4.3-6.4,6.3
		c-2.2,2-4.7,3.4-7.7,1.9c-2.7-1.3-3.3-3.9-3.4-6.7c-0.1-7.1,1.4-14.2,1.3-21.3C376.3,442,376.4,440.3,378.4,440z"/>
	<path class="st84" d="M551.2,469.3c0.6-1.4,2.3-1.7,3-3.2c0.8-1.5,2.5-2.1,4.3-0.7c3.2,2.6,6.6,5,9.9,7.5c0.5,0.4,1.3,1.2,1.2,1.5
		c-1.8,3.9,2.1,4,3.6,5.8l0,0c-0.1,3.9,3.4,6.3,4,9.8c-6.6,0-13.3,0-19.9,0.2c-2.3,0.1-3.6-0.9-4.9-2.6c-7.6-10-15.3-19.9-22.8-30
		c-5.6-7.5-13-11.5-22.3-11.9c-0.1-0.2-0.3-0.4-0.4-0.6c-0.1-0.5,0-0.9,0.1-1.4c2.2-5.5,3.9-11.1,3.9-17.1c0.2-0.2,0.3-0.3,0.5-0.5
		c1.3,0.5,1.5,5.3,4.3,1.1c0.2-0.3,2.9,0,4.4,1.2c2.2,1.8,4.9,3,7.5,4.3c0.9,0.4,1.5,0.7,1.4,1.6c-0.4,6.1,4.3,7.4,8.7,9
		c0.1,2-2.6,2.4-2.6,4.4c1.5,0.2,2.5-0.7,3.3-1.7c1-1.3,2.4-3,4-1.8c1.5,1.1,1.2,3.9,0.3,4.9c-2.7,2.9-0.5,3.8,1.4,5.5
		c2.8,2.5,4.3,5.7,3.2,9.6c-0.2,0.1-0.3,0.2-0.5,0.1c-0.1,0-0.3-0.1-0.4-0.2C547.6,466.2,548.1,468.9,551.2,469.3z"/>
	<path class="st85" d="M378.4,440c-0.7,8.1-1.4,16.2-2.1,24.3c-0.2,2.6,0.1,5.3,2.6,6.5c2.6,1.2,4.7-0.6,6.6-2.3
		c2.5-2.2,4.7-4.8,7.3-6.7c4.1-2.9,7.8-1.2,8.7,3.8c0.5,2.6,0.8,5.3,1.4,7.8c1,4,3.2,5.5,7.4,3.8c7.6-3.1,8.6-2.7,13.3,4.2
		c1.6,2.3,3.7,3.7,6.7,3.4c3.9-0.4,5.9,1.5,6.3,5.3c-0.7,0-1.5-0.1-2.2-0.1c-0.3-2.9-2.4-3.1-4.7-3c-3.5,0.2-5.9-1.6-7.8-4.4
		c-4-6-5.5-6.4-11.8-2.6c-6.7,0.2-8.5-1.6-9.9-8.2c-0.6-3,0.9-7.5-3-8.7c-3.9-1.2-5.9,2.9-8.3,5.2c-3.7,3.6-7.4,6.8-13,3.7
		c-4.9-4-3.7-9.3-3-14.4c0.9-5.9,1.6-11.8,1.2-17.7c-0.1-1.8,0-3.9-2.2-4.6c-1.9-0.6-3,0.9-4.2,2c-4.3,4.2-7.1,9.5-10.4,14.4
		c-2.1,3.2-4.2,6.3-6.7,9.2c-2.5,3-5.5,5.6-9.7,4.9c-4.2-0.7-6-4.3-7.3-7.9c-1.1-3.1-1.3-6.4-2-9.6c0.5-6-1.5-11.6-3.7-17
		c0.2-0.9,0.7-1.3,1.6-1.5c5.4,2.3,5,7.5,6.1,11.9c0.5,4.8,1,9.6,2.3,14.2c1.7,6,4.3,6.7,8.6,2.2c5.3-5.6,8.9-12.4,13-18.8
		c2.1-2.9,4.3-5.8,7.4-7.8c4.4-2.8,7.8-1.8,10.4,2.9c-0.1,0.3,0,0.5,0.2,0.7c1.5,1.2,0.1,2.9,0.8,4.3
		C378.2,439.6,378.2,439.8,378.4,440z"/>
	<path class="st86" d="M507.2,447.6c-13.3,0.4-26.5,0.8-39.7-0.2c-6.9-0.6-12.7-3.8-17.2-9c-7.1-8.3-13.9-16.8-20.8-25.2
		c-0.2-1.5,0.8-1.4,1.8-1.4c0.7,0.2,1.3,0.6,1.8,1.1c5.3,5.8,10.1,12,15.3,17.9c4.9,6.2,10,12,18.5,12.9c10.9,0.4,21.9,0.1,32.8,0.1
		c2.5,0,5-0.4,7.3,1c0.1,0.3,0.2,0.6,0.3,1C507.3,446.3,507.2,447,507.2,447.6z"/>
	<path class="st87" d="M361.5,30.2c0.2,6.6,0.2,6.6-7.2,6.6c-5.8,0-11.6,0.1-17.4,0.1c-0.5-6.7-0.5-6.7,8.6-7
		C350.9,29.5,356.2,28.9,361.5,30.2z"/>
	<path class="st88" d="M367.6,27.9c-5.6-0.1-11.2-0.1-16.8-0.2c-2.4-2-0.7-4.2-0.2-6.3c0.8-1.5,1.7-2.9,3.2-3.7
		c4.5-2.1,8.4-1.1,12.5,3.2C367.7,23.1,369.1,25.2,367.6,27.9z"/>
	<path class="st89" d="M351.5,21c0.1,2.3-1.5,4.3-0.6,6.7c-3.9,0-7.9,0-12.2,0c1-3.1,4.2-4.6,5-7.6c4-2.8,6-7.3,9.2-10.9
		c1.2-1.3,2.4-2.7,3.6-4c1.9,2.7,0,5.1-0.8,7.4C354.6,15.6,353.3,18.4,351.5,21z"/>
	<path class="st90" d="M363.4,6.9c5.2,6.5,10.3,12.9,15.4,19.4c0.2,0.2,0.1,0.6,0.2,1.4c-3.2-0.1-6.4,0.9-9.6-0.6
		c-3-5.1-5.6-10.4-7.1-16.1C361.9,9.6,360.8,7.6,363.4,6.9z"/>
	<path class="st91" d="M365.4,21c-3.3-2.4-6.8-4-11-3.4c-0.4-4.4,1.7-8.1,3.8-11.7c0.2-0.6,0.6-1.6,0.7-1.6c1.4,0.3,1.4,1.7,1.9,2.7
		C362.8,11.5,365.5,15.8,365.4,21z"/>
	<path class="st1" d="M361.5,30.2c-5.3-0.1-10.7-0.2-16-0.3c2.2-1.7,4.8-0.8,7.2-0.8c7.9-0.1,15.8-0.1,23.7,0c1.7,0,3.7-0.8,5,1.1
		C374.8,30.2,368.2,30.2,361.5,30.2z"/>
	<path class="st92" d="M365.4,21c-1.6-4.7-3.1-9.3-4.7-14c0.8-0.8,1.6-2.9,2.6-0.1c-1.2,4.2,1.9,7.3,2.8,10.9
		c0.8,3.2,2.2,6.2,3.3,9.3c-0.6,0.3-1.2,0.6-1.8,0.8C367.6,25.4,366.6,23.2,365.4,21z"/>
	<path class="st93" d="M358.2,6c-1.3,3.9-2.6,7.8-3.8,11.7c-1.4,0.8-0.6,3.4-2.9,3.4c1.1-5.5,4.3-10.3,5-15.9
		C357.9,3.7,357.5,5.9,358.2,6z"/>
	<path class="st94" d="M205.7,320.3c10.7-10.4,21.4-20.7,32.9-30.2c-0.9,2.5-2.2,5-0.8,7.8c1,2.1,3.8,1.9,4,1.1
		c0.9-3.7,3.3-1.7,4.8-1.5c4.3,0.6,7.9,0.5,9.7-4.6c1.3-3.7,3.9-4.2,6.7-1.2c1.6,1.7,3.1,1.9,5.3,1.1c5.8-2,11.5-4.5,17.7-4.9
		c1.6-0.1,1.9,2.4,2.4,3.9c0.8,2.2-1.1,3.5-2.1,4.8c-0.4,0.5-3,0.1-1.7-2.5c0.5-1.1-1.2-0.6-1.7-0.3c-1.9,1-3.7,2.2-5.5,3.4
		c-0.8,0.5-2,1.7-2.5,1.4c-5.1-2.2-8.3,3.9-13,2.8c-0.4-0.1-1,0.2-1.4,0.3c0.7,1.2-5.4,1.1-0.6,3.2c-0.4,0.5-0.8,1-1.2,1.5
		c-2.5,1.3-4.5-1.4-6.8-0.8c-0.7,0-1.5-0.1-2.2-0.2c-0.8-0.2-1.4-0.6-1.9-1.1c-1.5,0.1-1.4,1.4-2.1,2.3c-1.2,1.7-2.2,3.8-5.5,2.9
		c-3.6-1-6.9-0.5-8.5,4.3c-1.7,4.8-2.5-0.8-4.4-0.9c-0.9,2.5-1.2,5.5-5.6,2c-2-1.6-7.2,0.7-9.7,4.2
		C210.2,321.5,208.4,324.1,205.7,320.3z"/>
	<path class="st95" d="M252.2,277.4c8.7-8.1,15.9-18.1,28.3-21.3c1.3-0.3,2.6-0.4,3.9-0.7c6.3,0.1,12.6,0.2,18.9,0.1
		c2.8-0.1,4.8,0.6,5.7,4c-2.5-0.3-6.1,4.8-6.6-2.4c-1.3,3.5-3.4,3.9-7.2,4.5c-1.5,0.2-4.6,2.1-5.8,2.1c-4.1,0-3,9.2-9,4.8
		c-0.3-0.2-1.6,1.6-2.6,2.5c-1,0.9,1,2.5,0.2,4.4c-0.9,2-3.2-2.2-3,1.1c0.1,1.5-1.4,1.9-2.4,1.6c-1-0.4,0.7-1.8-0.5-2.7
		c-3,3.8-6.8,3.5-11.4,1.6c0.9,2.1,2.3,4.1,0.1,6.3c-0.7-1.6,0.5-3.7-1.8-4.8c-0.8,1-1.9,2.2-3,3.5
		C254.1,280.8,254.4,278.1,252.2,277.4z"/>
	<path class="st96" d="M289.6,311.5c1.7,1.7,5.1,1.3,5.8,4.4c-2.6,1.4-4.4-0.5-6.4-1.5c-1.8-0.8-3.7-2.5-5.5-0.9
		c-1.7,1.5,0.1,3.4,0.7,5c0.4,1.2,1.1,2.4,1.3,3.8c0.3,3.3-1.9,5.9-5.1,6.2c-4.8,0.3-12.6-6.3-13.2-11.3c0.2-0.2,0.3-0.4,0.5-0.6
		c3.1,1.8,5.7,4.3,8.3,6.7c1.5,1.4,3.7,2.6,5.2,1.5c1.6-1.1,0.5-3.3-0.4-4.9c-0.4-0.7-0.7-1.5-1.1-2.2c-1.1-2.4-1.6-4.8,0.4-6.9
		c2-2.1,4.5-1.4,6.9-0.5C287.9,310.4,288.7,311,289.6,311.5z"/>
	<path class="st97" d="M251.5,304.5c3-1.4,4.6,1.8,7.2,2c1.1,1.3,2.1,2.6,3.2,3.8c0.4,0.6,0.5,1.3,0.2,2
		C257.3,311.3,254.2,308.1,251.5,304.5z"/>
	<path class="st98" d="M261.5,312.5c0.1-0.7,0.2-1.4,0.3-2.2c2.1,1.9,4.6,3.4,5.8,6.1c0,0,0,0.1,0,0.1c-0.4,0.5-0.6,1.2-1.5,1.2
		C263.7,316.8,261.7,315.4,261.5,312.5z"/>
	<path class="st99" d="M253.8,356.3c0.1-0.7,1-1.5-0.2-2c-1.3-2.5-2.7-4.9-3.7-7.4c-0.7-1.8-1-4,0.8-5.5c1.7-1.5,3.7-1.2,5.6-0.5
		c1.7,0.6,3.4,1.2,5.1,1.9c1.5,0.6,3.1,1.5,4.6,0c1.7-1.8,0.3-3.5-0.5-5c-2.9-5.5-6.5-10.7-10.6-15.4c-1.7-2.7-3.4-5.4-5.1-8.1
		c-0.6-1.1-0.3-1.9,0.9-2.2c4.4,2.6,6.2,7.4,9.3,11c3.3,4.3,6.8,8.6,9,13.7c1.2,2.9,1.9,5.8-0.5,8.4c-2.4,2.6-5.3,1.8-8.4,1
		c-2-0.5-4.2-3.8-6.3-0.7c-1,1.5,3.3,6.7,5.9,7.2c3,0.6,6,0.1,9,0.2c6.1,0,12.3-0.4,18.4,0.4c2.3,0.3,4.2,1.1,1.5,3.6
		c-8.2,1.6-16.4,0.5-24.6,0.7C260.4,357.7,256.8,358.8,253.8,356.3z"/>
	<path class="st100" d="M250.4,312.2c-0.3,0.7-0.5,1.4-0.8,2.2c-2.8-2.9-3.5-6.2-2-9.9c0.8,0,1.6,0,2.4,0
		C250,307.1,252.3,309.5,250.4,312.2z"/>
	<path class="st101" d="M267.7,354.2c-1.8,0.1-3.6,0.2-5.5,0.2c-5.1,0-9.5-3.5-10.4-8.3c-0.5-2.7,0.2-4.4,3.4-3.2
		c2.2,0.8,4.3,1.7,6.4,2.6c2.1,0.8,4.2,1.2,6-0.7c1.7-1.8,1.3-4,0.6-6.1c-2.1-5.6-6.2-10.1-9.4-15.1c0.5-1.9-3-3.3-0.9-5.2
		c2.6-2.3,5.5-2.7,8.6-0.8c0.3-0.3,0.7-0.7,1-1c1,4.3,8.7,11,12.7,11c3.7,0,4.5-2.4,3.8-5.4c-0.4-1.9-1.8-3.6-2.3-5.5
		c-0.4-1.5-1.9-3.4-0.5-4.6c1.5-1.3,3.9-1.1,5.6-0.1c2.7,1.6,5.5,2.6,8.4,3.8c2.7,1.8,5.4,3.6,8.1,5.4c1,1,0.4,1.9-0.3,2.5
		c-3.3,3.1-4.4,7.4-6.1,11.4c-4.7,0-4.5-4.1-6-6.4c0.3-1.2-0.8-0.5-0.1-0.7c0.2,0,0.1,0.1,0.1,0.4c0.2,1.3-0.4,2.7-1.5,2.8
		c-5.3,0.2-6.5,6.3-11,7.7c-1.3,0.4-2.2,2.2-2.3,3.7c-0.1,3.2-1.2,5.4-4.5,6.2c-1.1,0.3-1.2,1-0.9,1.9
		C272.1,354.2,269.2,353.5,267.7,354.2z"/>
	<path class="st14" d="M296.3,335.4c0.7-5.6,3.8-9.9,7.2-14.1c7.1-4.3,15-5.3,23-4.4c5.6,0.6,6.6-1.6,5.7-6.2c0.9,0.3,1.5,1,1.3,1.9
		c-1.1,6.1,2.6,6.1,7,6c14.6-0.3,29.2,0.4,43.7-0.4c0.8,0,1.1,0.4,1.3,1.1c-2.1,2.4-4.9,1.7-7.5,1.7c-19.8,0.1-39.6,0-59.4,0.1
		c-9.9,0.1-16.6,5-18.4,13.6c-0.8,3.8,0.1,7.6-0.2,11.4c-0.1,2.6,0.2,5.3-0.5,7.9c-0.7,1.3-1.1,3-3.2,2.3c-0.6-0.7-0.9-1.6-1-2.5
		C295.5,347.6,294,341.4,296.3,335.4z"/>
	<path class="st11" d="M234.3,338.8c-1.1,0.4-0.5,2.4-1.9,2.3c-0.9,0-1.2-0.9-1.1-1.8c0.1-1,0.1-2,1.5-1.8
		C233.6,337.5,234.5,337.5,234.3,338.8z"/>
	<path class="st102" d="M337.5,155.8c5.9,0,11.8,0,18.1,0c-4.4,5.8-8.8,10.5-16.7,9.1c-3.1-0.5-6.3-0.2-9.4-0.3
		c-1.4-4.5,1.5-6.4,4.9-7.7C335.4,156.4,336.7,157,337.5,155.8z"/>
	<path class="st103" d="M356.5,295.5c-0.4,0-0.7,0-1.1,0c-1.7,0-3.1,0.9-4.6,1.7c-3.5,1.9-5.3,1.1-6.6-2.8c-0.9-2.7-0.8-5.5-1.4-8.3
		c-0.5-2.5-1.9-4.5-3.4-6.5c-1.1-2.1-3-1.2-4.6-1.2c0-4-0.1-7.9-0.1-11.9c1,4.6,4.3,5.9,8.5,7.4c2.5,0.9,5.5,4.1,8.1,6.7
		c3.4,3.5,4.9,3.1,7.2-1.1c0.3,0,0.7,0.1,1,0.1c-1.4,2.7-1.1,5.4-0.3,8.2C360,290.9,359.9,293.8,356.5,295.5z"/>
	<path class="st104" d="M345.5,166.5c-7.7,7.7-16.7,13.3-12.4,25.5c-0.5,0.1-0.9,0.1-1.4,0.2c-3.8-3.7-7.6-7.4-11.3-11.2
		c-1.1-1.1,0.1-1.7,0.8-2.4c3.4-3.4,6.6-7,10.2-10.2C335.2,165,339.9,167.9,345.5,166.5z"/>
	<path class="st105" d="M297.8,178.5c0,0,0-0.5,0-0.5c1.9-0.8,3.5-2.1,4.6-3.7c5.2-8.3,13.3-8,21.5-7.3c1.1,0.1,2.6,0.4,3.1,1.2
		c0.8,1.3-1.1,1.7-1.6,2.6C318.5,181.9,307.7,178.7,297.8,178.5z"/>
	<path class="st106" d="M541.2,368.4c-2,2.9-5.6,3.6-9,2.3c-1.8-0.7-3,2-5.4,1.2c-1.3-0.4-2-0.4-3.2-1.7c-3.6-3.8-7.6-7.4-12-10
		c-3.3-1.9-7.6,0.7-11.5-0.6c-0.7-0.3-1.7,0.2-1.5-1.1c0.1-0.9,0.8-0.9,1.5-0.7c1,0.2,2.4,1.2,2.8-0.6c0.1-0.8-0.6-2.1-1.3-2.5
		c-1.6-0.9-2.3-2.6-4.1-3.5c-3.3-1.7-6-3-7.8,1.8c-1.7-2-5.3-2.2-4.4-6c-0.6,1-1.2,1.9-1.7,2.9c-0.8,1.6-2.6,0.9-2.9,0.4
		c-3-5.5-8.3-7.1-13.6-8.5c0.2-1.4,1-0.8,1.5-0.9c-2.3-2.9,0.6-5.3,0.5-7.9c-0.1-2-2.7-1.9-3.6-1.1c-2.9,2.5-3.1,0-3.7-1.8
		c-0.4-1,0.7-3-1.8-2.3c-1.8,0.4-1.6-0.9-1.2-1.7c1.2-2.1-0.3-3.8-0.5-5.7c1-2.1,2.1-4.1,2.9-6.3c0.6-1.6,0.1-3.3-1.3-4.5
		c-1.5-1.3-3-1.2-4.6-0.3c-2.1,1.3-4.2,2.6-6.4,3.7c-2.2,1.1-4.5,4.1-7,2.3c-3.2-2.4-0.3-5.5,0.7-8.1c1.2-3.4,3.1-6.6,3-10.4
		c0.1-0.4,0.3-0.6,0.8-0.6c2.4-1.1,1.6-4.1,3.4-5.6c2.9,0.7,4.4,2.1,3.1,5.3c-0.9,2.3-1.7,4.8,0.5,6.9c2.3,2.2,4.6,0.3,6.9-0.1
		c1.1,0.3,2.2,0.8,2.8,1.9c4.1,6.9,9.9,11.9,17.1,15.4c0.5,0.7,1.1,1.7,0.7,2.3c-2,2.9-2.4,5.7-0.9,9c0.9,2-1.3,2.7-2.9,3.2
		c4.7,1.9,6.2,1.5,10.3-3c0.8-0.9,1.5-1.7,2.4-2.5c1.9-1.7,3.9-3.4,5.7,0.1c2-1.9,0.1-4.1,1.1-5.9c9.4,0.1,17.9,2.1,23.4,10.9
		c4.2,6.7,8.3,13.5,12.5,20.3c1,1.6,1.6,3.7,3.9,4.3C537.3,362.1,540.5,364.6,541.2,368.4z"/>
	<path class="st107" d="M479.4,320.3c-8.9-3.2-14-10.5-19.2-17.7c0.8-0.7,1.5-1.4,2.3-2c4,8.9,10,15.7,20,17.9
		c8.1,1.8,16.2,3.2,24.3,4.8c6.4,1.2,11.1,4.8,14.4,10.3c5.1,8.3,10.1,16.6,15.1,25c-1.6,2.1-2.2,0.1-2.7-0.8
		c-3.7-5.7-7.9-11.1-10.8-17.2c-5.4-11.5-14.4-16.3-26.5-16.9C490.3,324.5,484.7,323.2,479.4,320.3z"/>
	<path class="st108" d="M599.2,439.5c-2.9,0.2-5.4,4.2-8.5,1c-2.9-3-1.4-6.5-0.5-9.8c0.6-2.1,1.4-4.1,1.9-6.1
		c0.4-1.4,0.8-3.1-0.6-4.2c-1.3-1-2.9-0.4-4.2,0.3c-2.4,1.4-4.7,3-7.1,4.5c-0.6,0.4-1.6,1.7-2.1-0.2c3.6-3.4,6.9-7.1,12.5-6.9
		c2.5,0.1,3.5,1.1,3.6,3.6c0.2,4.2-1.7,8-2.6,11.9c-0.4,1.8-1.2,3.6,0.4,5c1.8,1.6,3.4,0,5-0.8c1.4-0.7,2.8-1.6,4.1-2.4
		c0.5,0.6,0.7,1.2,0.6,2C601.3,438.6,600.6,439.5,599.2,439.5z"/>
	<path class="st109" d="M519.5,324.2c2,0.4,3.1,1.9,4.1,3.4c4.7,6.9,8.9,14.1,12.2,21.8c-6.3-7.8-9.6-17.5-16.8-24.7
		C518.8,324.3,519,324.1,519.5,324.2z"/>
	<path class="st110" d="M619.1,422.2c0.3,0.3,0.5,0.7,0.8,1c-1.2,4.4-5.1,5.6-8.5,7.4c-1-0.1-1.9-0.5-2.4-1.5
		C611.8,425.9,615.3,423.8,619.1,422.2z"/>
	<path class="st111" d="M502.4,317.5c6.1,1.2,12.6,1.4,17.1,6.7c-0.2,0.2-0.3,0.4-0.5,0.6c-5-3.6-10.9-4.8-16.8-6.1
		c-0.3-0.3-0.3-0.6-0.2-0.8C502.1,317.6,502.2,317.5,502.4,317.5z"/>
	<path class="st112" d="M609.1,429.2c0.7,0.2,1.6,0,2,1c-1.6,2.9-4.6,4.4-6.7,6.8c-1,0.6-2.1,1.4-3.2,0.2c0-0.5,0-1.1,0-1.6
		C603.6,433,605.7,430.3,609.1,429.2z"/>
	<path class="st0" d="M533.1,330.3c-0.6,1.4-1.3,2.7-2.5,2.4c-1.5-0.3-2.4-1.7-2.3-3.4c0-1.2,0.5-2.7,1.8-2.4
		C531.9,327.3,532.3,329.2,533.1,330.3z"/>
	<path class="st113" d="M502.4,317.5c-0.1,0.4-0.1,0.8-0.2,1.1c-2.8,1.6-4.8-0.6-7.8-1.4C497.7,315.3,499.9,317.8,502.4,317.5z"/>
	<path class="st114" d="M426.4,257.7c-6.5-9.1-12.4-18.9-22.9-24.2c6-0.6,9.7,3.2,12.9,7.2c7.2,9.3,14.2,18.9,21.2,28.3
		c0.7,1,1.6,1.6,2.9,1.6c-0.1,1.8-1.7,2-2.8,2.9C433.3,268.7,428.9,263.9,426.4,257.7z"/>
	<path class="st114" d="M403.6,233.6c-2.8,0.3-5.7,1-7.9-1.7C398.5,231.7,401.5,230.6,403.6,233.6z"/>
	<path class="st115" d="M446.3,296.5c-0.3,0-0.5,0.1-0.8,0.2c-2.3-4.5-5.6-4.7-9.9-2.7c-8,3.7-14.4,9.6-21.5,14.5
		c-1.6-0.2-1.3-1.8-1.8-2.6c-1.6-2.5-2.7-3.7-6.6-2.9c-3.5,0.8-7.9-0.7-11.6-2c-2.4-0.8-3.4-0.8-4.3,1.8c-1.8,5-1.4,9.5,1.8,13.7
		c-4.2,1.1-5.4-0.5-5.3-4.7c0.3-7.8,0-15.6,0-23.4c0-2-0.3-4,1.1-5.7c0,0,0.2-0.1,0.2-0.1c3.9-1.8,5.8-6.5,10.4-7.2
		c4,0.6,7.9,1.3,9.6,5.7c-0.5,1.6-1.2,3.1-1.6,4.7c-0.7,2.7-1.7,5.7,1.1,7.8c2.6,1.9,5.5,1.2,8.2-0.3c6.2-3.5,11.6-8.2,17.2-12.6
		c1.3-1,2.6-2,4-2.9c3.9,1.3,8.9-0.7,11.8,4.3c0.9,1.6,1.6,3,2.1,4.7c-0.3,0.9-0.5,1.9-0.8,2.8C448.4,291.9,448.6,294.7,446.3,296.5
		z"/>
	<path class="st41" d="M426.4,257.7c3.9,5.2,8.5,9.9,11.3,15.8c-6.9,5.3-13.8,10.7-20.7,16c-1.2,0.9-2.5,1.6-3.8,2.3
		c-1.5,0.8-3.2,1.1-4.7,0c-1.8-1.4-1.3-3.3-0.6-5c1.3-3.2,2.9-6.3,4.4-9.4c1.3-2.9,2.6-5.7,1.5-9c2.4-1.3,3.7-4,7.4-3.9
		C422.8,264.6,424.6,260.1,426.4,257.7z"/>
	<path class="st116" d="M450.2,286.6c-2.2-0.5-1.3-3.6-3.7-4.3c-1.5-0.5-1.2-5.7-4.7-1.6c-0.2,0.3-3.6-2.1-5.5-3.2
		c3.3-3,6.8-5.6,11-7.4c5-2.1,7.8-0.1,7,5.3C453.7,279.4,452.8,283.4,450.2,286.6z"/>
	<path class="st117" d="M469.3,286.1c0.1,5-8.6,14.9-12.5,15.3c-2.6,0.3-2.9-1.5-2.4-3.2c1.7-5.9,5-10.8,10.5-13.8
		C467.4,283.1,468.9,284.4,469.3,286.1z"/>
	<path class="st118" d="M407.5,281c-2.9-2.7-6.2-4.6-10.3-4.5c-0.1-3,2.5-3.1,4.3-3.9c2.2-1.1,4.3-2.4,6.5-3.4
		c3.1-1.4,4.5-0.1,3.7,3.1C410.8,275.4,409.6,278.4,407.5,281z"/>
	<path class="st119" d="M401.5,272.6c-1.4,1.3-2.9,2.6-4.3,3.9c-3.9,1-5.3,5.9-9.7,6.1c2.9-4.8,7.6-7.6,12-10.9
		C400.1,272,400.8,272.3,401.5,272.6z"/>
	<path class="st120" d="M446.3,296.5c0.6-2.5,1.5-4.9,3.1-7c0.1,0.4,0.2,0.7,0.3,1.1c1,3-1.5,4.9-2.6,7.1
		C446.9,298.1,446.5,297,446.3,296.5z"/>
	<path class="st121" d="M604.1,436.2c1.9-2.5,4.3-4.5,7-6.1c3-2.3,5.9-4.6,8.9-6.9c2-0.6,4-1.4,6.1-1.9c3.4-0.9,5.4,1,4.4,4.4
		c-0.8,2.6-2.1,5.1-3.1,7.6c-3.1,4.6-6.2,9.2-9.3,13.8c-1.8-0.1-1.5-1.3-1.4-2.5c0.6-3.6,0.7-3.6-1.4-6.6c-0.9,2-2.8,3.9-4.1,1.7
		C609.3,436.8,606.6,436.9,604.1,436.2z"/>
	<path class="st122" d="M604.1,436.2c2.8-0.1,6.9-3.3,7.1,2.9c0,0.3,1.1,0.8,1.7,0.8c1.3-0.1,0.9-1,0.7-1.8c-0.4-1.1,0-2,1.1-2.3
		c1.3-0.4,1.4,1.1,2,1.7c3.5,2.9,1.3,6.5,1.3,9.8c-1.2,2.7-2.6,5.3-4.8,7.3c0.4-1.6-1.2-3.6,1-4.8c0.5-0.3,0.6-1.1,0.3-1.1
		c-5.1-0.1-5.2-5.9-8.8-7.8c-2.1-1.1-4.4-0.5-6.4-1.4c0.7-0.8,1.3-1.6,2-2.4C602.2,436.8,603.1,436.5,604.1,436.2z"/>
	<path class="st123" d="M368.5,109.6c-4.2-1.1-7.5-3.6-10.4-6.4C362.1,104.5,365.5,106.9,368.5,109.6z"/>
	<path class="st124" d="M358.5,83.8c2.5,1.6,5.1,3.3,7.6,4.9c-0.3,0.4-0.5,0.9-0.8,1.3C363.2,87.5,359.8,87.3,358.5,83.8z"/>
	<path class="st125" d="M298.4,354.4c0.1-2.7,0.2-5.4,0.3-8c2.1-1.5,3,1.1,4.7,1.5c-1.2-3.5,0.7-5.5,3.6-6.4c3-0.9,1.5,2.2,2.5,3.2
		c-0.2-3.9-2.2-8.4,3.3-10.5c3.1-1.2,4.2,1.3,5.4,3c-1.1-3.8,0.6-6.4,5.2-7.6c2.6-0.7,5.2-0.7,7.9-1c2.2-0.2,4.1-0.8,6.1-1.7
		c1.9-0.9,5-4.7,5.7,1.3c0.1,1.2,1.9,1.3,2.4,0.5c1.1-1.7,4.7-0.5,4.1-4.3c-0.3-1.9,4.5-2.6,6.2-0.5c3.8,4.6,8,2.7,12.1,1.3
		c1.8-0.6,3.2-2,4.5,0.5c0.5,1,1.4,0.4,2.2,0.3c4.6-0.7,9.2-1.1,13.6,1.2c0.6,0.3,1.4,0.4,1.9-0.1c3.6-3.8,5.4-0.7,7.9,1.7
		c4.9,4.6,10.6,6.9,17.4,4.6c1.4-0.5,2.5-0.2,3.7,0.7c0.2,0.2,0.8,2.3,1.3,0.2c0.3-1.1,2.5-0.9,1.7-2.2c-2.8-4.4,1.2-4.4,3.4-5.7
		c14.5,11.1,29.1,22.2,43.6,33.2c1.7,1.3,3.5,2.5,5.2,3.7c4.4,4.3,9.7,7.2,15.1,10c-3.9,4.5-9.1,6-14.7,5.5
		c-2.1-0.2-3.4,1.1-5.2,1.4c-5.5,1.2-8.3,5-10.7,9.8c-1.8,3.7-2.4,8.2-6.3,10.8c-6.6-1.2-12.8-4.6-19.9-3.2
		c-1.6,0.3-2.4-0.9-2.4-2.5c0-1.5-0.3-2.7-2.2-2.4c-0.9,0.1-2.2,0.4-2.5-0.9c-0.3-1.1,0.7-1.7,1.4-2.4c1-0.9,2.4-1.1,3.7-2.6
		c-2.4-0.3-5.5,0.3-5.1-3.5c0.1-1.2-1.3-1.3-2.2-1.7c-1.3-0.5-2.6-1.2-2.4-2.8c0.4-3.4-2-4.7-4.3-5.2c-4.4-1-6.4-3-4.3-7.9
		c-3,2.5-5,1.6-6.8-0.9c-0.2,1.5,2,3.6-0.6,4.5c-2,0.7-4,0.3-5-2c-0.8-1.9-3.7-1.8-3.9-4.2c-0.7,0.5,0,1.1,0,1.7
		c0,0.9-0.3,1.6-1.2,1.9c-0.8,0.3-1.7,0.2-2.4-0.2c-2.4-1.5-4.4-0.2-6.5,0.6c-6.3,2.3-6.7,2-6.6-4.4c-1.3,5.4-3,6.6-8.6,5.8
		c-1.5-0.2-2.1,0.8-2.9,1.4c-1.1,0.9-2.3,1.4-3.6,0.4c-1.1-0.9-1.2-2.6-0.7-3.2c3.2-3.4,1.9-5.9-1.3-8.2c-0.4-0.3-0.4-1.1-0.3-0.4
		c1.8,2.2,2.2,6,1.1,9.7c-0.5,1.7-1.4,4.8-3.4,3.9c-2.3-1-7.4,1.9-6.5-4.2c-2,1.8-1.4,6.2-5,5.3c-3.1-0.7-1.5-3.3-0.9-5.2
		c-1.4,1.7-11.3,5.1-13.1,4.4c-1.6-0.6-2.3-2.2-2-3.6c0.5-1.9-0.4-3.2-1.1-4.8c1.1,2.4,1.6,4.7-0.9,6.3c-1.5,0.9-1.9,2.7-2,3.8
		c-0.5,5.8-6,7.2-9,10.7c-1.6,1.8-2.9,1-3.6-1.1c0.6-1,0.9-2.1,1-3.2c-0.2,0.9-0.4,1.8-0.7,2.7c-1.5,4.9-8,8.2-14.6,7.4
		c-1.9,1.1-5.1,0.4-5.8,2.2c-1,2.4,3.1,2.4,3.7,4.5c0.1,0.3,0.2,0.6,0.3,0.9c-0.5,2.9-1.7,4.6-4.8,2.4c-0.9-0.6-1.8-0.3-2.8-0.3
		c-2.2-0.5-3.8-0.4-2.2,2.5c0.5,6.1,0.1,6.5-5.2,4.7c-1.1-1-2.1-2.1-3.1-3.3c-2.3-2.6-3.5-5.2-1.3-8.5c0.8-1.1,0.7-2.5,1-3.8
		c0.8-2,2.1-3.4,4.4-3.4c1.5,0.2,2.2,1.3,2.8,2.6c0.3-0.6,0.1,0.4,0.3,0c2.1-5.1,5.7-7.4,11.3-6.6c4,0.6,8.5-2.3,10.1-5.8
		c1-2.1,1.5-4.4,2.7-6.4c1.8-3,0.3-4.2-2.5-3.3c-3.8,1.2-7.1-0.7-10.7-1.1c-0.9-0.1-1.3-0.9-1.6-1.7
		C296.9,362.2,297.1,358.3,298.4,354.4z"/>
	<path class="st126" d="M425.4,326.5c-2.3,2.3-5.2,4.5,0,7.7c-4.8-1.4-4.9,0.4-3.2,3.4c-1.9,0.4-2.4-1-3.2-2
		c-0.7-0.9-1.5-2.2-2.8-1.3c-7,4.3-12.3-0.1-17.8-3.4c-1.2-0.7-2-2.1-3.1-3.2c-0.5-0.5-1.2-2.1-1.7-1.5c-5,6.5-10.7-2.1-15.8,0.9
		c-0.9,0.5-2.2-1-3.3,0c-3.2,2.7-3.8,0.8-3.1-3.1c-5.2,5.5-10.7,4-16,3.2c-0.9-0.1-1.7-0.5-0.4-1.9c1.4-1.5-0.8-0.8-1.2-1.2
		c-1.1-0.9-2.5-1-3.5,0.4c-0.7,0.9-0.3,1.3,0.8,1.6c2.9,0.7,0.3,1.7,0,2.5c-2.7-2.2-3.6,1.1-5.3,1.8c-3.1,1.3-4.5-0.1-4-5.2
		c-4.1,5.3-9.9,4.7-14.9,5.3c-6.5,0.8-7.2,0.8-7.5,6.9c0,0.7-0.7,1.4-1.3,2.6c-0.6-2.8-1.4-4.9-3.7-5.3c-1.6-0.2-3.1,1.1-4.1,2.5
		c-1.5,2.2,2.1,4.1,0.4,6.3c3,2.2-0.4,2.2-0.9,3.3c-2-1.3-0.5-3.3-1.5-4.7c-3.4,1.5-3.4,1.5-2.3,5.2c0.3,0.8-0.3,1.2-0.7,1.7
		c-0.9,1-1.8,0.7-2.7,0.1c-1.3-0.9-1.7-3-3.8-2.9c0.3-4.7-1.2-9.4,0.7-14c3.7-9.1,9.2-13,18.9-13c22.4-0.1,44.8-0.1,67.2-0.1
		c7,0,13.9,0,20.9,0.1C413.6,319.3,420.1,321.5,425.4,326.5z"/>
	<path class="st127" d="M438.4,315.4c2.4,3.2,5.3,3,8.3,1.2c2.9-1.6,5.6-3.5,8.6-5c0.9-0.5,2-1.4,3.2-0.3c1.2,1.1,0.4,2.2-0.1,3.2
		c-1.8,3.7-3.8,7.3-5.7,11c-1.8,3.5-1.6,6.6,1.4,9.4c1.2,1.1,2.2,2.6,2.8,4.1c0.8,2.2-0.2,4.5-1.8,5.8c-1.2,0.9-2.5-0.9-3.6-1.8
		c-7.4-5.6-15-11-22.1-16.9c-6.5-5.4-13.8-8.4-22-9.6c0.7-2.7-0.6-6.9,4.6-6c-0.5,1-3,1.7-0.4,3c1.4,0.1,2.9,0,3.6-1.1
		c2.9-4.5,7.2-5.2,12-4.8c2,0.2,3.9-0.4,5.9-0.8c3.3-0.7,5.5,0,4.9,4.2C437.8,312.5,437.3,314.1,438.4,315.4z"/>
	<path class="st128" d="M354.3,296.6c1.3,1.5,1.9,3.3,2.5,5.3c1.3,4.8,3.8,6,8.1,3.6c3.1-1.8,5.2-1.4,7.1,1.5c2,3.2,4.8,5,8.7,4.5
		c1.8-0.2,3.2,0,3.2,2.5c0,2.2-0.9,2.8-3,2.8c-15.1-0.1-30.2-0.2-45.3-0.3c-1.1-4.1-0.3-8.3-0.5-12.4c0.3-3,1.2-5.8,2.7-8.4
		c0.7-1.2,1.6-2.4,3-2.2c1.9,0.2,1.5,2,1.6,3.1c0.3,3.5,1.9,4.7,5.5,4.4c2.3-0.2,2.7-1.3,3-3C351.7,296.7,352.4,295.4,354.3,296.6z"
		/>
	<path class="st70" d="M411.9,310.6c-4.1,0-1.4,5.3-4.6,6c-5.2,0.2-10.5,0.5-15.7-0.1c-4.1-2.9-5.4-7.2-3.6-12.4
		c0.7-2-0.3-5.5,3.8-5.3c0.3,0,0.9-0.3,0.9-0.2c2.3,3.4,6.5,0.4,9.3,2.7c1.7,1.4,4.2,2,6.2-0.5c0.6-0.8,2.8-1.7,2.8-0.5
		c0.1,3.2,4.5,4.6,3.1,8.2C413.8,309.6,413,310.3,411.9,310.6z"/>
	<path class="st129" d="M438.4,315.4c-0.1,0.1-0.4,0.2-0.4,0.2c-2.1-2.2,1.8-6.5-2.6-7.7c-2.8-0.7-5.5,1.4-8.6,1
		c-4.4-0.6-8.6,0.1-11.3,4.6c-0.7,1.3-2.6,1.3-4,0.1c7.2-5,13.3-11.4,21-15.6c2.9-1.6,6.2-4.9,9.3-2.2c3,2.6-0.1,6.1-1.1,9.1
		C439.7,308.4,437.8,311.6,438.4,315.4z"/>
	<path class="st14" d="M354.3,296.6c-1.1,0.2-2.2,0.4-2.8,1.6c-0.7,2.3-2.3,3.2-4.5,2.7c-2.5-0.6-3.9-2.4-4.4-4.8
		c-0.6-3.5-1.2-7.1-2.1-10.6c-0.4-2.1-2.3-3.4-2.9-5.4c0.6-0.2,1.2-0.4,1.8-0.6c2.9-0.1,3.5,2.3,4,4.2c0.7,2.5,0.8,5.2,1.3,7.7
		c0.4,1.9,0.1,4.2,1.7,5.5c2.3,1.8,3.2-1.3,4.9-1.9c1.4-0.4,2.7-1.3,4,0.3C355.1,295.9,354.7,296.2,354.3,296.6z"/>
	<path class="st130" d="M475.3,356.5c0,0-0.1,0.4-0.1,0.4c-0.9,2-1.7,4.2-4.3,1.5c-0.2-0.2-0.5-0.4-0.7-0.7
		c-1.4-1.7-5.1-2.3-4.4-4.5c0.7-2,3.9-3,6.4-2.6C475.6,351.1,475.1,354.1,475.3,356.5z"/>
	<path class="st131" d="M337.7,280.1c2.2,0.5,3,2.4,3.7,4.2c-4.2,0.1-4.7,2.6-4.5,6.1c0.3,4.1,0,8.1-1.2,12.1c0,4.7-0.1,9.3-0.1,14
		c-2.1-4.5-0.8-9.3-1-13.9c-0.3-6.3,0-12.6-0.2-18.8C334.4,281.3,335.1,280.1,337.7,280.1z"/>
	<path class="st132" d="M343.8,176.9c4.3-4.1,8.7-8.1,12.9-12.4c2-2,3.3-1.9,5.3,0.1c4.7,4.9,9.7,9.5,14.5,14.3
		c0.2,1.1,0.3,2.2-0.7,3.2c-5,4.8-9.9,9.7-14.7,14.7c-1.7,1.7-2.9,0.7-4.2-0.5c-4.7-4.7-9.2-9.4-14-14
		C340.1,179.7,343.2,178.6,343.8,176.9z"/>
	<path class="st133" d="M189.8,415.2c0.5-2.1,0.8-3.9,3.5-4.7c3.2-1,1.2-4.8,3.2-7.1c3.1-3.3,4.9-7.8,8.1-11.2
		c0.5-0.4,0.9-0.4,1.4,0c0.4,0.7,0.5,1.5,0.4,2.3c-1.2,3.7-2,7.4-0.6,11.2c1.6,6.6,1.7,13.4,3,20c0.6,3.3,0.1,6.9-3.1,8.8
		c-3.2,2-6.3,0.2-8.5-2c-2.7-2.7-6.2-3.6-9.4-5.2c4-1.8,4.9-5.4,5.4-9.3C193.6,415.2,191.7,415.3,189.8,415.2z"/>
	<path class="st134" d="M187.8,427.3c3.2-0.7,5.9,0.1,8.1,2.5c0.5,0.6,1.2,1.2,1.8,1.7c2.1,1.6,4.3,3.8,7.1,2.4
		c2.9-1.5,2.9-4.7,2.6-7.5c-0.8-7-1.9-14-2.8-21.1c0.9-2.5,1.8-0.8,2.7-0.1c2.1,5,2,10.6,3.3,15.8c0.6,3.3,0.7,6.5,0,9.8
		c-1.4,6.2-6.3,8.4-12,5.6c-2.5-1.3-4.3-3.6-6.7-4.9c-4.2-1.4-4.1,2-4.1,4.2c-0.1,3.5,0.1,7,0.6,10.4c1.1,6.2,1.9,12.4,2.7,18.6
		c0.3,2.3,0.8,5-2,6.4c-0.1,0-0.3-0.1-0.4-0.2c-0.2-0.2-0.1-0.5,0.1-0.8c-1.7-10.6-3.4-21.3-5.1-31.9
		C184,434.2,183.9,430,187.8,427.3z"/>
	<path class="st135" d="M172.1,445.2c2,2.6,4.1,5.1,4.7,8.4c0.4,2,1.1,4.3-1.1,5.8c-2.4,1.7-3.9-0.1-5.6-1.4
		c-0.8-0.6-1.6-1.1-2.4-1.7c-1-1.9-2.1-3.7-2.9-5.6c-1.1-2.5-1.9-5.1,0.8-7C168.1,442,170.2,443.3,172.1,445.2z"/>
	<path class="st136" d="M374.2,457.1c-0.3,5.1-1,10.2,1.8,14.9c-4,1.9-8.3,2-12.5,1.7c-3.5-0.2-1.9-3.9-3.4-6.3
		c-1.1,2.5-4.8,3.6-1.7,7c0.5,0.6-0.4,1.7-1.2,1.8c-2.4,0.2-0.1-1.3-0.4-1.5c-3.1-1.6-6.4-2.8-9.3-0.1c-2,1.9-3,2.9-5.5,0.6
		c-1.6-1.5-4.3-1.4-6.1,0.9c-3.8,4.9-9.1,4.4-12.6-1.4c-1.3,1.8-2.5,3.4-3.7,5c-0.6,0.8-1.5,1.5-2.6,1.1c-1.5-0.5-0.1-1.8-0.3-2.3
		c-1.1-2.3-2-5.1-5.1-5.6c1-5.2,3-10.1,4.8-15c0.7-0.9,1.9-1.4,2-2.7c0.3-3.5,1-6.3,5.6-5.1c1.3,0.3,1.8-1,2.5-2
		c2.5-3.9,3.8-3.9,6.5-0.3c0.9,3.6,1.5,7.3,2.7,10.8c2.5,7.2,7.7,8.4,12.9,2.9c3-3.2,5.4-7,8.1-10.5c2.8-3.5,5.8-5.5,10.9-4.5
		c5.5,1.1,6.8,1.9,6.7,7.5C374,455.1,373.9,456.1,374.2,457.1z"/>
	<path class="st137" d="M317,458.2c-1.2,5.2-2.4,10.4-5.7,14.8c-2.3,1.3-4.8,1.4-7.3,1c-4.5-2.7-6.3-7.4-8.4-11.8
		c-0.6-0.6-0.6-1.3-0.3-2c2.7-0.6,3.1,1.7,4.3,3.2c2.1,2.7,3.2,7.2,7.1,6.8c4.6-0.5,4.5-5.5,5.9-8.8c1-2.5,0.6-5.7,3.4-7.4
		c0.8,0,1.4,0.4,1.8,1.1C318.6,456.3,317.9,457.3,317,458.2z"/>
	<path class="st138" d="M287.7,458.2c-0.4,0-0.8,0-1.1,0c-5.5,0.4-8.3,6.6-14.5,6.2c1.2,2.4,5.4,5.4-1.1,5.8
		c-1.9,0.1-0.4,2.2-0.7,3.9c-3.7-2.2-7-3.3-9.2,1.7c-0.6,1.4-3.8-1.4-5.6,1.2c-0.4,0.6-3.7,4.1-5.3-0.2c-0.3-0.8-1.1-0.3-1.6,0.1
		c-1.9,1.5-4.7,1.6-6.2,2.3c-3.5,1.7-4.2-0.6-5.8-1.9c-1.3-1-2.3-2.9-3.2,0.3c-0.4,1.3-1.4,0.7-2.4,0.3c-1.6-0.7-3.5-0.8-5.2-0.1
		c0.7-2.4,0.7-2.8-0.3-6.9c-2-1-1.7,5.3-4.6,1.4c13.3-10,26.5-20.1,39.8-30.1c1.7-1.3,3.3-2.7,5-4c3-3.7,6.5-6.7,11.1-8.4
		c3,2,5.7,1.2,8.7-0.5c4.2-2.4,8.6-4.3,14-4.5c4.4-0.2,8.7-2.6,13.4-2.9c2-0.1,4.8,0.6,6.2-2.8c0.8-1.9,4.3-0.9,6.5-1.5
		c2.8-0.7,5.1-2.1,7.5-3.3c2.3-1.2,4.1-3.4,7.2-1.8c1.1,0.6,2.1-0.6,2.9-1.5c0.8-1,1.7-1.6,2.9-0.7c1.5,2.7-0.2,4.7-1.3,6.8
		c-0.5,0.8-0.9,1.7-1.4,2.5c-0.5,0.8-1.2,2.1-2.1,1.9c-6.1-1.3-9.3,3.2-13.1,6.3c-1.3,1-2.6,1.4-4,1.7c-1.8,0.3-2.7,1.2-2.2,3.1
		c0.2,0.9,0.5,1.8,0.5,2.7c-0.1,1.5-0.9,2.7-1.8,3.8c-2.1,2.3-0.8,6.1-3.6,8.2c-2.3,0.5-2.9-1.9-4.8-2.8c-1.5,10.1-9.8,3.8-15.2,6.9
		c-0.4,1.5,1.7,5-2.2,6.1C292.4,458,289.8,456.1,287.7,458.2L287.7,458.2z"/>
	<path class="st138" d="M214.7,476.9c1.1-1.2,2.2-2.3,3.9-2.8C219.4,477.9,216.5,476.7,214.7,476.9z"/>
	<path class="st139" d="M194.7,474c0.3-5.3,0.4-10.6,0.9-15.9c0.6-6.2,3.6-7.3,8.6-3.6c2,1.5,3.7,3.3,5.6,5c-1.4,1.2-2.8,0.9-4.1,0
		c-1.7-1.3-2.5,0.2-3.1,1.1c-0.9,1.3,0.5,1.6,1.3,2c0.6,0.3,2,0.1,1,1.3c-0.5,0.7-1,1.9-2.2,1.6c-3.1-0.6-6.2,1.6-6.9,5
		C195.6,471.7,196.3,473.2,194.7,474z"/>
	<path class="st140" d="M170.4,482.9c2.4-3.7,1.1-7.7,1.3-11.6c0.1-1.4-0.3-3.2,1.3-4c1.9-1,3.1,0.5,4.2,1.7
		c1.9,2.1,3.7,4.2,5.5,6.4c-2.4-1.3-6.4,1.2-7.2-3.6c-2.2,1.8-1.7,4-1.7,6C173.9,480.3,173.2,482.3,170.4,482.9z"/>
	<path class="st141" d="M222.5,358.2c1.8-1.3,3.9-0.8,5.9-1c8.5-0.8,16.9-0.1,25.4-0.3c3.5,1.3,4.5,5,1.6,8.5
		c-1.9,2.4-3.1,4.1-2.4,7.6c0.7,3.5-2.7,6.5-4.1,9.6c-0.7,0.6,0.3,1-0.2,0.6c-0.1-0.1,0-0.2,0.1-0.4c1.1-2.4,3.4-0.3,4.7-1.2
		c2.4-1.6,5.1-2.9,6.6-5.8c1.5-3,3.8-3.6,6-0.5c0.6,1.3,0.9,2.8-0.2,3.7c-1.2,1.1-2.7,1.6-1.4,3.9c0.5,0.9-1.5,1.5-2.6,1.6
		c-4.4,0.5-7.6,2.7-10.2,6.2c-1.7,2.2-2.9,6.4-6.3,5.2c-3.7-1.2-7-4-7-8.8c0-0.6,0.2-1.3-0.4-1.8c-2.6,3.9-5,4.7-10.4,3.4
		c-2-1.6-2.5-6.2-6-4.6c-3.4,1.5-0.4,5.4-1.3,8.1c-0.8,1.3-1.8,2.2-3.2,2.7c-0.5,0-0.9-0.1-1.4-0.2c-2.7-4.1-6.8-3.6-10.9-3.3
		c1.1-3.1,1.5-6.4,6-6.9c1.9-0.2,2.9-2.8,2.4-5.1c-0.9-4.3,0.2-6.8,5.3-6c0.3,0.1,0.7,0.1,1,0c0.2-0.1,0.4-0.4,0.4-0.6
		c0.4-4.9,5.3-8.8,3.1-14.2C222.9,358.3,222.6,358.3,222.5,358.2z"/>
	<path class="st142" d="M204.7,391.3c5.7-2.8,8-2.2,11.1,2.7c0.7,0.8,0.9,1.7,0.6,2.7c-1.5,1.7-2.4,0.1-3-0.7
		c-1.9-2.4-4.5-3.1-7.3-3.1c-0.4-0.2-0.9-0.4-1.3-0.7C204.6,392,204.6,391.6,204.7,391.3z"/>
	<path class="st115" d="M188.8,470.1c3.2-3.5,0.1-7.1,0.1-10.7c0-4.4-1.1-8.8-1.8-13.2c0.5-3.9-0.3-7.8,0.2-11.7
		c0.4-3,1.8-4.5,4.9-4.3c2.5,0.7,3.8,3.1,5.8,4.5c5.8,4,10.9,1.9,11.6-5.1c0.3-2.6,0.1-5.3,0.1-7.9c-0.4-2.9-0.4-5.8-0.9-8.7
		c-0.4-2,3.4-8.2,5.2-8.9c1.4-0.5,2.2,0.2,2.9,1.2c1.2,1.9,3,2.4,5.1,2.3c2.2,0.7,3.1,2.9,4.8,4.2c1.6,1.2,3.2,2.5,5.4,1.5
		c1.9-0.9,2.2-2.7,2.3-4.6c0.1-2.1,0-4.3,0.6-6.4c1.4-5.1,5-6.4,9.4-3.3c1.9,1.4,3.3,3.3,4.5,5.2c3.2,5,6.8,9.8,8.2,15.7
		c-2.6,4-5.9,3.8-11-0.8c-1.2,3.1-1.7,6.1-0.7,9.1c1.2,3.7-0.6,4.6-3.8,3.9c-2.5-0.6-3.7-0.4-3.6,2.7c0.1,2.3-1.8,2.4-3.1,1.1
		c-2.3-2.2-4.3-1.5-6.7-0.2c-3.2,1.7-6.5,2.5-10.4,0.9c-4.2-1.7-5.8,0.1-5.1,4.6c0.2,1.1,0.7,2.2,0.6,3.4c-0.1,1.5-1,2.4-2.4,2.9
		c-1.5,0.5-2.6,0.1-2.9-1.6c-0.5-2.8-2.9-2.1-5.2-2.5c-0.2,0,0.5,1,0.4,0.4c0-0.2,0.1-0.3,0.4-0.2c1.4,0.3,3.2-0.4,3.9,1.4
		c0.7,1.9-1.2,2.2-2.2,2.8c-1.2,0.7-0.8,3.2-3,2.6c-6-0.4-7.7,0.9-8.9,6.6c-1.1,4.8-0.3,9.6-1,14.4c-0.7,4.7-2.6,5.5-6.5,3
		C188.4,473.8,187.5,471.2,188.8,470.1z"/>
	<path class="st143" d="M202.4,450.4c1-3.5,1-3.5,4.6-5.1c-2-2.3-4.3-0.5-6.5-0.5c2.6-3,6.3-3,7.9-0.1c0.6,1.1,0.5,2.8,2.6,1.8
		c1.8-0.9,1.7-2.1,1.1-3.7c-0.6-1.5-1.6-3.6-1-4.7c1.1-2,2-5.4,6.1-3.1c3.1,1.7,7.3,2.2,10.1-0.1c3.9-3.2,6.7-3,10,2
		c-1.7-7-1.1-7.5,5-5.7c0.9,0.3,1.6,0.5,2.3-0.1c1.1-1,0.2-1.7-0.3-2.5c-2-3.4,0.8-6.8,0.2-10.2c-0.1-0.4,1.5-1.1,2.4-1.5
		c0.7-0.3,1.1,0.2,1.5,0.9c2,3.7,4.8,4.6,8.5,2.6c2.4-0.2,2.1,2,2.9,3.2c0.6,2.8,2.3,4.8,4.6,6.3c1.3,1.4,2.7,2.7,2.2,5
		c-0.2,0.5-0.5,0.8-0.9,1.1c-1.6,1.1-3.2,2.3-4.9,3.4c-2.8,2-5.1,4.6-9.3,1.3c-2.7-2.1-5.8,0-8,2.9c-5.4,7.2-5.5,7.2-13,2.5
		c-5.6-3.5-9-1.7-9.7,5c-0.3,3,0.7,7-2.6,8.5c-3.6,1.7-6-2-8.6-3.8C207,454.2,204.8,452.2,202.4,450.4z"/>
	<path class="st144" d="M265.5,436c0-0.3,0.1-0.6,0.2-0.9c7.9-7.5,16.7-13.8,26.1-19.2c1.2,0.3,1.4,1.1,1.3,2.2
		c-4.3,5.6-10.1,9.4-16.4,12.3c-3.7,2.6-7.4,5.1-11.2,7.7C265.5,437.5,265.5,436.7,265.5,436z"/>
	<path class="st66" d="M147.9,425.2c-1.4-0.1-3.2,0.4-3.2-1.8c0-0.5,1.2-1.4,1.8-1.3C148.9,422.1,146.4,424.6,147.9,425.2
		C147.8,425.2,147.9,425.2,147.9,425.2z"/>
	<path class="st145" d="M228,388.3c5,0.8,8.7-0.8,10.5-6.3c1.2,5.1,0.8,9.9,6.2,12.2c1.6,0.7,1.8,1.1,3.1-0.3c3-3.4,5.1-7.6,9.2-10
		c2.2-1.3,4.9,0.5,7-1.2c-0.1-1.9-2.3-0.6-3.1-1.7c1.6-2.1,6.1-1.6,4.9-5.7c0.3-1.4,1.2-2.4,2.1-3.3c2.3-2.4,4.6-4.6,4-8.6
		c-0.3-1.6,1.6-3.2,2.5-4.8c-6.1-0.7-12.4,1.3-18.4-1.2c-9.1-0.1-18.3-0.2-27.4-0.2c8.4-1.7,17-0.1,25.4-0.9
		c11.7-0.1,23.5-0.2,35.2-0.3c2.2-1.1,4.7-1,7.1-1.5c0.2,0.6,0.4,1.2,0.5,1.8c3.6,9.6-0.3,22.7-9,29.4c-7.6,5.9-15.3,11.7-23,17.4
		c-1.8,1.3-3.4,2.7-4.4,4.6c-1.5,1.9-3.6,2.6-5.9,2.8c-1.8-0.5-2.5-2.1-3.3-3.5c-1.2-2-2.5-3.9-4.1-5.6c-2.4-2.6-5.1-5.5-8.9-3.8
		c-3.4,1.4-3.2,5.1-3.2,8.2c0,1.2,0.1,2.3-0.1,3.5c-0.6,4.1-4.3,6.1-7.1,3.2c-5-5.1-9.8-10.7-11-18.2c1.2-0.6,1.6-2.2,3.2-2.1
		c0.3-0.1,0.7-0.2,0.9,0c4.7,3,4.7,3,6.1-2.5C227,389.1,227.3,388.6,228,388.3z"/>
	<path class="st75" d="M287.6,458.2c1.9-3.4,4.5-2,7-1c1.4,0.6,2,1.5,1,3c0,0.7,0,1.4,0,2C293.1,460.6,291.5,457.1,287.6,458.2z"/>
	<path class="st146" d="M501.2,405c0.9,1.6,2.9,0,3.7,1c1.1,2.3-3.5,1.5-1.7,2.8c1.6,1.2,2.1,4.7,5.1,3.3c1-0.4,1.4,0,1.3,0.6
		c-0.2,2.3,5.7,2,2.4,5.7c-1.9,2.2-2.2,4.9-0.8,7.7c0,0-0.3,0.3-0.3,0.3c-4-1-7.4,0.1-10.6,2.5c-1.8,1.3-3.8,3-6.3,1.1
		c-2.3-1.8-2.2-4.2-1.4-6.8c0.4-1.4,1-2.8,1.2-4.3c1.1-3.7,2.8-7.3,4.2-10.9C498.9,406.6,499.4,405.2,501.2,405z"/>
	<path class="st147" d="M501.2,405c-2,4.8-4,9.5-6,14.3c-0.5,0.9-1.1,1.6-2.3,1.3c-1.9-2.1-0.1-4,0.2-6c1.8-4.5,4.2-8.7,5.3-13.4
		c0.6-2.5,2.8-6-0.5-7.6c-2.8-1.3-4.6,1.9-6.2,3.9c-2.9,3.6-5.5,7.5-7.9,11.5c-2.1,3-3.8,6.3-6.7,8.6c-2.7,2.2-5.6,4.3-9.5,2.5
		c-3.8-1.7-4.6-4.9-4.6-8.6c0-0.8,0-1.7,0-2.5c1.3-8.2,2.8-16.3,6.6-23.9c3.5,2.3-0.5,5.3,0.7,7.8c0.1,3.8-0.7,7.4-1.6,11.1
		c-0.6,2.2-1.1,4.5-1,6.8c0.1,1.7,0.1,3.5,1.9,4.2c2,0.9,3.5-0.4,4.7-1.8c3.2-3.4,5.6-7.4,8.3-11.1c1.6-2.2,2.9-4.9,5.6-6.1
		c3.6-3.5,6.5-8.8,13-5.9C505.4,395.2,501.5,400.1,501.2,405z"/>
	<path class="st148" d="M551.2,469.3c-0.3,1.4-1,1.6-1.9,0.5c-2-2.6-4-5.2-6.5-8.4c2.7,0,3,2.3,4.4,2.7
		C548.1,466.2,549.3,468,551.2,469.3z"/>
	<path class="st84" d="M573.2,480.1c0.2-1.8,1.3-2.2,2.8-1.8c0.7,0.2,1,0.8,0.6,1.5C575.7,481.5,574.4,480.6,573.2,480.1
		C573.2,480.1,573.2,480.1,573.2,480.1z"/>
	<path class="st149" d="M488.2,396.2c-4.1,6.2-8,12.4-12.9,18c-1.6,1.9-3.5,4-6.3,2.9c-2.8-1.1-2.9-3.9-2.7-6.3
		c0.5-6.1,1.9-12,3.9-17.7c1.8,6.9,4-1,6,0.2c1.7,0.3,3.3,0.7,4.2,2.3c0.9,1,0.8,3.7,3.3,1.4C484.9,395.9,486.5,395.3,488.2,396.2z"
		/>
	<path class="st150" d="M469.6,385.2c-1.8,8-3.7,16-5.5,24c-2.7-1-1.7-3.5-2-5.4c-0.4-3-0.7-5.8-4.8-3.2c-0.7,0.4-1.6,0.1-2.2-0.5
		c1-6.3,4-11.9,7.5-17c2.4-3.5,5.5-2.7,6.9,1.3C469.6,384.8,469.6,385,469.6,385.2z"/>
	<path class="st151" d="M469.6,384.5c-1.8-3.9-3.9-3.9-6.3-0.5c-3.5,4.9-5.2,10.7-7.6,16.2c-0.5,5.9-4.1,9.9-8.8,12.9
		c-3.1,2-6,0.7-8.2-2.1c-1-1.2-1.1-3.6-3.2-3.3c-2,0.3-1.6,2.6-2.1,4.1c-0.2,0.6-0.5,1.2-1.2,1.4c-0.3-0.4-0.7-0.8-1-1.2
		c-0.8-0.5-1.3-1.3-1.3-2.3c0-1.2,0-2.3,0.3-3.4c0.6-2.5,2.3-4.1,4.7-4.5c2.6-0.4,4.3,1.1,5.5,3.3c2.6,4.6,4.6,4.7,7.9,0.6
		c1.4-1.8,2.2-4.1,4.2-5.4c2.8-5.4,5.3-10.8,8.3-16.1c1.8-3.1,4.3-5.7,8.6-4C471.7,383.4,471.7,383.6,469.6,384.5z"/>
	<path class="st152" d="M480.5,395.5c-1.9,0.2-3.5-0.3-4.2-2.3c0.8-2.8,0.2-6.3,3.9-7.4c0.7,1.4,0.2,2.8,0.3,4.7
		c2.7-2.2,2.5-4.8,2.2-7.4c4.4-0.4,4,2.7,3.4,5.2C485.5,391.5,483,393.6,480.5,395.5z"/>
	<path class="st153" d="M482.7,383c2.6,4.4,1.7,6.9-3.9,10.3c-0.4-2.8,0.8-5.1,1.3-7.5C480.4,384.2,482.2,384.2,482.7,383z"/>
	<path class="st154" d="M452.5,400.3c-1.2,3.4-2.9,6.6-5.7,9c-2.8,2.4-5.7,1.6-6.5-1.6c-0.8-3.2-2.4-5.6-5.3-5.1
		c-3,0.5-4.7,3.3-3.8,6.8c0.1,0.3-0.5,0.7-0.8,1.1c-5.4-1.4-6.9-6.7-10.3-10.2c-5.1-5.2-9.1-11.3-14.2-16.6
		c-5-5.2-11.1-7.6-18.2-7.6c-8.1,0.1-16.3,0.4-24.4-0.1c-10.4-0.7-19.6,1.9-27.9,8.2c0.1,0.3,0.1,0.6,0,0.9c-5,3.2-10,6.3-14.6,10.1
		c-2.6,2.2-5.3,4.5-8.4,6.1c-0.8,1.8-1.3,3.7-3,4.9c-1.4,1.3-2,3.9-4.8,3.3c-3.4-1.9-3.1,1.2-3.8,2.9c-0.3,1.2-1,2-2.3,2
		c-2.7-1-4.6,1.4-7,1.7c-8.7,6.2-16.9,13.1-26,18.8c0.4-2.1-2.2-2.9-2.2-4.8c-1.9-1.6-2.6-3.9-3.7-6c-0.4-1.1-1.1-2.1-0.4-3.3
		c0.6-0.6,1.7-0.8,2-1.4c2.1-4.4,4.5-4.5,7.4-0.3c0.9-2.1-1.8-7.2,4-3.8c2,1.2,5.2-2.3,7.6-4c1.6-1.1,2.9-2.7,4.2-4.2
		c3.4,0.7,5.4,0.1,4-4c0.3-1.9,1.6-3,3-4c1.2,0.2,2.5-1.2,3.6,0.3c2.4,3.1,2.5-0.3,3.4-1.3c1.6-2.8,2.8-5.7,2-9
		c0.1-0.1,0.3-0.4,0.3-0.4c4.8,3,8-1.8,12-2.4c2.3-0.4,0.3-3.5,2.7-3.2l0.1,0c0.6,0.8,0.7,2.5,2.5,0.8c1.8-1.8,2.3-5.6,6.3-4.5
		c0.6,0.2,1.2-0.4,1-0.7c-2.6-3.4,3.5-4.8,1.9-8.1c-0.1-0.2,0.4-1,0.8-1c3.6-0.6,3.3-2.3,1.6-4.7c-1.1-1.4-1.1-3.3,0.4-3.8
		c1.6-0.6,2.7,1.3,2.5,2.8c-0.7,7.5,2.7,7.4,8.7,6.1c3.1-0.7,4.7-3.2,8.3-4c-1.4,2.2-3,3.9-1.7,6c0.2,0.3,1.3,0.4,1.3,0.3
		c1.1-2.2,3-4.2,2.1-7.4c3.2,1.2,4.4,2.6,2.6,5.2c1.8,0.8,3.4-2,4.7-0.4c2.2,2.7,1.9,0.2,2.5-0.9c1-1.9,0.8-6.4,0-8
		c-1.1-2-0.5-4.4-0.6-6.6c0-0.2,0.8-0.7,1.2-0.7c0.8,0.1,1,0.7,1,1.4c0.1,2.5-0.2,4.5,3.7,5c2.5,0.3,1.6,3.6-0.3,5.1
		c-1.5,1.2-2.7,2.7-1.4,4c2,2,2.5-1,3.7-1.6c0.8-0.4,1.2-2.7,2.5-1c1.5,2,3.3,2.9,4.8,0.8c1.3-1.8,4.9-3.5,1.6-6.6
		c-0.1-0.1,0-0.6,0.1-2c2.3,2,4.9,2.9,3.1,6.3c-0.5,0.9-0.4,1.6,0.5,2c0.6,0.3,1.1,0.4,1.8-0.1c3.8-2.7,7.8-4,12.1-1
		c1.1-1.6-0.5-3.1,0.7-4.5c0.8-0.9,2.4-0.9,2.2-0.6c-2,3.9,3,2.7,3,4.1c0.1,3.9,2.8,2.6,5,2.9c-0.3-0.7-0.5-1.3-0.7-2
		c-0.3-1.3-2.3-2.9-0.4-3.9c1.1-0.6,1.7,1.8,2.4,2.5c2.3,2.2,4.3,0.4,5.5-2c0.5,0.4,0.9,0.6,0.8,0.8c-0.5,4.1-1.9,8.2,4.5,9.3
		c2.1,0.4,6.5,1.4,3.9,5.9c-0.3,0.5,0.5,1.1,1.2,1.4c2.3,0.7,5.8,0.5,3.8,4.8c-0.2,0.4,0.3,1.2,1.2,0.6c3.2-2.1,3.8,1.1,6.5,3.1
		c-4-0.3-6.4,0.6-8.7,3.4c3.9-1.2,7.8-2.4,5.4,3.7c-0.1,0.2,0.4,0.8,0.4,0.8c1.9-0.6,3.8-1.3,5.8-0.7c1.9,0.5,3.9,3,4.8-2.6
		C443.8,400.1,449.8,397,452.5,400.3z"/>
	<path class="st155" d="M304.6,409.2c2.5,0.5,2.7-3.1,5.1-2.8c2.8,2.4,6.5,3.3,9.1,1.3c2-1.5,2.8-1.9,4.7-0.6
		c2.4,1.6,4.8,2.8,5.5-1.7c0.2-1.7,2.2-0.1,2.9-1.2c3.9,4.4,8.5,1.2,12.7,0.8c3-0.3,3,1,2.9,3c0,1.2-0.1,2.2-1.6,2.2
		c-2-0.6-1.6,1.6-2.7,2.2c-1.5,0.8-2.5,4.3-4.8,0.7c-0.8-1.2-1.7-0.4-2.4,0.4c-2.1,2.5-5.8,2.5-7.6,5.3c-0.8,1.2-1.3,0.5-2-0.6
		c-0.7-1.1-2.3-0.1-2,0.6c1.4,4-0.7,1.5-1.7,0.9c-1.4-0.8-3-1.1-4.1,0.1c-1.3,1.4,0.9,1.7,1.1,2.6c-6,1.2-12.7-0.8-18.1,3.7
		c-0.5,0.4-1.1,0.8-1.8,0.5c-5.8-2.4-9.9,1.7-14.4,3.9c-3.2,1.5-5.8,3.8-8.6-0.2c5.3-4.1,10.6-8.2,15.9-12.3
		c1.4-2.1,2.9-4.2,5.9-4.1c1.1-0.1,1.7-0.7,2.2-1.6C301,410.2,302.5,409.5,304.6,409.2z"/>
	<path class="st156" d="M377.4,434.5c-4.3-4.6-6.2-4.6-11.1-0.8c-2.4,1.8-3.8,4.4-5.8,6.6c-4.3,1.2-5.7-2.6-8.1-4.6
		c-0.2-0.5-0.3-1-0.2-1.5c3.3-6.4,5-13,3.9-20.2c-0.3-1.8-2.1-3.5-0.7-5.5c2.5,3.1,6.7,2.1,9.8,3.9c0.7,0.4,2.2,0.5,2.2,0.7
		c-0.4,4.4,3,6.3,5.3,9c1.4,1.6,1.8,4.2,4.9,2.9c1.3-0.5,1.4-0.2,0.9,1c-1.8,4,1.1,3.1,2.8,2.2c2-1.1,3.4-1.8,4.4,0.7
		C383.5,431.6,378.7,430.5,377.4,434.5z"/>
	<path class="st157" d="M355.4,408.3c-0.5,2,1.6,2.9,2,4.5c-1.2,2.4-0.7,4.9-0.7,7.3c0,4-1.4,7.5-3.2,10.8c-1.2,2.1-3.1,3.6-5.7,3
		c-2.4-0.5-3.5-2.4-4-4.6c-0.9-4.1-0.3-8.3,0.2-12.4c0.4-2.3,2.2-4.2,2-6.8c0.5-0.7,1.1-1.5,1.6-2.2
		C350.2,406.2,352.7,408.4,355.4,408.3z"/>
	<path class="st158" d="M335.6,384.4c5-5.8,11.6-8.7,19-9c12.1-0.4,24.2-0.3,36.3-0.1c7,0.1,12.7,3.5,17.1,8.8
		c6.5,7.7,12.9,15.5,19.4,23.2c0.9,1.1,2.1,2.1,3.1,3.1c0.2,0.5,0.5,1,0.7,1.5c-0.6,0.4-1.1,0.7-1.7,1.1
		c-7.2-8.5-14.5-16.8-21.4-25.4c-5.7-7.1-12.7-10.8-21.9-10.4c-11.7,0.6-23.5-0.8-35.2,0.8c-3.8,0.5-6.9,2.3-10,4.2
		C339.2,383.4,337.7,384.6,335.6,384.4z"/>
	<path class="st159" d="M312.6,401.5c5.9-6.5,13.7-10.7,20.6-16c0.5-0.4,1.6-0.1,2.4-0.1c-0.3,2.4-2.6,2.8-4.1,4
		c-4.5,3.6-9.8,6.2-13.9,10.5C316.3,401.2,314.4,401.3,312.6,401.5z"/>
	<path class="st156" d="M378.4,439.5c-0.8-1.3-0.8-2.8-0.8-4.3c1.1-1.1,2.4-2.4,2.8,0.4C380.6,437.2,378.8,438,378.4,439.5z"/>
	<path class="st77" d="M432.1,413.3c0.1-1.3,0-2.6,0.3-3.9c0.3-2,0.9-4.1,3.3-4.3c2.3-0.2,2.2,2,2.9,3.4c2.4,5.4,5.9,6.1,10.3,2.1
		c3.1-2.9,4.4-6.9,6.7-10.3c2.4,0,3.6-1.8,4.6-3.7c4.9,3.3,2,8.7,3.9,12.6c0.3,3.8-0.7,8.5,4.2,10.1c5.2,1.7,7.7-2.4,10.5-5.6
		c1.5-1.7,2.8-3.6,4.2-5.4c2.1-1.7,3.8-5,7-3c2.9,1.8,5.4,4.5,3.8,8.7c-0.2,0.4,0,1,0.3,1.4c0,1.7-1.8,3.1-0.8,4.9
		c0.6,1.9-0.6,3.5-0.9,5.3c-0.4,2,0.4,3.5,2.1,4.7c1.7,1.2,2.9,0.6,4.5-0.4c1.5-1,2.9-2.2,4.6-2.9c1.8-0.8,3.6-1,5.2,0.3
		c1.6,1.3,2.5,2.9,1.9,5.2c-1.1,4.1-1.9,8.3-3.5,12.2c0,0-0.2,0-0.2,0c-2.3,1.4-4.9,0.8-7.3,0.8c-9.8,0-19.6,0-29.4-0.1
		c-1.8,0-3.7,0.2-5.3-1c0.7-1.1,1.9-1.3,3.1-1.3c7.1-0.1,14.2-0.3,20.8,0.2c-1.6-0.5-3-2.2-2.8-4.1c0.5-3.3-1.6-3-3.4-2.7
		c-2.5,0.5-4.2-0.1-5.4-2.3c-0.6-1.1-1.7-1.7-3-1.6c-5.6,0.5-10.1-2.7-14.9-4.7c-2.4-1-4.7-1.3-7.2-0.2c-2.3,1-4.5,1-5.8-1.7
		c-0.9,1.8,4.5,2.8,0.9,5.2C442.4,425.2,437.3,419.2,432.1,413.3z"/>
	<path class="st160" d="M507.2,444.7c0.8-4,1.6-8,2.6-11.9c0.6-2.2,0.1-4-1.7-5.2c-1.7-1.2-3.5-0.2-5.1,0.8
		c-1.1,0.7-2.3,1.4-3.3,2.2c-2,1.8-4,2.1-6.3,0.5c-2.2-1.6-2.6-3.8-2-6.2c0.4-1.6,1.2-3,1.8-4.5c0.6-0.3,1.2-0.6,1.9-0.9
		c-0.5,2.1-1,4.1-1.6,6.2c-0.4,1.6,0.2,2.8,1.5,3.9c1.5,1.3,2.4-0.1,3.4-0.7c1.7-1.1,3.2-2.3,4.9-3.3c2.8-1.6,5.4-1.1,7.7,1
		C513.2,433.2,510.6,439,507.2,444.7z"/>
	<path class="st161" d="M543.2,468.2c4.3,2.7,6.3,7.1,8.8,11.1C548.7,475.9,544.7,473,543.2,468.2L543.2,468.2z"/>
	<path class="st162" d="M543.3,468.1c-2.6-1.1-3.6-3.3-4.5-5.7C540.5,464.2,543.2,465.2,543.3,468.1
		C543.2,468.2,543.3,468.1,543.3,468.1z"/>
	<path class="st163" d="M352.5,435.1c3,1.1,4.6,4.6,8,5c-4,6.2-7.7,12.7-12.5,18.4c-1.7,2-3.5,4.6-6.3,4.1c-3.4-0.5-4.2-3.9-5-6.8
		c-1.3-4.5-1.5-9.1-1.9-13.7c1.8,0.8,2-1.2,2.9-1.8c2.1-1.3,3.9-5.1,6.5-0.4c0.8,1.5,1.8-0.3,2.2-0.7
		C348.3,437.6,350.2,436.1,352.5,435.1z"/>
	<path class="st156" d="M352.5,435.1c-1.2,3.7-5.6,4.4-7.2,7.8c-0.2,0.5-1.3-0.5-1.8-1.1c-0.8-1-0.2-4.3-1.8-3.1
		c-1.5,1.2-4.4,1.4-4.6,4.2c0,0.7,0,1.3-0.9,1.5c-0.5-0.8-0.9-1.5-1.4-2.3c-1.4-4.2-1.1-9.1-5.2-12.1c-3.6-0.7-5.8,2.4-8.9,3.2
		c-1.7-2.9-0.1-5.1,2.4-4.9c4.2,0.3,6.1-3.4,8-5c3-2.6,5.5-3.5,8.7-2.8c1.7,0.3,1.8-1.2,2.8-1.4c1.5,1.7,0.8,3.8,0.9,5.7
		c0.1,8.1,1.1,9.3,8.8,9.9L352.5,435.1z"/>
	<path class="st164" d="M319.8,438.5c0.6-1.1,1.2-2.2,1.8-3.2c2-5,3.2-5.7,6.9-4c4.3,4.8,4.2,10.7,4.3,16.6c-2.6-1.4-5.2-3.1-5.7,2
		c-0.2,1.8-2,3-3.7,2c-3.6-2.1-3.8-0.1-3.8,2.6c0,1.9,0.1,3.8-2.6,3.7c0.1-1,0.3-2,0.4-3c-1.3-4.7,1.5-8.9,1.7-13.4
		C319.2,440.7,319.4,439.5,319.8,438.5z"/>
	<path class="st165" d="M374.2,457.1c-1.2-1.4-0.7-3.2-0.7-4.8c-0.1-1.9-1.2-2.9-2.6-3.9c-2.2-1.6-4.5,0.8-6.9-0.7
		c-3-1.9-4.1,1.3-5.7,3.1c-0.5,0.6-1.1,1.4-1.9,0.3c3-5.5,6.3-10.8,10.7-15.3c1.6-1.6,3.5-3.4,6-2.3c2.3,1,2.4,3.3,2.5,5.5
		C376,445.1,375.2,451.1,374.2,457.1z"/>
	<path class="st166" d="M328.5,431.3c-3.9-1.4-4.9,2.2-6.9,4c-0.3-0.6-0.6-1.3-0.9-1.9c2.4-2.7,4.5-6.1,8.9-3.2
		C329.2,430.5,328.8,430.9,328.5,431.3z"/>
	<path class="st167" d="M447.6,431.2c1.5-3.6-3.9-4.2-2.9-8.4c3.3,6.9,8.9,1.4,13.2,3.3c3.1,1.4,6.9,1.3,9.4,4
		c1.2,1.3,2.7,1.1,4.1,1.1c3.2,0.1,6.4-0.9,8.1,3.6c0.7,1.8,4-0.5,6.4,0.4c1.2,0.4,2,0.5,1.7,1.6c-1.4,4.7,1.2,6,5.6,5.9
		c-0.1,0.6-0.2,1.1-0.4,1.7c-9.2,0-18.5,0-27.7,0C456.8,443.2,452.1,437.3,447.6,431.2z"/>
	<path class="st168" d="M266.6,317.5c-1.6,2.7-2.8-1.3-5-0.1c-2.9,1.6-2.6,3.8-2.8,6.2c-2.8-3.8-5.6-7.6-8.4-11.4
		c0.2-2.6-2.6-5-0.4-7.7c0.5,0,1,0,1.5,0c4,1.8,6.5,5.6,10,8C263.2,314.2,264.9,315.9,266.6,317.5z"/>
	<path class="st169" d="M296,354.6c-1.9,2.9-4.7,1.3-7.1,1.5c0.6-1.7-0.5-1.4-1.5-1.4c-6.6-0.1-13.2-0.3-19.7-0.4
		c-0.1-1.6,4.6-1.3,1.5-4.2c-0.9-0.9-0.7-1.8,1.2-2c2.6-0.3,5.2-0.8,4.3-5.1c-0.3-1.7,1.4-5.1,4.1-5.9c2.7-0.8,4.9-1.5,4.6-4.8
		c-0.1-0.8,0.4-0.9,0.8-0.8c5.1,1,6.1-3,7.7-6.6c-1.5,4.9,2.6,7.3,4.3,10.6C296.3,341.8,296.7,348.2,296,354.6z"/>
	<path class="st170" d="M259.7,407.4c-1.7-2.6,1.2-2.8,2.2-3.6c7.1-5.6,14.2-11.3,21.7-16.4c8.8-6,13.3-13.9,12.8-24.6
		c-0.1-2.1,0.1-4.3,0.2-6.4c0.6-0.7,1.2-1.3,1.9-2c0.1,4.3,0.2,8.6,0.3,13c2,7.6-4.8,18.7-13.5,21.8c-1.9,0.1-2.6,1.8-3.8,2.8
		C275.1,398.2,268.4,404.2,259.7,407.4z"/>
	<path class="st171" d="M479.4,320.3c5.7,1.1,11.3,2.2,17,3.3c2.3,1.3,1,3.6,1.3,5.3c0.2,1.4-2,2.3-3.4,2.2c-2.6-0.3-0.2-2.3-1-3.8
		c-1.3,2.3-5,2.3-4.3,6c0,0.1-0.1,0.5-0.1,0.4c-4.2-0.5-7.1,6-11.8,2.1c-0.7-0.6-2.2,0.7-2.4-0.8c-0.2-1.5,1.4-2.2,2.3-2.2
		c3.5,0.1,2.6-1.7,1.5-3.3c-1.9-2.7-2.6-4.9,1.2-6.6C480.8,322.5,479.5,321.2,479.4,320.3z"/>
	<path class="st172" d="M259.7,407.4c7.3-5.2,14.6-10.3,21.8-15.5c0.1,0.6,0.6,1.6,0.4,1.9c-4.6,5.7,0.3,9.3,2.8,13.4
		c-1.4,3.2-2.8,6.3-6.8,6.8c-0.9,0.1-1,0.4-1.2,1c-2,4.5-4.3,3.3-6.3,0.4c-3.4,1.2,3.6,2.8-0.5,4.6c-4.2,1.9-3.1-2.7-5.5-3.4
		c-0.3,2.6-1.2,4.8-4.4,4.6c-3.7-2.6-5.1-6.3-5.3-10.6C255.5,408.4,258.2,408.8,259.7,407.4z"/>
	<path class="st173" d="M285.3,389.1c7.4-5.4,12.7-12.2,13.5-21.8c2.2-0.2,4.2-0.7,6.4,0.8c1.8,1.3,3.8-0.9,6.1-0.8
		c1.7,0.1,2.8,0.6,3.6,1.4c1.2,1.2-0.4,2.4-0.9,3.5c-1.3,3-4.3,5.4-2.5,9.2c0.1,0.2-0.1,0.6-0.2,0.9c-4.7-1.6-6.6,5.6-12.4,3.2
		c-4.4-1.8-8.1,2.4-10.4,7C287.3,391.4,286.3,390.3,285.3,389.1z"/>
	<path class="st172" d="M300.6,389.3c2.5,2.4,1.7,6.3-2,9c-0.6-1.9-2.6-1.7-3.9-2.6c-1.1-0.7-2.1-1.6-2-3.2c0.2-1.9,1.7-1.3,2.9-1.6
		C297.3,390.5,299.3,390.8,300.6,389.3z"/>
	<path class="st172" d="M291.6,399.3c-0.8,1.5-1.2,3.3-3,4c-1.5-1.5-1-3.5-1.8-5.5C288.9,398,289.9,399.9,291.6,399.3z"/>
	<path class="st154" d="M315.6,383.3c-1.1-1.6,0.7-3.5-0.3-5.1C316.4,379.8,319.2,381.2,315.6,383.3
		C315.6,383.3,315.6,383.3,315.6,383.3z"/>
	<path class="st125" d="M409.7,329.5c-0.7,1.3-1.3,2.3-1.8,3.3c-0.4-0.1-0.9-0.1-0.9-0.2C405.9,330.2,406.9,329.4,409.7,329.5z"/>
	<path class="st174" d="M335.7,302.5c0-4.8-0.1-9.6-0.1-14.4c0-6.4,0.2-6.5,5.8-3.7c0.7,3.3,1.4,6.6,2,10c1,5.9,2.9,6.8,8.1,3.8
		c1,2.9,0.3,4.3-3.1,4.2c-6.6-0.3-6.8-0.4-7.3-8.2C337.3,295.8,338.2,300.2,335.7,302.5z"/>
	<path class="st175" d="M358.5,171.3c2-1.2,0.4-3.3,1.1-4.5c4.2,4.2,8.4,8.4,12.8,12.7c-2.1,0-4.4,0-6.8,0c-3.5-1.2-5.6-4-7.5-6.9
		C358.1,172.2,358.2,171.7,358.5,171.3z"/>
	<path class="st176" d="M358.5,171.3c0,0.5,0,0.9,0,1.4c0.7,2.3-1.4,3.1-2.4,4.5c-0.8,0.8-1.7,1.7-2.6,2.4c-1.3,0.9-2.7,1.2-4.2,1.3
		c-1.3,0-2.6,0-3.7-0.7c-0.2-0.5-1.2-0.7-0.5-1.5c4-4.4,7.9-8.9,11.8-13.4c0.5,0.4,1.1,0.8,1.6,1.2
		C358.5,168.2,358.5,169.8,358.5,171.3z"/>
	<path class="st177" d="M345.6,180.3c1.3-0.2,2.6-0.3,3.8-0.5c2.8,0.3,5.1,1.4,7.2,3.3c0.4,0.3,0.7,0.7,1,1c1.3,2.1,3,4.1,1.1,6.7
		c-0.1,1-0.2,1.9-0.4,3.4c-4.7-4.5-9.1-8.6-13.4-12.8C344.8,181.3,345.3,180.6,345.6,180.3z"/>
	<path class="st178" d="M365.6,180.7c2.3,0,4.6,0,8.2,0c-4.6,4.6-8.4,8.4-12.2,12.2C357.6,188.8,358.2,184.3,365.6,180.7z"/>
	<path class="st179" d="M365.6,180.7c-1.8,3.6-7.4,5.2-5.2,10.7c0.2,0.6,0.8,1,1.1,1.5c-1.5,1.1-1.5,1.1-2.8-2.2
		c0.4-2.7-1.5-4.7-2.2-7.1c1.2-0.5,2.7,0.3,3.7-0.8c0.9-0.9,2.2-1.8,1.5-3.3c-0.6-1.3-1.6-2.5-3.4-2.3c-1,0.1-2.3,1.9-3-0.5
		c0.9-1.5,3-2,3.2-4c2.8,1.8,5,4.3,7.1,6.8C365.6,179.9,365.6,180.3,365.6,180.7z"/>
	<path class="st180" d="M221.8,408.2c-4.1,2.5-5.4-0.7-6.5-3.4c-7.6,4-4.8,10.9-5.6,16.9c-1.1-5.5-2.1-11-3.2-16.5
		c-2.6-3.7-1.6-7.6-0.6-11.4c0.1-0.3,0.1-0.6,0.1-0.8c5.5-3.9,6.9,1.9,9.8,4.1C219,400.1,221.5,403.6,221.8,408.2z"/>
	<path class="st181" d="M205.9,393.8c0.2,3.8,0.4,7.6,0.6,11.4c-0.6-0.2-1.3-0.9-1.9,0.2C203.4,401.4,203.3,397.4,205.9,393.8z"/>
	<path class="st182" d="M192.3,430.2c-2.8,0.9-4.1,2.6-4.4,5.7c-0.3,3.4,0.7,6.9-0.7,10.3c-0.4-4.4-1.6-8.8-0.4-13.2
		C187.5,430.2,188.8,427.8,192.3,430.2z"/>
	<path class="st183" d="M174.7,454.4c0.2,1.6,0.2,2.5-0.6,3c-0.8,0.5-1.5,0.2-2.2-0.5c-2.9-2.6-4.9-5.6-6.5-9.2
		c-0.7-1.6,0.2-2,0.9-2.8c0.9-0.9,1.7-0.6,2.6,0.1C172.2,447.7,173.8,451.3,174.7,454.4z"/>
	<path class="st184" d="M295.6,460.1c-0.3-1-0.7-2-1-3c2.9-2.5,0.9-5.5,1-8.5c3.9,2.4,8.3-0.5,12.6,0.6c1.9,0.5,1.8-2.3,2.7-3.5
		c0.7-0.9-1.1-2.8,0.9-3.3c1.9-0.5,1.4,2.2,3,2.6c0.8,0.2,1.3,1.4,1.9,2.1c2,2.3-0.5,4.5-0.2,6.8c-1.3,3.7-2.5,7.4-3.8,11.1
		c-1,3-1.7,6.5-5.4,6.9c-3.7,0.4-5.1-3-7.1-5.4C298.4,464.5,298.1,461.6,295.6,460.1z"/>
	<path class="st185" d="M316.4,454c-1.8-2.3,0.6-4.5,0.2-6.8c1.3-2.8,0.8-6.3,3.2-8.7c1.2,5.9-1.2,11.2-2.3,16.7
		C317.1,454.8,316.8,454.4,316.4,454z"/>
	<path class="st186" d="M352.3,434.9c-5.2,2.1-8.6,0.6-9.4-4.8c-0.5-3.6-0.2-7.3-0.2-10.9c0.3-0.8-0.1-1.9,1.2-2.2
		c2.1,1.3,0.6,3.2,0.8,4.9c0.3,2.4-0.1,4.9,0.3,7.3c0.3,1.7,0.7,3.7,2.9,4.1c2.4,0.4,3.7-1.1,4.7-2.9c2.2-4,3.2-8.2,3.2-12.7
		c0-1.8-0.2-3.6,1.6-4.9C358.1,420.8,357.7,428.4,352.3,434.9z"/>
	<path class="st187" d="M255.7,357.5c6.6,0,13.2,0,20.8,0c-3.8,3.2-2.3,7.5-4.2,10.8c-1.7,2.9-3.8,5.4-6.7,7.1
		c-1.9-0.9-4-1.8-4.7,1.2c-0.9,4.3-6.2,3.9-7.7,7.4c0,0.1-0.4,0.2-0.4,0.2c-3.6-4.1-3.8,1.9-6.8,2.4c1.5-3.3,2.7-6,3.9-8.6
		c0.1-0.3,0.3-0.7,0.6-0.8c4.8-2.8-2.7-7.3,1.2-9.7C255.8,364.8,255.8,361.3,255.7,357.5z"/>
	<path class="st188" d="M221.8,408.2c-2-3.7-4-7.4-6-11.1c0-1,0-2,0-3c0.2,0.2,0.5,0.3,0.8,0.3c3.2,5.2,6.4,10.4,9.7,15.5
		c1.2,1.8,3,3.4,5.4,2.6c2.5-0.8,1.9-3.2,2-5.1c0.1-1.3,0.2-2.7,0.2-4c0-2.8,0.4-5.6,3.1-6.9c3-1.5,5.8-0.1,8.2,1.9
		c4,3.3,6.5,7.9,9.3,12.1c1.7,3.6,2.7,7.5,5.3,10.6c0.3,1,0.5,2.1,0.8,3.1c-0.6,0.4-1.2,0.5-1.8-0.1c-1.6-0.8-0.3-3.1-2.1-3.8
		c-3.2-5.8-5.6-12-9.9-17.1c-1.1-1.2-2.2-2.5-3.5-3.5c-3.9-3-6.5-2-7.2,2.8c-0.3,2.1-0.3,4.3-0.2,6.4c0,2.5-0.7,4.7-3.1,5.7
		c-2.6,1.1-4.9,0-6.7-1.9C224.5,411.5,223.2,409.8,221.8,408.2z"/>
	<path class="st189" d="M228,388.3c0,0.2,0,0.3,0,0.5c-0.2,2.6,1.5,5.9-1.8,7.4c-3.5,1.6-4.4-2.3-6.4-3.9c-0.3-1.4-0.8-2.8-1-4.3
		c-0.3-2.3-0.6-4.8,2.4-5.6c2.9-0.9,4.6,0.7,5.8,3.2C227.3,386.4,227.6,387.4,228,388.3z"/>
	<path class="st190" d="M258.8,424.2c0.6,0,1.2,0,1.8,0.1c1.9,1.5,1.9,4,3,6C260.2,429.6,259.5,427,258.8,424.2z"/>
	<path class="st191" d="M298.5,414.1c-2,1.4-3.9,2.7-5.9,4.1c0.1-0.8,0-1.5-0.9-1.9c1.3-1.7,3.2-2.7,5-3.8
		C298.4,411.6,298.7,412.7,298.5,414.1z"/>
	<path class="st192" d="M494.1,415.3c-2.4-1.9,0.9-5.7-3.5-7.8c-2.8-1.3-3.8-1.6-5.8,0.2c-0.4,0.4-1.2,0.4-1.8,0.5
		c2.9-5.1,5.9-10.1,10.2-14.2c1.6-1.5,3.4-3.6,6-2c2.4,1.5,1.7,3.9,1.2,6.2C499.2,404.3,496.4,409.7,494.1,415.3z"/>
	<path class="st193" d="M388.6,370.4c12-0.6,21.6,5.2,27.4,16.7c-6.2-6.3-11.5-14.1-21.5-14.9C392.8,370.8,389.8,373.4,388.6,370.4z
		"/>
	<path class="st194" d="M388.6,370.4c1.5,2.1,4.4-0.1,6,1.8c-6,0.2-11.9,0.3-17.8-0.9C380.6,369.7,384.6,370.1,388.6,370.4z"/>
	<path class="st195" d="M304.6,409.2c-1.3,1.1-2.6,2.2-3.9,3.3c-1.4-0.6-2.5-1.3-0.6-2.6c1.5-1.1,3-2.3,5-3.7
		C304.9,407.5,304.7,408.4,304.6,409.2z"/>
	<path class="st196" d="M424.6,396.8c-2.8-1.7-5-3.9-5.9-7.1C421.5,391.3,423,394,424.6,396.8z"/>
	<path class="st172" d="M294.3,402.1c-0.6,1.5-1.2,3.1-1.9,4.8c-2.8-3,0.7-3.7,0.6-5.5C293.5,401.7,293.9,401.9,294.3,402.1z"/>
	<path class="st82" d="M364.8,415.1c-5.8,2.9-5.8,2.9-5.8-2.4C361.1,412.5,362.6,413.9,364.8,415.1z"/>
	<path class="st138" d="M331.2,427.8c1.5-0.3,3.6-2.3,3.6,0.1c0,1.4,2.3,3,0.5,3.6C333,432.2,333.2,428.5,331.2,427.8z"/>
	<path class="st197" d="M355.4,176.7c0,0.2,0.1,0.3,0.1,0.5c4.5-3.4,6.5,0.2,8.9,3.2c-2.5,1.6-3.6,6.1-7.9,3.3c0,0,0.1,0,0.1,0
		c-1.9-1.2-3.5-2.6-3-5.1C354.2,178,354.8,177.3,355.4,176.7z"/>
	<path class="st179" d="M353.6,178.6c1,1.7,2,3.4,3,5.1c-2.4-1.3-4.8-2.6-7.2-3.9C350.9,179.7,352.4,179.8,353.6,178.6z"/>
	<path class="st198" d="M226,391.1c-0.1,1.1,0.2,3.2-1,2.8c-3.2-1-3.7-4.2-4.1-7.1c-0.2-1.1,0.1-2.8,1.6-2.4
		C225.9,385.3,225.4,388.6,226,391.1z"/>
</g>
</svg>
